<?xml version="1.0" standalone="no"?>
<!DOCTYPE svg PUBLIC "-//W3C//DTD SVG 1.1//EN" "http://www.w3.org/Graphics/SVG/1.1/DTD/svg11.dtd" >
<svg xmlns="http://www.w3.org/2000/svg" xmlns:xlink="http://www.w3.org/1999/xlink" version="1.1">
<metadata>
Created by FontForge 20170731 at Wed Feb  8 17:45:02 2023
 By Aleksey,,,
Serbian Cyrillic
</metadata>
<defs>
<font id="GrtskPeta-Bold" horiz-adv-x="1024" >
  <font-face 
    font-family="Grtsk Peta"
    font-weight="700"
    font-stretch="normal"
    units-per-em="2048"
    panose-1="0 0 0 0 0 0 0 0 0 0"
    ascent="1536"
    descent="-512"
    x-height="1126"
    cap-height="1434"
    bbox="-152 -430 2327 2028"
    underline-thickness="225"
    underline-position="-531"
    unicode-range="U+000D-F6C3"
  />
<missing-glyph horiz-adv-x="1644" 
d="M164 0v1434h1317v-1434h-1317zM543 307h559v819h-559v-819z" />
    <glyph glyph-name=".notdef" horiz-adv-x="1644" 
d="M164 0v1434h1317v-1434h-1317zM543 307h559v819h-559v-819z" />
    <glyph glyph-name=".null" horiz-adv-x="0" 
 />
    <glyph glyph-name=".null" horiz-adv-x="0" 
 />
    <glyph glyph-name="nonmarkingreturn" horiz-adv-x="682" 
 />
    <glyph glyph-name="CR" unicode="&#xd;" horiz-adv-x="0" 
 />
    <glyph glyph-name="space" unicode=" " horiz-adv-x="440" 
 />
    <glyph glyph-name="exclam" unicode="!" horiz-adv-x="684" 
d="M500 451h-316l-24 983h364zM164 0v336h356v-336h-356z" />
    <glyph glyph-name="quotedbl" unicode="&#x22;" horiz-adv-x="1101" 
d="M143 770l-20 664h356l-20 -664h-316zM643 770l-20 664h356l-21 -664h-315z" />
    <glyph glyph-name="numbersign" unicode="#" horiz-adv-x="1683" 
d="M154 0l86 315h-220v287h297l62 229h-256v287h334l86 316h338l-86 -316h288l86 316h338l-86 -316h242v-287h-320l-61 -229h279v-287h-357l-86 -315h-338l86 315h-288l-86 -315h-338zM655 602h289l62 229h-289z" />
    <glyph glyph-name="dollar" unicode="$" horiz-adv-x="1406" 
d="M57 453l369 47q27 -183 188 -221v284l-73 10q-443 61 -443 420q0 191 139.5 314t376.5 143v147h164v-145q237 -13 364 -121.5t158 -318.5l-368 -47q-17 85 -53.5 131t-100.5 63v-278l90 -13q243 -35 355 -138t112 -292q0 -202 -146.5 -321.5t-410.5 -134.5v-146h-164v146
q-256 17 -392 132t-165 339zM481 1036q0 -49 30 -79t103 -48v252q-67 -12 -100 -44.5t-33 -80.5zM952 397q0 57 -37 90t-137 52v-271q174 17 174 129z" />
    <glyph glyph-name="percent" unicode="%" horiz-adv-x="1826" 
d="M440 1454q171 0 279 -104t108 -269q0 -166 -107.5 -269t-279.5 -103t-280.5 103.5t-108.5 268.5q0 164 108.5 268.5t280.5 104.5zM1354 1434h338l-1219 -1434h-338zM440 950q60 0 94.5 35.5t34.5 95.5q0 61 -34.5 96t-94.5 35t-94.5 -35t-34.5 -96q0 -60 34.5 -95.5
t94.5 -35.5zM1389 725q171 0 279 -104t108 -269q0 -166 -107.5 -269t-279.5 -103t-281 103.5t-109 268.5q0 164 109 268.5t281 104.5zM1389 221q60 0 94.5 35.5t34.5 95.5q0 61 -34.5 96t-94.5 35t-94.5 -35t-34.5 -96q0 -60 34.5 -95.5t94.5 -35.5z" />
    <glyph glyph-name="ampersand" unicode="&#x26;" horiz-adv-x="1538" 
d="M641 -20q-259 0 -404 118.5t-145 304.5q0 226 264 369q-83 93 -112 158.5t-29 144.5q0 168 131.5 273.5t341.5 105.5q207 0 338 -106t131 -273q0 -120 -69.5 -208.5t-217.5 -168.5l177 -174q33 77 49 187l360 -37q-20 -222 -160 -395l283 -279h-451l-77 78
q-185 -98 -410 -98zM569 1071q0 -69 78 -153q89 45 124.5 80.5t35.5 76.5q0 47 -32 75t-87 28q-54 0 -86.5 -29.5t-32.5 -77.5zM473 401q0 -66 54 -100.5t155 -34.5q80 0 152 29l-254 252q-60 -36 -83.5 -69t-23.5 -77z" />
    <glyph glyph-name="quotesingle" unicode="'" horiz-adv-x="602" 
d="M143 770l-20 664h356l-20 -664h-316z" />
    <glyph glyph-name="parenleft" unicode="(" horiz-adv-x="782" 
d="M455 -307q-322 423 -322 870q0 442 322 871h327q-147 -247 -215.5 -457.5t-68.5 -413.5t68.5 -413t215.5 -457h-327z" />
    <glyph glyph-name="parenright" unicode=")" horiz-adv-x="782" 
d="M328 1434q321 -422 321 -871q0 -442 -321 -870h-328q148 247 216.5 457t68.5 413t-69 413.5t-216 457.5h328z" />
    <glyph glyph-name="asterisk" unicode="*" horiz-adv-x="1011" 
d="M872 760l-239 -172l-127 229l-127 -229l-240 172l178 192l-256 52l91 280l237 -110l-31 260h295l-30 -260l237 110l90 -280l-256 -52z" />
    <glyph glyph-name="plus" unicode="+" 
d="M932 596h-287v-287h-266v287h-287v264h287v287h266v-287h287v-264z" />
    <glyph glyph-name="comma" unicode="," horiz-adv-x="643" 
d="M143 336h357v-281q0 -200 -81 -289.5t-267 -93.5l-17 193q82 0 116 29t38 106h-146v336z" />
    <glyph glyph-name="hyphen" unicode="-" horiz-adv-x="765" 
d="M92 436v336h582v-336h-582z" />
    <glyph glyph-name="period" unicode="." horiz-adv-x="643" 
d="M143 0v336h357v-336h-357z" />
    <glyph glyph-name="slash" unicode="/" horiz-adv-x="860" 
d="M-20 -307l450 1741h377l-451 -1741h-376z" />
    <glyph glyph-name="zero" unicode="0" horiz-adv-x="1466" 
d="M733 -20q-306 0 -479.5 195.5t-173.5 541.5t173.5 541.5t479.5 195.5t479.5 -195.5t173.5 -541.5t-173.5 -541.5t-479.5 -195.5zM733 287q129 0 196.5 110.5t67.5 319.5t-67.5 319.5t-196.5 110.5t-196.5 -110.5t-67.5 -319.5t67.5 -319.5t196.5 -110.5z" />
    <glyph glyph-name="one" unicode="1" horiz-adv-x="1171" 
d="M63 0v307h375v799l-334 -82v317l375 93h340v-1127h311v-307h-1067z" />
    <glyph glyph-name="two" unicode="2" horiz-adv-x="1245" 
d="M106 307l443 361q129 105 178 177.5t49 151.5q0 68 -43 109t-119 41q-188 0 -194 -238l-363 54q20 231 168.5 361t395.5 130q248 0 394 -124t146 -329q0 -151 -82.5 -274.5t-298.5 -294.5l-157 -125h553v-307h-1070v307z" />
    <glyph glyph-name="three" unicode="3" horiz-adv-x="1288" 
d="M1210 406q0 -201 -153.5 -313.5t-409.5 -112.5q-261 0 -410 107.5t-176 344.5l363 66q12 -222 219 -222q88 0 136 40.5t48 113.5q0 68 -45.5 105.5t-132.5 37.5h-139v297h139q78 0 124 39.5t46 104.5q0 143 -180 143q-98 0 -154 -53t-63 -156l-346 66q31 211 184 325.5
t399 114.5q239 0 385 -101.5t146 -279.5q0 -113 -61.5 -197.5t-176.5 -130.5q258 -85 258 -339z" />
    <glyph glyph-name="four" unicode="4" horiz-adv-x="1300" 
d="M1085 0h-358v240h-696v276l676 918h378v-897h185v-297h-185v-240zM406 537h321v444z" />
    <glyph glyph-name="five" unicode="5" horiz-adv-x="1271" 
d="M633 -20q-470 0 -551 374l352 74q21 -141 191 -141q92 0 140 48t48 142t-50 145.5t-142 51.5q-133 0 -187 -105l-315 45l65 820h912v-308h-609l-22 -264q109 86 276 86q199 0 326 -124.5t127 -340.5q0 -235 -150.5 -369t-410.5 -134z" />
    <glyph glyph-name="six" unicode="6" horiz-adv-x="1333" 
d="M82 717q0 346 168.5 541.5t472.5 195.5q208 0 350 -95t176 -272l-352 -69q-25 139 -178 139q-243 0 -258 -393q126 147 344 147q207 0 332 -121.5t125 -330.5q0 -146 -73 -255.5t-201 -166.5t-294 -57q-295 0 -453.5 194t-158.5 543zM698 276q91 0 142 46.5t51 128.5
q0 85 -51 132.5t-142 47.5q-88 0 -137 -47.5t-49 -132.5q0 -82 49 -128.5t137 -46.5z" />
    <glyph glyph-name="seven" unicode="7" horiz-adv-x="1112" 
d="M1071 1126l-493 -1126h-412l516 1126h-637v308h1026v-308z" />
    <glyph glyph-name="eight" unicode="8" horiz-adv-x="1335" 
d="M668 -20q-283 0 -436.5 113.5t-153.5 303.5q0 114 67.5 200t192.5 136q-99 52 -154 135.5t-55 188.5q0 176 145.5 286.5t393.5 110.5t393 -110.5t145 -288.5q0 -105 -54 -188t-153 -134q124 -50 191 -136.5t67 -199.5q0 -190 -153 -303.5t-436 -113.5zM846 1024
q0 72 -47.5 113t-130.5 41t-131 -40.5t-48 -111.5q0 -70 47.5 -109.5t131.5 -39.5q83 0 130.5 39t47.5 108zM668 256q98 0 153.5 42t55.5 116q0 78 -56 123t-153 45t-153 -45t-56 -123q0 -74 55.5 -116t153.5 -42z" />
    <glyph glyph-name="nine" unicode="9" horiz-adv-x="1333" 
d="M1251 717q0 -346 -168.5 -541.5t-472.5 -195.5q-208 0 -350 94.5t-176 271.5l352 70q12 -68 57.5 -104t120.5 -36q243 0 258 394q-126 -148 -344 -148q-207 0 -331.5 122t-124.5 331q0 220 157 349.5t410 129.5q295 0 453.5 -194t158.5 -543zM635 1157q-91 0 -142 -46
t-51 -128q0 -85 51 -132.5t142 -47.5q88 0 137 47.5t49 132.5q0 82 -49 128t-137 46z" />
    <glyph glyph-name="colon" unicode=":" horiz-adv-x="643" 
d="M143 791v335h357v-335h-357zM143 0v336h357v-336h-357z" />
    <glyph glyph-name="semicolon" unicode=";" horiz-adv-x="641" 
d="M141 791v335h357v-335h-357zM141 336h357v-281q0 -200 -81 -289.5t-267 -93.5l-17 193q82 0 116 29t38 106h-146v336z" />
    <glyph glyph-name="less" unicode="&#x3c;" 
d="M92 596v244l840 405v-317l-455 -199l455 -199v-340z" />
    <glyph glyph-name="equal" unicode="=" 
d="M932 821h-840v264h840v-264zM932 371h-840v264h840v-264z" />
    <glyph glyph-name="greater" unicode="&#x3e;" 
d="M932 840v-244l-840 -406v318l455 199l-455 198v340z" />
    <glyph glyph-name="question" unicode="?" horiz-adv-x="1228" 
d="M627 1147q-92 0 -142.5 -58.5t-60.5 -179.5l-363 74q29 221 179.5 346t386.5 125q233 0 376.5 -113.5t143.5 -298.5q0 -74 -20.5 -133.5t-53.5 -98.5t-72.5 -71.5t-79.5 -61t-73 -59t-54 -73t-22 -94.5h-356q2 82 23.5 148t53.5 108t70.5 75.5t76 59t68.5 49.5t50.5 55.5
t19.5 69.5q0 62 -38 96.5t-113 34.5zM416 0v336h356v-336h-356z" />
    <glyph glyph-name="at" unicode="@" horiz-adv-x="2068" 
d="M1552 -20q-119 0 -200.5 45.5t-112.5 128.5q-114 -177 -332 -177q-154 0 -246 83.5t-92 222.5q0 140 98.5 215t313.5 100l238 27q-3 168 -152 168q-156 0 -168 -152l-297 43q34 171 154.5 259.5t318.5 88.5q217 0 330 -100t113 -291v-393q0 -46 19.5 -68t61.5 -22
q92 0 154 107t62 308q0 220 -95 384t-266.5 250.5t-398.5 86.5q-177 0 -327 -62t-254 -172.5t-162 -266t-58 -338.5q0 -346 202 -546t558 -200q210 0 416 94l57 -122q-217 -111 -473 -111q-276 0 -482.5 107.5t-318 308t-111.5 469.5q0 214 73 397.5t199.5 310.5t302.5 199
t378 72q193 0 360 -60t289 -169t192 -272t70 -360q0 -266 -110.5 -429.5t-303.5 -163.5zM868 307q0 -86 111 -86q103 0 173.5 61t70.5 150l-258 -35q-97 -11 -97 -90z" />
    <glyph glyph-name="A" unicode="A" horiz-adv-x="1519" 
d="M1130 0l-100 274h-557l-100 -274h-373l567 1434h385l568 -1434h-390zM582 569h342l-172 465z" />
    <glyph glyph-name="B" unicode="B" horiz-adv-x="1490" 
d="M164 0v1434h733q216 0 338.5 -98.5t122.5 -272.5q0 -213 -232 -320q134 -40 208.5 -129t74.5 -211q0 -190 -133.5 -296.5t-370.5 -106.5h-741zM827 1143h-292v-279h292q79 0 121.5 36t42.5 104q0 67 -42 103t-122 36zM856 575h-321v-284h317q170 0 170 137
q0 72 -43 109.5t-123 37.5z" />
    <glyph glyph-name="C" unicode="C" horiz-adv-x="1540" 
d="M82 717q0 217 90 384.5t253 260t374 92.5q270 0 447 -131t233 -381l-383 -74q-26 136 -102 207.5t-195 71.5q-159 0 -243.5 -110.5t-84.5 -319.5t84.5 -319.5t243.5 -110.5q125 0 201 72.5t98 213.5l379 -71q-47 -254 -225.5 -388t-452.5 -134q-169 0 -305 53.5
t-226 150.5t-138 233t-48 300z" />
    <glyph glyph-name="D" unicode="D" horiz-adv-x="1603" 
d="M164 0v1434h610q352 0 550 -191.5t198 -531.5q0 -334 -198 -522.5t-550 -188.5h-610zM774 307q173 0 266 104.5t93 299.5q0 201 -93 308t-266 107h-231v-819h231z" />
    <glyph glyph-name="E" unicode="E" horiz-adv-x="1314" 
d="M164 0v1434h1036v-308h-657v-249h553v-299h-553v-271h680v-307h-1059z" />
    <glyph glyph-name="F" unicode="F" horiz-adv-x="1282" 
d="M164 0v1434h1036v-308h-657v-309h553v-307h-553v-510h-379z" />
    <glyph glyph-name="G" unicode="G" horiz-adv-x="1626" 
d="M82 717q0 220 92 387.5t260 258.5t389 91q263 0 431 -116.5t229 -344.5l-363 -80q-57 234 -295 234q-172 0 -263 -110.5t-91 -319.5t91 -319.5t263 -110.5q135 0 219.5 52.5t112.5 152.5h-336v286h682v-778h-258l-24 190q-156 -210 -437 -210q-318 0 -510 202t-192 535z
" />
    <glyph glyph-name="H" unicode="H" horiz-adv-x="1654" 
d="M164 0v1434h379v-543h569v543h379v-1434h-379v584h-569v-584h-379z" />
    <glyph glyph-name="I" unicode="I" horiz-adv-x="706" 
d="M164 0v1434h379v-1434h-379z" />
    <glyph glyph-name="J" unicode="J" horiz-adv-x="899" 
d="M745 489q0 -250 -116.5 -379.5t-343.5 -129.5q-105 0 -222 20l-12 317q48 -10 127 -10q106 0 147.5 39.5t41.5 142.5v945h378v-945z" />
    <glyph glyph-name="K" unicode="K" horiz-adv-x="1499" 
d="M164 0v1434h368v-549l494 549h440l-592 -639l635 -795h-460l-420 526l-97 -102v-424h-368z" />
    <glyph glyph-name="L" unicode="L" horiz-adv-x="1245" 
d="M164 0v1434h379v-1127h641v-307h-1020z" />
    <glyph glyph-name="M" unicode="M" horiz-adv-x="1945" 
d="M164 0v1434h420l397 -818l391 818h410v-1434h-338v889l-303 -627h-328l-311 625v-887h-338z" />
    <glyph glyph-name="N" unicode="N" horiz-adv-x="1634" 
d="M164 0v1434h375l594 -926v926h337v-1434h-374l-594 926v-926h-338z" />
    <glyph glyph-name="O" unicode="O" horiz-adv-x="1626" 
d="M813 -20q-218 0 -384 91.5t-256.5 259t-90.5 386.5q0 333 200.5 535t530.5 202t530.5 -202t200.5 -535q0 -219 -90.5 -386.5t-256.5 -259t-384 -91.5zM813 287q166 0 254 110.5t88 319.5t-88 319.5t-254 110.5t-254 -110.5t-88 -319.5t88 -319.5t254 -110.5z" />
    <glyph glyph-name="P" unicode="P" horiz-adv-x="1419" 
d="M164 0v1434h676q234 0 376 -140.5t142 -371.5q0 -226 -148.5 -363t-394.5 -137h-272v-422h-379zM756 1135h-213v-414h213q104 0 159.5 52t55.5 149q0 103 -55.5 158t-159.5 55z" />
    <glyph glyph-name="Q" unicode="Q" horiz-adv-x="1626" 
d="M813 -20q-218 0 -384 91.5t-256.5 259t-90.5 386.5q0 333 200.5 535t530.5 202t530.5 -202t200.5 -535q0 -192 -69.5 -344t-198.5 -250l203 -287h-389l-113 158q-71 -14 -164 -14zM653 496h359l63 -88q80 109 80 309q0 209 -88 319.5t-254 110.5t-254 -110.5t-88 -319.5
q0 -205 85 -315t245 -115z" />
    <glyph glyph-name="R" unicode="R" horiz-adv-x="1462" 
d="M164 0v1434h704q223 0 353.5 -124t130.5 -339q0 -162 -86.5 -270.5t-241.5 -145.5l387 -555h-428l-340 508h-100v-508h-379zM799 1137h-256v-332h256q86 0 133 43t47 123t-47 123t-133 43z" />
    <glyph glyph-name="S" unicode="S" horiz-adv-x="1406" 
d="M57 453l369 47q37 -234 291 -234q235 0 235 131q0 64 -48.5 98t-184.5 54l-178 24q-443 61 -443 420q0 209 165 335t439 126t420 -108.5t178 -333.5l-368 -47q-22 109 -77 155.5t-163 46.5q-105 0 -158 -35t-53 -96q0 -60 47 -92.5t170 -50.5l170 -25q243 -35 355 -138
t112 -292q0 -217 -166 -337.5t-462 -120.5q-303 0 -460.5 114.5t-189.5 358.5z" />
    <glyph glyph-name="T" unicode="T" horiz-adv-x="1337" 
d="M475 0v1126h-424v308h1235v-308h-432v-1126h-379z" />
    <glyph glyph-name="U" unicode="U" horiz-adv-x="1572" 
d="M1425 567q0 -277 -169 -432t-470 -155t-470 155t-169 432v867h379v-879q0 -130 67 -199t193 -69t193.5 69t67.5 199v879h378v-867z" />
    <glyph glyph-name="V" unicode="V" horiz-adv-x="1454" 
d="M418 1434l319 -992l322 992h385l-524 -1434h-385l-525 1434h408z" />
    <glyph glyph-name="W" unicode="W" horiz-adv-x="2197" 
d="M438 0l-428 1434h400l231 -953l285 953h344l291 -971l233 971h393l-428 -1434h-370l-297 934l-297 -934h-357z" />
    <glyph glyph-name="X" unicode="X" horiz-adv-x="1390" 
d="M418 0h-406l457 741l-459 693h422l277 -445l260 445h405l-459 -715l465 -719h-422l-276 455z" />
    <glyph glyph-name="Y" unicode="Y" horiz-adv-x="1388" 
d="M496 0v567l-496 867h428l272 -551l273 551h416l-515 -877v-557h-378z" />
    <glyph glyph-name="Z" unicode="Z" horiz-adv-x="1288" 
d="M78 0v307l688 819h-688v308h1132v-308l-688 -819h688v-307h-1132z" />
    <glyph glyph-name="bracketleft" unicode="[" horiz-adv-x="804" 
d="M164 -307v1741h631v-287h-275v-1167h275v-287h-631z" />
    <glyph glyph-name="backslash" unicode="\" horiz-adv-x="860" 
d="M881 -307h-377l-451 1741h377z" />
    <glyph glyph-name="bracketright" unicode="]" horiz-adv-x="804" 
d="M641 -307h-631v287h275v1167h-275v287h631v-1741z" />
    <glyph glyph-name="asciicircum" unicode="^" 
d="M336 1434h352l295 -861h-332l-143 498l-143 -498h-324z" />
    <glyph glyph-name="underscore" unicode="_" horiz-adv-x="1064" 
d="M51 -336v336h963v-336h-963z" />
    <glyph glyph-name="grave" unicode="`" 
d="M641 1245h-266l-297 332h440z" />
    <glyph glyph-name="a" unicode="a" horiz-adv-x="1245" 
d="M88 766q38 189 171 285t355 96q238 0 363 -109.5t125 -318.5v-410q0 -65 63 -65q23 0 39 4l-6 -240q-65 -28 -141 -28q-237 0 -271 190q-124 -190 -358 -190q-172 0 -274.5 91t-102.5 244q0 160 110 247.5t349 115.5l268 31q-6 178 -174 178q-178 0 -190 -168zM383 346
q0 -51 30 -74.5t95 -23.5q116 0 195 69t79 170v7l-274 -37q-61 -7 -93 -36.5t-32 -74.5z" />
    <glyph glyph-name="b" unicode="b" horiz-adv-x="1406" 
d="M455 0h-312v1536h357v-565q61 84 145.5 130t183.5 46q224 0 360 -160t136 -424t-136 -423.5t-360 -159.5q-106 0 -196.5 54t-151.5 150zM731 272q107 0 168.5 77.5t61.5 213.5t-61.5 213.5t-168.5 77.5q-109 0 -170 -77t-61 -214t61 -214t170 -77z" />
    <glyph glyph-name="c" unicode="c" horiz-adv-x="1265" 
d="M1214 715l-340 -60q-35 205 -206 205q-107 0 -164.5 -76.5t-57.5 -220.5t57.5 -220.5t164.5 -76.5q92 0 143 51.5t68 163.5l335 -57q-37 -212 -179.5 -328t-366.5 -116q-270 0 -428 156.5t-158 426.5t158 427t428 157q229 0 367.5 -110t178.5 -322z" />
    <glyph glyph-name="d" unicode="d" horiz-adv-x="1406" 
d="M578 -20q-224 0 -360 159.5t-136 423.5t136 424t360 160q99 0 183.5 -46t145.5 -130v565h357v-1536h-312l-26 184q-61 -96 -151.5 -150t-196.5 -54zM676 272q109 0 170 77t61 214t-61 214t-170 77q-107 0 -168.5 -77.5t-61.5 -213.5t61.5 -213.5t168.5 -77.5z" />
    <glyph glyph-name="e" unicode="e" horiz-adv-x="1316" 
d="M676 -20q-269 0 -431.5 158t-162.5 425q0 170 71 302t206.5 207t316.5 75q252 0 410.5 -143.5t158.5 -389.5q0 -75 -14 -135h-799q17 -109 80.5 -166t167.5 -57q183 0 227 139l326 -57q-92 -358 -557 -358zM680 870q-193 0 -240 -184h475q-17 93 -78.5 138.5t-156.5 45.5
z" />
    <glyph glyph-name="f" unicode="f" horiz-adv-x="839" 
d="M20 1126h175q4 212 117.5 321t328.5 109q90 0 184 -20l-12 -281q-55 15 -113 15q-76 0 -112.5 -33.5t-36.5 -110.5h268v-276h-268v-850h-356v850h-175v276z" />
    <glyph glyph-name="g" unicode="g" horiz-adv-x="1261" 
d="M598 1147q223 0 363 -94q90 144 270 141l-12 -303q-83 16 -138 10q23 -57 23 -119q0 -166 -137.5 -264t-368.5 -98q-63 0 -131 10q-55 -14 -55 -63q0 -67 102 -70l340 -8q186 -4 286.5 -86t100.5 -228q0 -192 -168.5 -298.5t-474.5 -106.5q-287 0 -434.5 72.5
t-147.5 212.5q0 179 238 213q-76 26 -117 82t-41 129q0 151 168 219q-83 46 -127.5 119t-44.5 165q0 166 138 265.5t368 99.5zM754 782q0 65 -42 102.5t-114 37.5t-114 -37.5t-42 -102.5q0 -64 42 -100.5t114 -36.5t114 36.5t42 100.5zM502 0q-135 0 -135 -86
q0 -54 57.5 -78t193.5 -24q139 0 208 32t69 86q0 70 -107 70h-286z" />
    <glyph glyph-name="h" unicode="h" horiz-adv-x="1372" 
d="M143 0v1536h357v-588q131 199 356 199q180 0 281.5 -107.5t101.5 -296.5v-743h-356v662q0 84 -42.5 130t-123.5 46q-101 0 -159 -66.5t-58 -183.5v-588h-357z" />
    <glyph glyph-name="i" unicode="i" horiz-adv-x="643" 
d="M143 1245v311h357v-311h-357zM143 0v1126h357v-1126h-357z" />
    <glyph glyph-name="j" unicode="j" horiz-adv-x="643" 
d="M143 1245v311h357v-311h-357zM143 0v1126h357v-1108q0 -246 -100 -347t-320 -101q-89 0 -172 18l-8 275q47 -8 100 -8q75 0 109 34.5t34 110.5z" />
    <glyph glyph-name="k" unicode="k" horiz-adv-x="1277" 
d="M143 0v1536h353v-799l335 389h410l-446 -489l497 -637h-434l-291 387l-71 -80v-307h-353z" />
    <glyph glyph-name="l" unicode="l" horiz-adv-x="643" 
d="M500 0h-357v1536h357v-1536z" />
    <glyph glyph-name="m" unicode="m" horiz-adv-x="2062" 
d="M143 0v1126h312l28 -206q63 108 156 167.5t205 59.5q127 0 214.5 -57.5t125.5 -165.5q65 106 162 164.5t213 58.5q175 0 272.5 -108.5t97.5 -303.5v-735h-356v668q0 83 -38.5 126.5t-111.5 43.5q-97 0 -153 -67t-56 -183v-588h-356v668q0 170 -149 170q-97 0 -153 -67
t-56 -183v-588h-357z" />
    <glyph glyph-name="n" unicode="n" horiz-adv-x="1372" 
d="M143 0v1126h312l28 -204q61 107 157 166t216 59q180 0 281.5 -107.5t101.5 -296.5v-743h-356v662q0 84 -42.5 130t-123.5 46q-101 0 -159 -66.5t-58 -183.5v-588h-357z" />
    <glyph glyph-name="o" unicode="o" horiz-adv-x="1335" 
d="M668 -20q-270 0 -428 156.5t-158 426.5t158 427t428 157q271 0 428 -157t157 -427t-157 -426.5t-428 -156.5zM668 266q112 0 166.5 73t54.5 224t-54.5 224t-166.5 73q-113 0 -167.5 -73t-54.5 -224t54.5 -224t167.5 -73z" />
    <glyph glyph-name="p" unicode="p" horiz-adv-x="1406" 
d="M829 -20q-99 0 -183.5 46t-145.5 130v-566h-357v1536h312l26 -184q61 97 151.5 151t196.5 54q224 0 360 -160t136 -424t-136 -423.5t-360 -159.5zM731 272q107 0 168.5 77.5t61.5 213.5t-61.5 213.5t-168.5 77.5q-109 0 -170 -77t-61 -214t61 -214t170 -77z" />
    <glyph glyph-name="q" unicode="q" horiz-adv-x="1406" 
d="M578 -20q-224 0 -360 159.5t-136 423.5t136 424t360 160q106 0 196.5 -54t151.5 -151l26 184h312v-1536h-357v566q-61 -84 -145.5 -130t-183.5 -46zM676 272q109 0 170 77t61 214t-61 214t-170 77q-107 0 -168.5 -77.5t-61.5 -213.5t61.5 -213.5t168.5 -77.5z" />
    <glyph glyph-name="r" unicode="r" horiz-adv-x="917" 
d="M143 0v1126h312l34 -239q64 118 160.5 189t198.5 71q25 0 37 -4l-8 -393q-41 12 -105 12q-272 0 -272 -285v-477h-357z" />
    <glyph glyph-name="s" unicode="s" horiz-adv-x="1167" 
d="M571 897q-75 0 -117 -23.5t-42 -64.5q0 -39 28 -59t95 -27l163 -21q205 -25 306.5 -107t101.5 -233q0 -175 -135 -278.5t-377 -103.5q-256 0 -380.5 86t-160.5 278l322 41q27 -156 209 -156q89 0 132.5 25.5t43.5 67.5q0 44 -30.5 64.5t-104.5 29.5l-170 20
q-184 22 -280.5 108t-96.5 230q0 167 132.5 270t356.5 103q453 0 512 -344l-321 -41q-24 135 -187 135z" />
    <glyph glyph-name="t" unicode="t" horiz-adv-x="903" 
d="M193 379v471h-173v276h68q44 0 68.5 2t46.5 13.5t32 26.5t18.5 50t12 74.5t6.5 110.5h279v-277h283v-276h-283v-404q0 -107 36 -143.5t126 -36.5q62 0 139 15l-8 -277q-111 -24 -238 -24q-208 0 -310.5 97t-102.5 302z" />
    <glyph glyph-name="u" unicode="u" horiz-adv-x="1349" 
d="M850 539v587h356v-1126h-311l-29 199q-58 -104 -147.5 -161.5t-200.5 -57.5q-182 0 -283.5 107.5t-101.5 299.5v739h356v-684q0 -75 37.5 -114t106.5 -39q102 0 159.5 66t57.5 184z" />
    <glyph glyph-name="v" unicode="v" horiz-adv-x="1167" 
d="M455 0l-445 1126h373l219 -637l215 637h340l-428 -1126h-274z" />
    <glyph glyph-name="w" unicode="w" horiz-adv-x="1742" 
d="M373 0l-363 1126h348l181 -661l200 661h260l226 -659l178 659h330l-361 -1126h-266l-238 680l-227 -680h-268z" />
    <glyph glyph-name="x" unicode="x" horiz-adv-x="1200" 
d="M383 0h-373l383 594l-368 532h391l202 -311l193 311h367l-379 -557l391 -569h-383l-217 342z" />
    <glyph glyph-name="y" unicode="y" horiz-adv-x="1175" 
d="M815 1126h350l-409 -1110q-89 -244 -198.5 -345t-281.5 -101q-100 0 -165 24l-13 271q39 -8 88 -8q101 0 152 42.5t100 174.5l-428 1052h371l229 -655z" />
    <glyph glyph-name="z" unicode="z" horiz-adv-x="1083" 
d="M78 0v276l534 574h-534v276h932v-276l-535 -574h535v-276h-932z" />
    <glyph glyph-name="braceleft" unicode="{" horiz-adv-x="880" 
d="M367 563q141 -34 203.5 -119.5t62.5 -246.5v-68q0 -84 25 -116.5t90 -32.5q74 0 112 10l12 -281q-115 -16 -186 -16q-410 0 -410 358v207q0 63 -17 95t-66.5 50.5t-151.5 28.5v262q102 10 151.5 28.5t66.5 50.5t17 95v207q0 359 410 359q64 0 186 -17l-12 -280
q-38 10 -112 10q-63 0 -89 -34t-26 -116v-88q0 -150 -62.5 -231t-203.5 -115z" />
    <glyph glyph-name="bar" unicode="|" horiz-adv-x="684" 
d="M520 -348h-356v1904h356v-1904z" />
    <glyph glyph-name="braceright" unicode="}" horiz-adv-x="880" 
d="M840 694v-262q-102 -10 -151.5 -28.5t-67 -50.5t-17.5 -95v-207q0 -358 -409 -358q-72 0 -187 16l12 281q38 -10 113 -10q65 0 90 32.5t25 116.5v68q0 161 62.5 246.5t203.5 119.5q-141 34 -203.5 115t-62.5 231v88q0 82 -26 116t-89 34q-75 0 -113 -10l-12 280
q122 17 187 17q409 0 409 -359v-207q0 -63 17.5 -95t67 -50.5t151.5 -28.5z" />
    <glyph glyph-name="asciitilde" unicode="~" 
d="M309 680q-92 0 -217 -80v272q135 78 238 78q60 0 118 -20.5t96 -45t84.5 -45t86.5 -20.5q92 0 217 80v-272q-137 -78 -238 -78q-58 0 -115 20.5t-94.5 45t-85 45t-90.5 20.5z" />
    <glyph glyph-name="uni00A0" unicode="&#xa0;" horiz-adv-x="440" 
 />
    <glyph glyph-name="exclamdown" unicode="&#xa1;" horiz-adv-x="684" 
d="M520 1126v-335h-356v335h356zM184 676h316l24 -983h-364z" />
    <glyph glyph-name="cent" unicode="&#xa2;" horiz-adv-x="1253" 
d="M430 -164l33 170q-180 55 -280.5 199.5t-100.5 357.5q0 270 158 427t428 157h20l25 123h153l-28 -142q311 -71 376 -413l-340 -60q-21 125 -94 174l-112 -563q92 0 143 51.5t68 163.5l335 -57q-37 -212 -179.5 -328t-366.5 -116q-38 0 -56 2l-28 -146h-154zM446 563
q0 -171 78 -246l107 541q-90 -12 -137.5 -87.5t-47.5 -207.5z" />
    <glyph glyph-name="sterling" unicode="&#xa3;" horiz-adv-x="1353" 
d="M92 573v185h197q-3 7 -18 36.5t-19.5 40t-16 36.5t-16 41t-11 38.5t-9 45t-2.5 44.5q0 181 145 297.5t371 116.5q473 0 567 -410l-383 -73q-10 86 -56.5 131t-121.5 45q-71 0 -108.5 -35t-37.5 -98q0 -39 15.5 -77.5t50.5 -97t47 -81.5h393v-185h-350
q-4 -86 -52.5 -155.5t-131.5 -110.5h715v-307h-1168v307h37q104 0 166.5 54t62.5 151q0 21 -4 61h-262z" />
    <glyph glyph-name="currency" unicode="&#xa4;" 
d="M512 338q-94 0 -172 35l-166 -168l-174 174l166 164q-37 75 -37 174t37 174l-166 164l174 174l168 -170q70 33 170 33t170 -33l168 170l174 -174l-166 -164q37 -75 37 -174t-37 -174l166 -164l-174 -174l-166 168q-78 -35 -172 -35zM512 563q74 0 116 41.5t42 112.5
t-42.5 110t-115.5 39t-115.5 -39t-42.5 -110t42.5 -112.5t115.5 -41.5z" />
    <glyph glyph-name="yen" unicode="&#xa5;" horiz-adv-x="1409" 
d="M92 393v164h414v10l-86 150h-328v164h234l-316 553h428l273 -551l272 551h416l-324 -553h209v-164h-305l-94 -160h399v-164h-399v-393h-379v393h-414z" />
    <glyph glyph-name="brokenbar" unicode="&#xa6;" horiz-adv-x="684" 
d="M520 727h-356v829h356v-829zM520 -348h-356v870h356v-870z" />
    <glyph glyph-name="section" unicode="&#xa7;" horiz-adv-x="1390" 
d="M690 -430q-295 0 -446.5 102t-182.5 322l369 47q30 -184 270 -184q215 0 215 110q0 62 -44 91t-189 59l-158 33q-210 43 -305.5 129t-95.5 233q0 84 54 159t151 126q-118 51 -172 128.5t-54 190.5q0 199 165.5 319.5t439.5 120.5q273 0 418 -99.5t173 -303.5l-368 -47
q-17 88 -71 126t-163 38q-211 0 -211 -111q0 -47 45.5 -74t171.5 -55l150 -33q233 -51 329.5 -135t96.5 -237q0 -93 -47.5 -170t-132.5 -125q106 -53 153 -130t47 -192q0 -207 -160.5 -322.5t-447.5 -115.5zM831 416q9 -2 28 -6.5t28 -6.5q49 52 49 121q0 72 -49.5 109
t-184.5 65l-157 33q-3 1 -9.5 2t-9.5 2q-61 -52 -61 -123q0 -66 46.5 -100.5t170.5 -62.5z" />
    <glyph glyph-name="dieresis" unicode="&#xa8;" 
d="M571 1245v332h336v-332h-336zM117 1245v332h336v-332h-336z" />
    <glyph glyph-name="copyright" unicode="&#xa9;" horiz-adv-x="1789" 
d="M895 -102q-232 0 -417 102t-290.5 289.5t-105.5 427.5q0 181 61.5 335t169.5 259.5t258 165t324 59.5t324 -59.5t258 -165t169.5 -259.5t61.5 -335q0 -240 -105.5 -427.5t-290.5 -289.5t-417 -102zM895 37q301 0 481 184.5t180 495.5t-180 495.5t-481 184.5t-481.5 -185
t-180.5 -495t180.5 -495t481.5 -185zM1237 813l-201 -35q-22 123 -127 123q-66 0 -101.5 -46.5t-35.5 -133.5t35.5 -133.5t101.5 -46.5q57 0 88.5 31.5t40.5 97.5l199 -33q-22 -129 -108 -199.5t-220 -70.5q-162 0 -256 95t-94 259t94 259t256 95q137 0 220 -66.5
t108 -195.5z" />
    <glyph glyph-name="ordfeminine" unicode="&#xaa;" horiz-adv-x="876" 
d="M104 1227q46 227 336 227q314 0 314 -268v-219q0 -35 37 -35q12 0 24 4l-4 -166q-40 -16 -98 -16q-140 0 -166 100q-76 -100 -230 -100q-109 0 -172 54t-63 144q0 91 65 144.5t211 68.5l177 19v2q0 92 -103 92q-98 0 -110 -80zM303 975q0 -49 68 -49q65 0 113.5 35
t54.5 88l-183 -25q-53 -8 -53 -49z" />
    <glyph glyph-name="guillemotleft" unicode="&#xab;" horiz-adv-x="1492" 
d="M670 430v-369l-598 306v393l598 305v-358l-346 -138zM1391 430v-369l-598 306v393l598 305v-358l-347 -138z" />
    <glyph glyph-name="logicalnot" unicode="&#xac;" 
d="M92 860h840v-551h-266v287h-574v264z" />
    <glyph glyph-name="uni00AD" unicode="&#xad;" horiz-adv-x="0" 
 />
    <glyph glyph-name="registered" unicode="&#xae;" horiz-adv-x="1667" 
d="M834 -20q-160 0 -299.5 56t-239 153.5t-156.5 234.5t-57 293q0 209 97.5 378t269.5 264t385 95q160 0 299.5 -56t238.5 -153t156 -234t57 -294q0 -156 -57 -293t-156 -234.5t-238.5 -153.5t-299.5 -56zM834 119q274 0 437 162t163 436t-163 436t-437 162t-437.5 -162.5
t-163.5 -435.5t163.5 -435.5t437.5 -162.5zM561 377v688h336q117 0 185.5 -59t68.5 -160q0 -74 -39.5 -127t-110.5 -76l185 -266h-221l-156 233h-57v-233h-191zM874 913h-122v-151h122q43 0 66 19.5t23 56.5q0 75 -89 75z" />
    <glyph glyph-name="macron" unicode="&#xaf;" 
d="M184 1245v248h656v-248h-656z" />
    <glyph glyph-name="degree" unicode="&#xb0;" 
d="M512 1454q171 0 279 -104t108 -269q0 -166 -107.5 -269t-279.5 -103t-280.5 103.5t-108.5 268.5q0 164 108.5 268.5t280.5 104.5zM512 950q60 0 94.5 35.5t34.5 95.5q0 61 -34.5 96t-94.5 35t-94.5 -35t-34.5 -96q0 -60 34.5 -95.5t94.5 -35.5z" />
    <glyph glyph-name="plusminus" unicode="&#xb1;" 
d="M932 657h-287v-286h-266v286h-287v265h287v286h266v-286h287v-265zM932 0h-840v264h840v-264z" />
    <glyph glyph-name="twosuperior" unicode="&#xb2;" horiz-adv-x="823" 
d="M76 1124l317 172q65 35 86 58.5t21 52.5q0 32 -23.5 51t-64.5 19q-51 0 -78 -25.5t-33 -79.5l-242 31q11 120 103 189t244 69q163 0 253.5 -68t90.5 -178q0 -83 -55 -144.5t-203 -129.5l-23 -11h279v-194h-672v188z" />
    <glyph glyph-name="threesuperior" unicode="&#xb3;" horiz-adv-x="811" 
d="M745 1147q0 -98 -91.5 -158.5t-260.5 -60.5q-155 0 -246.5 57t-95.5 168l232 27q3 -38 29 -55t79 -17q107 0 107 57q0 43 -74 43h-102v178h106q66 0 66 44q0 51 -97 51q-108 0 -114 -70l-228 27q8 102 99 162.5t245 60.5q158 0 247 -54t89 -147q0 -108 -114 -155
q124 -41 124 -158z" />
    <glyph glyph-name="acute" unicode="&#xb4;" 
d="M383 1245l123 332h440l-297 -332h-266z" />
    <glyph glyph-name="paragraph" unicode="&#xb6;" horiz-adv-x="1531" 
d="M848 -307h-356v934h-25q-188 0 -302 108.5t-114 288.5q0 186 114 298t302 112h381v-1741zM1368 -307h-356v1741h356v-1741z" />
    <glyph glyph-name="periodcentered" unicode="&#xb7;" 
d="M324 553v356h376v-356h-376z" />
    <glyph glyph-name="cedilla" unicode="&#xb8;" 
d="M868 -236q0 -100 -74 -147t-233 -47q-111 0 -252 22l8 154q129 -22 199 -22q66 0 91.5 10t25.5 35q0 36 -51 36q-26 0 -54 -14l-137 14l23 215h182l-12 -94q50 13 88 13q95 0 145.5 -45t50.5 -130z" />
    <glyph glyph-name="onesuperior" unicode="&#xb9;" horiz-adv-x="698" 
d="M70 936v194h176v324l-160 -33v193l184 39h219v-523h158v-194h-577z" />
    <glyph glyph-name="ordmasculine" unicode="&#xba;" horiz-adv-x="950" 
d="M475 754q-165 0 -262.5 95t-97.5 255t97.5 255t262.5 95q166 0 263.5 -95t97.5 -255t-97.5 -255t-263.5 -95zM475 942q127 0 127 162t-127 162t-127 -162t127 -162z" />
    <glyph glyph-name="guillemotright" unicode="&#xbb;" horiz-adv-x="1492" 
d="M700 367l-598 -306v359l347 139l-347 137v369l598 -305v-393zM1421 367l-598 -306v359l346 139l-346 137v369l598 -305v-393z" />
    <glyph glyph-name="onequarter" unicode="&#xbc;" horiz-adv-x="1978" 
d="M70 717v194h176v324l-160 -33v193l184 39h219v-523h158v-194h-577zM586 0h-307l1237 1434h307zM1837 0h-231v109h-398v155l402 453h227v-428h90v-180h-90v-109zM1446 289h160v186z" />
    <glyph glyph-name="onehalf" unicode="&#xbd;" horiz-adv-x="2082" 
d="M70 717v194h176v324l-160 -33v193l184 39h219v-523h158v-194h-577zM586 0h-307l1237 1434h307zM1335 188l318 172q64 35 85 58t21 53q0 32 -23.5 51t-64.5 19q-51 0 -77.5 -25.5t-32.5 -79.5l-242 31q11 120 102.5 189t243.5 69q163 0 253.5 -68t90.5 -178
q0 -83 -55 -144.5t-203 -129.5l-22 -10h278v-195h-672v188z" />
    <glyph glyph-name="threequarters" unicode="&#xbe;" horiz-adv-x="1968" 
d="M745 928q0 -98 -91.5 -158.5t-260.5 -60.5q-155 0 -246.5 57t-95.5 168l232 27q3 -38 29 -55t79 -17q107 0 107 57q0 43 -74 43h-102v178h106q66 0 66 43q0 52 -97 52q-108 0 -114 -70l-228 27q8 102 99 162.5t245 60.5q158 0 247 -54t89 -147q0 -109 -114 -156
q124 -41 124 -157zM575 0h-307l1237 1434h307zM1827 0h-232v109h-397v155l401 453h228v-428h90v-180h-90v-109zM1436 289h159v186z" />
    <glyph glyph-name="questiondown" unicode="&#xbf;" horiz-adv-x="1228" 
d="M813 1126v-335h-356v335h356zM602 -20q93 0 143 58t60 179l362 -74q-29 -221 -179 -346t-386 -125q-233 0 -376.5 113.5t-143.5 298.5q0 74 20.5 133.5t53.5 98.5t72.5 72t79.5 61.5t73 58.5t54 73t22 95h356q-2 -82 -23.5 -148t-53.5 -108t-70.5 -75.5t-76 -59
t-68.5 -49.5t-50.5 -55.5t-19.5 -69.5q0 -62 38 -96.5t113 -34.5z" />
    <glyph glyph-name="Agrave" unicode="&#xc0;" horiz-adv-x="1519" 
d="M889 1552h-266l-297 332h440zM1130 0l-100 274h-557l-100 -274h-373l567 1434h385l568 -1434h-390zM582 569h342l-172 465z" />
    <glyph glyph-name="Aacute" unicode="&#xc1;" horiz-adv-x="1519" 
d="M631 1552l123 332h440l-297 -332h-266zM1130 0l-100 274h-557l-100 -274h-373l567 1434h385l568 -1434h-390zM582 569h342l-172 465z" />
    <glyph glyph-name="Acircumflex" unicode="&#xc2;" horiz-adv-x="1519" 
d="M918 1552l-162 162l-164 -162h-256l225 332h397l226 -332h-266zM1130 0l-100 274h-557l-100 -274h-373l567 1434h385l568 -1434h-390zM582 569h342l-172 465z" />
    <glyph glyph-name="Atilde" unicode="&#xc3;" horiz-adv-x="1519" 
d="M1124 1884q28 -344 -206 -344q-48 0 -88 18t-62 39.5t-49.5 39.5t-54.5 18q-70 0 -60 -103h-225q-26 357 219 357q47 0 87 -20t62 -43.5t48 -43.5t49 -20q37 0 48.5 24.5t6.5 77.5h225zM1130 0l-100 274h-557l-100 -274h-373l567 1434h385l568 -1434h-390zM582 569h342
l-172 465z" />
    <glyph glyph-name="Adieresis" unicode="&#xc4;" horiz-adv-x="1519" 
d="M819 1552v332h336v-332h-336zM365 1552v332h335v-332h-335zM1130 0l-100 274h-557l-100 -274h-373l567 1434h385l568 -1434h-390zM582 569h342l-172 465z" />
    <glyph glyph-name="Aring" unicode="&#xc5;" horiz-adv-x="1519" 
d="M762 1524q-131 0 -210 69.5t-79 184.5q0 114 79 182t210 68q129 0 207 -68t78 -182q0 -115 -78 -184.5t-207 -69.5zM762 1688q42 0 66 24t24 66q0 40 -24 63t-66 23q-44 0 -69 -23t-25 -63q0 -42 25 -66t69 -24zM1130 0l-100 274h-557l-100 -274h-373l567 1434h385
l568 -1434h-390zM582 569h342l-172 465z" />
    <glyph glyph-name="AE" unicode="&#xc6;" horiz-adv-x="2134" 
d="M1004 0v274h-482l-131 -274h-391l696 1434h1323v-308h-637v-249h533v-299h-533v-271h660v-307h-1038zM662 569h342v557h-76z" />
    <glyph glyph-name="Ccedilla" unicode="&#xc7;" horiz-adv-x="1540" 
d="M82 717q0 217 90 384.5t253 260t374 92.5q270 0 447 -131t233 -381l-383 -74q-26 136 -102 207.5t-195 71.5q-159 0 -243.5 -110.5t-84.5 -319.5t84.5 -319.5t243.5 -110.5q125 0 201 72.5t98 213.5l379 -71q-45 -243 -209 -376t-418 -144l-8 -56q50 13 88 13
q95 0 145.5 -45t50.5 -130q0 -100 -74 -147t-233 -47q-111 0 -252 22l8 154q129 -22 199 -22q66 0 91.5 10t25.5 35q0 36 -51 36q-26 0 -54 -14l-137 14l19 183q-279 39 -432.5 234t-153.5 495z" />
    <glyph glyph-name="Egrave" unicode="&#xc8;" horiz-adv-x="1314" 
d="M807 1552h-266l-297 332h440zM164 0v1434h1036v-308h-657v-249h553v-299h-553v-271h680v-307h-1059z" />
    <glyph glyph-name="Eacute" unicode="&#xc9;" horiz-adv-x="1314" 
d="M549 1552l123 332h440l-297 -332h-266zM164 0v1434h1036v-308h-657v-249h553v-299h-553v-271h680v-307h-1059z" />
    <glyph glyph-name="Ecircumflex" unicode="&#xca;" horiz-adv-x="1314" 
d="M836 1552l-162 162l-164 -162h-256l225 332h398l225 -332h-266zM164 0v1434h1036v-308h-657v-249h553v-299h-553v-271h680v-307h-1059z" />
    <glyph glyph-name="Edieresis" unicode="&#xcb;" horiz-adv-x="1314" 
d="M737 1552v332h336v-332h-336zM283 1552v332h335v-332h-335zM164 0v1434h1036v-308h-657v-249h553v-299h-553v-271h680v-307h-1059z" />
    <glyph glyph-name="Igrave" unicode="&#xcc;" horiz-adv-x="706" 
d="M483 1552h-266l-297 332h440zM164 0v1434h379v-1434h-379z" />
    <glyph glyph-name="Iacute" unicode="&#xcd;" horiz-adv-x="706" 
d="M223 1552l123 332h440l-297 -332h-266zM164 0v1434h379v-1434h-379z" />
    <glyph glyph-name="Icircumflex" unicode="&#xce;" horiz-adv-x="706" 
d="M512 1552l-164 162l-162 -162h-256l226 332h397l225 -332h-266zM164 0v1434h379v-1434h-379z" />
    <glyph glyph-name="Idieresis" unicode="&#xcf;" horiz-adv-x="706" 
d="M414 1552v332h336v-332h-336zM-41 1552v332h336v-332h-336zM164 0v1434h379v-1434h-379z" />
    <glyph glyph-name="Eth" unicode="&#xd0;" horiz-adv-x="1624" 
d="M184 0v639h-164v164h164v631h611q352 0 549.5 -191.5t197.5 -531.5q0 -335 -197.5 -523t-549.5 -188h-611zM795 307q173 0 265.5 104.5t92.5 299.5q0 201 -92.5 308t-265.5 107h-232v-323h264v-164h-264v-332h232z" />
    <glyph glyph-name="Ntilde" unicode="&#xd1;" horiz-adv-x="1634" 
d="M1202 1884q28 -344 -207 -344q-48 0 -88 18t-62 39.5t-49.5 39.5t-54.5 18q-69 0 -59 -103h-225q-26 357 219 357q47 0 87 -20t62 -43.5t48 -43.5t49 -20q37 0 48.5 24.5t6.5 77.5h225zM164 0v1434h375l594 -926v926h337v-1434h-374l-594 926v-926h-338z" />
    <glyph glyph-name="Ograve" unicode="&#xd2;" horiz-adv-x="1626" 
d="M942 1552h-266l-297 332h440zM813 -20q-218 0 -384 91.5t-256.5 259t-90.5 386.5q0 333 200.5 535t530.5 202t530.5 -202t200.5 -535q0 -219 -90.5 -386.5t-256.5 -259t-384 -91.5zM813 287q166 0 254 110.5t88 319.5t-88 319.5t-254 110.5t-254 -110.5t-88 -319.5
t88 -319.5t254 -110.5z" />
    <glyph glyph-name="Oacute" unicode="&#xd3;" horiz-adv-x="1626" 
d="M684 1552l123 332h440l-297 -332h-266zM813 -20q-218 0 -384 91.5t-256.5 259t-90.5 386.5q0 333 200.5 535t530.5 202t530.5 -202t200.5 -535q0 -219 -90.5 -386.5t-256.5 -259t-384 -91.5zM813 287q166 0 254 110.5t88 319.5t-88 319.5t-254 110.5t-254 -110.5
t-88 -319.5t88 -319.5t254 -110.5z" />
    <glyph glyph-name="Ocircumflex" unicode="&#xd4;" horiz-adv-x="1626" 
d="M971 1552l-162 162l-164 -162h-256l225 332h398l225 -332h-266zM813 -20q-218 0 -384 91.5t-256.5 259t-90.5 386.5q0 333 200.5 535t530.5 202t530.5 -202t200.5 -535q0 -219 -90.5 -386.5t-256.5 -259t-384 -91.5zM813 287q166 0 254 110.5t88 319.5t-88 319.5
t-254 110.5t-254 -110.5t-88 -319.5t88 -319.5t254 -110.5z" />
    <glyph glyph-name="Otilde" unicode="&#xd5;" horiz-adv-x="1626" 
d="M1178 1884q28 -344 -207 -344q-48 0 -88 18t-62 39.5t-49.5 39.5t-54.5 18q-70 0 -60 -103h-225q-26 357 219 357q47 0 87 -20t62 -43.5t48 -43.5t49 -20q37 0 48.5 24.5t6.5 77.5h226zM813 -20q-218 0 -384 91.5t-256.5 259t-90.5 386.5q0 333 200.5 535t530.5 202
t530.5 -202t200.5 -535q0 -219 -90.5 -386.5t-256.5 -259t-384 -91.5zM813 287q166 0 254 110.5t88 319.5t-88 319.5t-254 110.5t-254 -110.5t-88 -319.5t88 -319.5t254 -110.5z" />
    <glyph glyph-name="Odieresis" unicode="&#xd6;" horiz-adv-x="1626" 
d="M872 1552v332h336v-332h-336zM418 1552v332h336v-332h-336zM813 -20q-218 0 -384 91.5t-256.5 259t-90.5 386.5q0 333 200.5 535t530.5 202t530.5 -202t200.5 -535q0 -219 -90.5 -386.5t-256.5 -259t-384 -91.5zM813 287q166 0 254 110.5t88 319.5t-88 319.5t-254 110.5
t-254 -110.5t-88 -319.5t88 -319.5t254 -110.5z" />
    <glyph glyph-name="multiply" unicode="&#xd7;" 
d="M745 309l-231 232l-231 -232l-189 189l232 231l-232 232l187 186l231 -232l231 232l189 -189l-232 -231l232 -231z" />
    <glyph glyph-name="Oslash" unicode="&#xd8;" horiz-adv-x="1626" 
d="M182 0l121 164q-107 98 -164 239t-57 314q0 333 200.5 535t530.5 202q211 0 379 -88l49 68h203l-121 -162q107 -98 164 -240t57 -315q0 -219 -90.5 -386.5t-256.5 -259t-384 -91.5q-213 0 -377 88l-51 -68h-203zM471 717q0 -157 49 -258l475 641q-74 47 -182 47
q-166 0 -254 -110.5t-88 -319.5zM813 287q166 0 254 110.5t88 319.5q0 157 -49 258l-475 -641q74 -47 182 -47z" />
    <glyph glyph-name="Ugrave" unicode="&#xd9;" horiz-adv-x="1572" 
d="M915 1552h-266l-297 332h441zM1425 567q0 -277 -169 -432t-470 -155t-470 155t-169 432v867h379v-879q0 -130 67 -199t193 -69t193.5 69t67.5 199v879h378v-867z" />
    <glyph glyph-name="Uacute" unicode="&#xda;" horiz-adv-x="1572" 
d="M657 1552l123 332h441l-297 -332h-267zM1425 567q0 -277 -169 -432t-470 -155t-470 155t-169 432v867h379v-879q0 -130 67 -199t193 -69t193.5 69t67.5 199v879h378v-867z" />
    <glyph glyph-name="Ucircumflex" unicode="&#xdb;" horiz-adv-x="1572" 
d="M944 1552l-162 162l-164 -162h-256l226 332h397l225 -332h-266zM1425 567q0 -277 -169 -432t-470 -155t-470 155t-169 432v867h379v-879q0 -130 67 -199t193 -69t193.5 69t67.5 199v879h378v-867z" />
    <glyph glyph-name="Udieresis" unicode="&#xdc;" horiz-adv-x="1572" 
d="M846 1552v332h336v-332h-336zM391 1552v332h336v-332h-336zM1425 567q0 -277 -169 -432t-470 -155t-470 155t-169 432v867h379v-879q0 -130 67 -199t193 -69t193.5 69t67.5 199v879h378v-867z" />
    <glyph glyph-name="Yacute" unicode="&#xdd;" horiz-adv-x="1388" 
d="M565 1552l123 332h440l-297 -332h-266zM496 0v567l-496 867h428l272 -551l273 551h416l-515 -877v-557h-378z" />
    <glyph glyph-name="Thorn" unicode="&#xde;" horiz-adv-x="1419" 
d="M164 0v1434h379v-205h299q232 0 374 -140.5t142 -371.5q0 -226 -149 -363t-396 -137h-270v-217h-379zM758 930h-215v-414h215q103 0 158 52t55 149q0 103 -55 158t-158 55z" />
    <glyph glyph-name="germandbls" unicode="&#xdf;" horiz-adv-x="1406" 
d="M143 0v997q0 262 151 410.5t435 148.5q231 0 370.5 -111t139.5 -298q0 -108 -46.5 -194t-137.5 -138q134 -42 207 -139t73 -246q0 -209 -142 -329.5t-380 -120.5q-100 0 -207 22l27 293q66 -16 117 -16q108 0 164.5 45.5t56.5 130.5q0 90 -52 136t-151 46h-119v289h72
q81 0 131.5 47.5t50.5 122.5q0 80 -51 127t-137 47q-101 0 -158 -59t-57 -175v-1036h-357z" />
    <glyph glyph-name="agrave" unicode="&#xe0;" horiz-adv-x="1245" 
d="M762 1245h-266l-297 332h440zM88 766q38 189 171 285t355 96q238 0 363 -109.5t125 -318.5v-410q0 -65 63 -65q23 0 39 4l-6 -240q-65 -28 -141 -28q-237 0 -271 190q-124 -190 -358 -190q-172 0 -274.5 91t-102.5 244q0 160 110 247.5t349 115.5l268 31q-6 178 -174 178
q-178 0 -190 -168zM383 346q0 -51 30 -74.5t95 -23.5q116 0 195 69t79 170v7l-274 -37q-61 -7 -93 -36.5t-32 -74.5z" />
    <glyph glyph-name="aacute" unicode="&#xe1;" horiz-adv-x="1245" 
d="M504 1245l123 332h440l-297 -332h-266zM88 766q38 189 171 285t355 96q238 0 363 -109.5t125 -318.5v-410q0 -65 63 -65q23 0 39 4l-6 -240q-65 -28 -141 -28q-237 0 -271 190q-124 -190 -358 -190q-172 0 -274.5 91t-102.5 244q0 160 110 247.5t349 115.5l268 31
q-6 178 -174 178q-178 0 -190 -168zM383 346q0 -51 30 -74.5t95 -23.5q116 0 195 69t79 170v7l-274 -37q-61 -7 -93 -36.5t-32 -74.5z" />
    <glyph glyph-name="acircumflex" unicode="&#xe2;" horiz-adv-x="1245" 
d="M791 1245l-162 162l-164 -162h-256l225 332h397l226 -332h-266zM88 766q38 189 171 285t355 96q238 0 363 -109.5t125 -318.5v-410q0 -65 63 -65q23 0 39 4l-6 -240q-65 -28 -141 -28q-237 0 -271 190q-124 -190 -358 -190q-172 0 -274.5 91t-102.5 244q0 160 110 247.5
t349 115.5l268 31q-6 178 -174 178q-178 0 -190 -168zM383 346q0 -51 30 -74.5t95 -23.5q116 0 195 69t79 170v7l-274 -37q-61 -7 -93 -36.5t-32 -74.5z" />
    <glyph glyph-name="atilde" unicode="&#xe3;" horiz-adv-x="1245" 
d="M997 1577q28 -344 -206 -344q-48 0 -88 18t-62 39.5t-49.5 39.5t-54.5 18q-70 0 -60 -103h-225q-26 357 219 357q47 0 87 -20t62 -43.5t48 -43.5t49 -20q37 0 48.5 24.5t6.5 77.5h225zM88 766q38 189 171 285t355 96q238 0 363 -109.5t125 -318.5v-410q0 -65 63 -65
q23 0 39 4l-6 -240q-65 -28 -141 -28q-237 0 -271 190q-124 -190 -358 -190q-172 0 -274.5 91t-102.5 244q0 160 110 247.5t349 115.5l268 31q-6 178 -174 178q-178 0 -190 -168zM383 346q0 -51 30 -74.5t95 -23.5q116 0 195 69t79 170v7l-274 -37q-61 -7 -93 -36.5
t-32 -74.5z" />
    <glyph glyph-name="adieresis" unicode="&#xe4;" horiz-adv-x="1245" 
d="M692 1245v332h336v-332h-336zM238 1245v332h335v-332h-335zM88 766q38 189 171 285t355 96q238 0 363 -109.5t125 -318.5v-410q0 -65 63 -65q23 0 39 4l-6 -240q-65 -28 -141 -28q-237 0 -271 190q-124 -190 -358 -190q-172 0 -274.5 91t-102.5 244q0 160 110 247.5
t349 115.5l268 31q-6 178 -174 178q-178 0 -190 -168zM383 346q0 -51 30 -74.5t95 -23.5q116 0 195 69t79 170v7l-274 -37q-61 -7 -93 -36.5t-32 -74.5z" />
    <glyph glyph-name="aring" unicode="&#xe5;" horiz-adv-x="1245" 
d="M635 1217q-131 0 -210 69t-79 184q0 114 79 182t210 68q129 0 207 -68t78 -182q0 -115 -78 -184t-207 -69zM635 1380q42 0 66 24t24 66q0 40 -24 63t-66 23q-44 0 -69 -23t-25 -63q0 -42 25 -66t69 -24zM88 766q38 189 171 285t355 96q238 0 363 -109.5t125 -318.5v-410
q0 -65 63 -65q23 0 39 4l-6 -240q-65 -28 -141 -28q-237 0 -271 190q-124 -190 -358 -190q-172 0 -274.5 91t-102.5 244q0 160 110 247.5t349 115.5l268 31q-6 178 -174 178q-178 0 -190 -168zM383 346q0 -51 30 -74.5t95 -23.5q116 0 195 69t79 170v7l-274 -37
q-61 -7 -93 -36.5t-32 -74.5z" />
    <glyph glyph-name="ae" unicode="&#xe6;" horiz-adv-x="1943" 
d="M479 -20q-206 0 -317 92t-111 245q0 161 109.5 247t349.5 114l268 31q-9 178 -174 178q-178 0 -190 -168l-326 47q38 189 171 285t355 96q241 0 363 -125q66 62 161.5 93.5t198.5 31.5q237 0 386 -145t149 -388q0 -75 -14 -135h-750q15 -109 72.5 -166t152.5 -57
q157 0 201 139l326 -57q-44 -170 -178 -264t-349 -94q-128 0 -236 47t-179 137q-156 -184 -439 -184zM1333 870q-175 0 -219 -184h428q-14 96 -71 140t-138 44zM383 346q0 -51 30 -74.5t95 -23.5q116 0 195.5 69t78.5 170v7l-274 -37q-61 -7 -93 -36.5t-32 -74.5z" />
    <glyph glyph-name="ccedilla" unicode="&#xe7;" horiz-adv-x="1265" 
d="M1214 715l-340 -60q-35 205 -206 205q-107 0 -164.5 -76.5t-57.5 -220.5t57.5 -220.5t164.5 -76.5q92 0 143 51.5t68 163.5l335 -57q-35 -201 -165.5 -316.5t-335.5 -125.5l-8 -56q50 13 88 13q95 0 145.5 -45t50.5 -130q0 -100 -74 -147t-233 -47q-111 0 -252 22l8 154
q129 -22 199 -22q66 0 91.5 10t25.5 35q0 36 -52 36q-25 0 -53 -14l-137 14l18 187q-210 37 -329 187t-119 384q0 270 158 427t428 157q229 0 367.5 -110t178.5 -322z" />
    <glyph glyph-name="egrave" unicode="&#xe8;" horiz-adv-x="1316" 
d="M788 1245h-266l-297 332h441zM676 -20q-269 0 -431.5 158t-162.5 425q0 170 71 302t206.5 207t316.5 75q252 0 410.5 -143.5t158.5 -389.5q0 -75 -14 -135h-799q17 -109 80.5 -166t167.5 -57q183 0 227 139l326 -57q-92 -358 -557 -358zM680 870q-193 0 -240 -184h475
q-17 93 -78.5 138.5t-156.5 45.5z" />
    <glyph glyph-name="eacute" unicode="&#xe9;" horiz-adv-x="1316" 
d="M530 1245l123 332h441l-297 -332h-267zM676 -20q-269 0 -431.5 158t-162.5 425q0 170 71 302t206.5 207t316.5 75q252 0 410.5 -143.5t158.5 -389.5q0 -75 -14 -135h-799q17 -109 80.5 -166t167.5 -57q183 0 227 139l326 -57q-92 -358 -557 -358zM680 870
q-193 0 -240 -184h475q-17 93 -78.5 138.5t-156.5 45.5z" />
    <glyph glyph-name="ecircumflex" unicode="&#xea;" horiz-adv-x="1316" 
d="M817 1245l-164 162l-161 -162h-256l225 332h397l225 -332h-266zM676 -20q-269 0 -431.5 158t-162.5 425q0 170 71 302t206.5 207t316.5 75q252 0 410.5 -143.5t158.5 -389.5q0 -75 -14 -135h-799q17 -109 80.5 -166t167.5 -57q183 0 227 139l326 -57q-92 -358 -557 -358z
M680 870q-193 0 -240 -184h475q-17 93 -78.5 138.5t-156.5 45.5z" />
    <glyph glyph-name="edieresis" unicode="&#xeb;" horiz-adv-x="1316" 
d="M719 1245v332h336v-332h-336zM264 1245v332h336v-332h-336zM676 -20q-269 0 -431.5 158t-162.5 425q0 170 71 302t206.5 207t316.5 75q252 0 410.5 -143.5t158.5 -389.5q0 -75 -14 -135h-799q17 -109 80.5 -166t167.5 -57q183 0 227 139l326 -57q-92 -358 -557 -358z
M680 870q-193 0 -240 -184h475q-17 93 -78.5 138.5t-156.5 45.5z" />
    <glyph glyph-name="igrave" unicode="&#xec;" horiz-adv-x="643" 
d="M451 1245h-267l-297 332h441zM143 0v1126h357v-1126h-357z" />
    <glyph glyph-name="iacute" unicode="&#xed;" horiz-adv-x="643" 
d="M193 1245l122 332h441l-297 -332h-266zM143 0v1126h357v-1126h-357z" />
    <glyph glyph-name="icircumflex" unicode="&#xee;" horiz-adv-x="643" 
d="M479 1245l-162 162l-163 -162h-256l225 332h397l225 -332h-266zM143 0v1126h357v-1126h-357z" />
    <glyph glyph-name="idieresis" unicode="&#xef;" horiz-adv-x="643" 
d="M381 1245v332h336v-332h-336zM-74 1245v332h336v-332h-336zM143 0v1126h357v-1126h-357z" />
    <glyph glyph-name="eth" unicode="&#xf0;" horiz-adv-x="1337" 
d="M633 -20q-244 0 -392.5 142.5t-148.5 373.5q0 219 134 355t352 136q194 0 290 -125q-28 154 -143 320l-266 -92v174l157 55q-86 97 -165 176l376 61q67 -74 109 -126l221 75v-174l-121 -41q199 -312 199 -655q0 -313 -153 -484t-449 -171zM653 266q93 0 144 57t51 166
q0 112 -50.5 168t-144.5 56q-97 0 -148.5 -56t-51.5 -168q0 -109 52 -166t148 -57z" />
    <glyph glyph-name="ntilde" unicode="&#xf1;" horiz-adv-x="1372" 
d="M1051 1577q28 -344 -207 -344q-48 0 -88 18t-62 39.5t-49.5 39.5t-54.5 18q-70 0 -60 -103h-225q-26 357 219 357q47 0 87 -20t62 -43.5t48 -43.5t49 -20q37 0 48.5 24.5t6.5 77.5h226zM143 0v1126h312l28 -204q61 107 157 166t216 59q180 0 281.5 -107.5t101.5 -296.5
v-743h-356v662q0 84 -42.5 130t-123.5 46q-101 0 -159 -66.5t-58 -183.5v-588h-357z" />
    <glyph glyph-name="ograve" unicode="&#xf2;" horiz-adv-x="1335" 
d="M797 1245h-267l-297 332h441zM668 -20q-270 0 -428 156.5t-158 426.5t158 427t428 157q271 0 428 -157t157 -427t-157 -426.5t-428 -156.5zM668 266q112 0 166.5 73t54.5 224t-54.5 224t-166.5 73q-113 0 -167.5 -73t-54.5 -224t54.5 -224t167.5 -73z" />
    <glyph glyph-name="oacute" unicode="&#xf3;" horiz-adv-x="1335" 
d="M539 1245l123 332h440l-297 -332h-266zM668 -20q-270 0 -428 156.5t-158 426.5t158 427t428 157q271 0 428 -157t157 -427t-157 -426.5t-428 -156.5zM668 266q112 0 166.5 73t54.5 224t-54.5 224t-166.5 73q-113 0 -167.5 -73t-54.5 -224t54.5 -224t167.5 -73z" />
    <glyph glyph-name="ocircumflex" unicode="&#xf4;" horiz-adv-x="1335" 
d="M825 1245l-161 162l-164 -162h-256l225 332h397l226 -332h-267zM668 -20q-270 0 -428 156.5t-158 426.5t158 427t428 157q271 0 428 -157t157 -427t-157 -426.5t-428 -156.5zM668 266q112 0 166.5 73t54.5 224t-54.5 224t-166.5 73q-113 0 -167.5 -73t-54.5 -224
t54.5 -224t167.5 -73z" />
    <glyph glyph-name="otilde" unicode="&#xf5;" horiz-adv-x="1335" 
d="M1032 1577q28 -344 -207 -344q-48 0 -88 18t-62 39.5t-49.5 39.5t-54.5 18q-69 0 -59 -103h-225q-26 357 219 357q47 0 87 -20t62 -43.5t48 -43.5t49 -20q37 0 48.5 24.5t6.5 77.5h225zM668 -20q-270 0 -428 156.5t-158 426.5t158 427t428 157q271 0 428 -157t157 -427
t-157 -426.5t-428 -156.5zM668 266q112 0 166.5 73t54.5 224t-54.5 224t-166.5 73q-113 0 -167.5 -73t-54.5 -224t54.5 -224t167.5 -73z" />
    <glyph glyph-name="odieresis" unicode="&#xf6;" horiz-adv-x="1335" 
d="M727 1245v332h336v-332h-336zM272 1245v332h336v-332h-336zM668 -20q-270 0 -428 156.5t-158 426.5t158 427t428 157q271 0 428 -157t157 -427t-157 -426.5t-428 -156.5zM668 266q112 0 166.5 73t54.5 224t-54.5 224t-166.5 73q-113 0 -167.5 -73t-54.5 -224t54.5 -224
t167.5 -73z" />
    <glyph glyph-name="divide" unicode="&#xf7;" 
d="M334 995v312h356v-312h-356zM932 596h-840v264h840v-264zM334 150v311h356v-311h-356z" />
    <glyph glyph-name="oslash" unicode="&#xf8;" horiz-adv-x="1335" 
d="M82 0l137 160q-137 153 -137 403q0 270 158 427t428 157q188 0 329 -80l52 59h204l-135 -157q135 -157 135 -406q0 -270 -157 -426.5t-428 -156.5q-191 0 -330 79l-51 -59h-205zM436 563q0 -77 15 -133l348 406q-52 34 -131 34q-232 0 -232 -307zM668 256q117 0 174 76
t57 231q0 81 -14 133l-348 -405q53 -35 131 -35z" />
    <glyph glyph-name="ugrave" unicode="&#xf9;" horiz-adv-x="1349" 
d="M803 1245h-266l-297 332h440zM850 539v587h356v-1126h-311l-29 199q-58 -104 -147.5 -161.5t-200.5 -57.5q-182 0 -283.5 107.5t-101.5 299.5v739h356v-684q0 -75 37.5 -114t106.5 -39q102 0 159.5 66t57.5 184z" />
    <glyph glyph-name="uacute" unicode="&#xfa;" horiz-adv-x="1349" 
d="M545 1245l123 332h440l-297 -332h-266zM850 539v587h356v-1126h-311l-29 199q-58 -104 -147.5 -161.5t-200.5 -57.5q-182 0 -283.5 107.5t-101.5 299.5v739h356v-684q0 -75 37.5 -114t106.5 -39q102 0 159.5 66t57.5 184z" />
    <glyph glyph-name="ucircumflex" unicode="&#xfb;" horiz-adv-x="1349" 
d="M831 1245l-161 162l-164 -162h-256l225 332h397l226 -332h-267zM850 539v587h356v-1126h-311l-29 199q-58 -104 -147.5 -161.5t-200.5 -57.5q-182 0 -283.5 107.5t-101.5 299.5v739h356v-684q0 -75 37.5 -114t106.5 -39q102 0 159.5 66t57.5 184z" />
    <glyph glyph-name="udieresis" unicode="&#xfc;" horiz-adv-x="1349" 
d="M733 1245v332h336v-332h-336zM279 1245v332h335v-332h-335zM850 539v587h356v-1126h-311l-29 199q-58 -104 -147.5 -161.5t-200.5 -57.5q-182 0 -283.5 107.5t-101.5 299.5v739h356v-684q0 -75 37.5 -114t106.5 -39q102 0 159.5 66t57.5 184z" />
    <glyph glyph-name="yacute" unicode="&#xfd;" horiz-adv-x="1175" 
d="M459 1245l123 332h440l-297 -332h-266zM815 1126h350l-409 -1110q-89 -244 -198.5 -345t-281.5 -101q-100 0 -165 24l-13 271q39 -8 88 -8q101 0 152 42.5t100 174.5l-428 1052h371l229 -655z" />
    <glyph glyph-name="thorn" unicode="&#xfe;" horiz-adv-x="1406" 
d="M829 -20q-99 0 -183.5 46t-145.5 130v-566h-357v1946h357v-565q61 84 145.5 130t183.5 46q224 0 360 -160t136 -424t-136 -423.5t-360 -159.5zM731 272q107 0 168.5 77.5t61.5 213.5t-61.5 213.5t-168.5 77.5q-109 0 -170 -77t-61 -214t61 -214t170 -77z" />
    <glyph glyph-name="ydieresis" unicode="&#xff;" horiz-adv-x="1175" 
d="M647 1245v332h336v-332h-336zM193 1245v332h335v-332h-335zM815 1126h350l-409 -1110q-89 -244 -198.5 -345t-281.5 -101q-100 0 -165 24l-13 271q39 -8 88 -8q101 0 152 42.5t100 174.5l-428 1052h371l229 -655z" />
    <glyph glyph-name="Amacron" unicode="&#x100;" horiz-adv-x="1519" 
d="M432 1552v248h655v-248h-655zM1130 0l-100 274h-557l-100 -274h-373l567 1434h385l568 -1434h-390zM582 569h342l-172 465z" />
    <glyph glyph-name="amacron" unicode="&#x101;" horiz-adv-x="1245" 
d="M305 1245v248h656v-248h-656zM88 766q38 189 171 285t355 96q238 0 363 -109.5t125 -318.5v-410q0 -65 63 -65q23 0 39 4l-6 -240q-65 -28 -141 -28q-237 0 -271 190q-124 -190 -358 -190q-172 0 -274.5 91t-102.5 244q0 160 110 247.5t349 115.5l268 31q-6 178 -174 178
q-178 0 -190 -168zM383 346q0 -51 30 -74.5t95 -23.5q116 0 195 69t79 170v7l-274 -37q-61 -7 -93 -36.5t-32 -74.5z" />
    <glyph glyph-name="Abreve" unicode="&#x102;" horiz-adv-x="1519" 
d="M872 1884h265q0 -352 -375 -352q-379 0 -379 352h264q0 -81 27 -113t88 -32q59 0 84.5 32t25.5 113zM1130 0l-100 274h-557l-100 -274h-373l567 1434h385l568 -1434h-390zM582 569h342l-172 465z" />
    <glyph glyph-name="abreve" unicode="&#x103;" horiz-adv-x="1245" 
d="M745 1577h265q0 -352 -375 -352q-379 0 -379 352h264q0 -81 27 -113t88 -32q59 0 84.5 32t25.5 113zM88 766q38 189 171 285t355 96q238 0 363 -109.5t125 -318.5v-410q0 -65 63 -65q23 0 39 4l-6 -240q-65 -28 -141 -28q-237 0 -271 190q-124 -190 -358 -190
q-172 0 -274.5 91t-102.5 244q0 160 110 247.5t349 115.5l268 31q-6 178 -174 178q-178 0 -190 -168zM383 346q0 -51 30 -74.5t95 -23.5q116 0 195 69t79 170v7l-274 -37q-61 -7 -93 -36.5t-32 -74.5z" />
    <glyph glyph-name="Aogonek" unicode="&#x104;" horiz-adv-x="1519" 
d="M1016 -211q0 131 114 211l-100 274h-557l-100 -274h-373l567 1434h385l568 -1434q-238 -24 -238 -111q0 -53 94 -53q64 0 144 25l-9 -262q-91 -29 -194 -29q-147 0 -224 56.5t-77 162.5zM582 569h342l-172 465z" />
    <glyph glyph-name="aogonek" unicode="&#x105;" horiz-adv-x="1245" 
d="M1196 -401q-91 -29 -195 -29q-147 0 -224 56.5t-77 162.5q0 159 166 240q-65 50 -80 141q-124 -190 -358 -190q-172 0 -274.5 91t-102.5 244q0 157 110 242t349 113l268 30q-3 187 -174 187q-178 0 -190 -168l-326 47q38 189 171 285t355 96q238 0 363 -109.5t125 -318.5
v-410q0 -65 63 -65q23 0 39 4l-6 -240q-27 -9 -68 -20t-65 -18.5t-49.5 -18.5t-37 -26t-11.5 -36q0 -53 94 -53q63 0 143 25zM383 340q0 -47 30.5 -69.5t94.5 -22.5q115 0 194.5 68.5t79.5 168.5l-274 -36q-61 -7 -93 -35.5t-32 -73.5z" />
    <glyph glyph-name="Cacute" unicode="&#x106;" horiz-adv-x="1540" 
d="M662 1552l122 332h441l-297 -332h-266zM82 717q0 217 90 384.5t253 260t374 92.5q270 0 447 -131t233 -381l-383 -74q-26 136 -102 207.5t-195 71.5q-159 0 -243.5 -110.5t-84.5 -319.5t84.5 -319.5t243.5 -110.5q125 0 201 72.5t98 213.5l379 -71q-47 -254 -225.5 -388
t-452.5 -134q-169 0 -305 53.5t-226 150.5t-138 233t-48 300z" />
    <glyph glyph-name="cacute" unicode="&#x107;" horiz-adv-x="1265" 
d="M504 1245l123 332h440l-297 -332h-266zM1214 715l-340 -60q-35 205 -206 205q-107 0 -164.5 -76.5t-57.5 -220.5t57.5 -220.5t164.5 -76.5q92 0 143 51.5t68 163.5l335 -57q-37 -212 -179.5 -328t-366.5 -116q-270 0 -428 156.5t-158 426.5t158 427t428 157
q229 0 367.5 -110t178.5 -322z" />
    <glyph glyph-name="Ccircumflex" unicode="&#x108;" horiz-adv-x="1540" 
d="M948 1552l-162 162l-163 -162h-256l225 332h397l225 -332h-266zM82 717q0 217 90 384.5t253 260t374 92.5q270 0 447 -131t233 -381l-383 -74q-26 136 -102 207.5t-195 71.5q-159 0 -243.5 -110.5t-84.5 -319.5t84.5 -319.5t243.5 -110.5q125 0 201 72.5t98 213.5
l379 -71q-47 -254 -225.5 -388t-452.5 -134q-169 0 -305 53.5t-226 150.5t-138 233t-48 300z" />
    <glyph glyph-name="ccircumflex" unicode="&#x109;" horiz-adv-x="1265" 
d="M791 1245l-162 162l-164 -162h-256l225 332h397l226 -332h-266zM1214 715l-340 -60q-35 205 -206 205q-107 0 -164.5 -76.5t-57.5 -220.5t57.5 -220.5t164.5 -76.5q92 0 143 51.5t68 163.5l335 -57q-37 -212 -179.5 -328t-366.5 -116q-270 0 -428 156.5t-158 426.5
t158 427t428 157q229 0 367.5 -110t178.5 -322z" />
    <glyph glyph-name="Cdotaccent" unicode="&#x10a;" horiz-adv-x="1540" 
d="M623 1552v332h335v-332h-335zM82 717q0 217 90 384.5t253 260t374 92.5q270 0 447 -131t233 -381l-383 -74q-26 136 -102 207.5t-195 71.5q-159 0 -243.5 -110.5t-84.5 -319.5t84.5 -319.5t243.5 -110.5q125 0 201 72.5t98 213.5l379 -71q-47 -254 -225.5 -388
t-452.5 -134q-169 0 -305 53.5t-226 150.5t-138 233t-48 300z" />
    <glyph glyph-name="cdotaccent" unicode="&#x10b;" horiz-adv-x="1265" 
d="M465 1245v332h336v-332h-336zM1214 715l-340 -60q-35 205 -206 205q-107 0 -164.5 -76.5t-57.5 -220.5t57.5 -220.5t164.5 -76.5q92 0 143 51.5t68 163.5l335 -57q-37 -212 -179.5 -328t-366.5 -116q-270 0 -428 156.5t-158 426.5t158 427t428 157q229 0 367.5 -110
t178.5 -322z" />
    <glyph glyph-name="Ccaron" unicode="&#x10c;" horiz-adv-x="1540" 
d="M1214 1884l-225 -332h-397l-225 332h266l164 -162l164 162h253zM82 717q0 217 90 384.5t253 260t374 92.5q270 0 447 -131t233 -381l-383 -74q-26 136 -102 207.5t-195 71.5q-159 0 -243.5 -110.5t-84.5 -319.5t84.5 -319.5t243.5 -110.5q125 0 201 72.5t98 213.5
l379 -71q-47 -254 -225.5 -388t-452.5 -134q-169 0 -305 53.5t-226 150.5t-138 233t-48 300z" />
    <glyph glyph-name="ccaron" unicode="&#x10d;" horiz-adv-x="1265" 
d="M1057 1577l-226 -332h-397l-225 332h266l164 -162l164 162h254zM1214 715l-340 -60q-35 205 -206 205q-107 0 -164.5 -76.5t-57.5 -220.5t57.5 -220.5t164.5 -76.5q92 0 143 51.5t68 163.5l335 -57q-37 -212 -179.5 -328t-366.5 -116q-270 0 -428 156.5t-158 426.5
t158 427t428 157q229 0 367.5 -110t178.5 -322z" />
    <glyph glyph-name="Dcaron" unicode="&#x10e;" horiz-adv-x="1603" 
d="M1227 1884l-226 -332h-397l-225 332h266l164 -162l164 162h254zM164 0v1434h610q352 0 550 -191.5t198 -531.5q0 -334 -198 -522.5t-550 -188.5h-610zM774 307q173 0 266 104.5t93 299.5q0 201 -93 308t-266 107h-231v-819h231z" />
    <glyph glyph-name="dcaron" unicode="&#x10f;" horiz-adv-x="1662" 
d="M578 -20q-224 0 -360 159.5t-136 423.5t136 424t360 160q99 0 183.5 -46t145.5 -130v565h357v-1536h-312l-26 184q-61 -96 -151.5 -150t-196.5 -54zM1407 1081v455h389l-143 -455h-246zM676 272q109 0 170 77t61 214t-61 214t-170 77q-107 0 -168.5 -77.5t-61.5 -213.5
t61.5 -213.5t168.5 -77.5z" />
    <glyph glyph-name="Dcroat" unicode="&#x110;" horiz-adv-x="1624" 
d="M184 0v639h-164v164h164v631h611q352 0 549.5 -191.5t197.5 -531.5q0 -335 -197.5 -523t-549.5 -188h-611zM795 307q173 0 265.5 104.5t92.5 299.5q0 201 -92.5 308t-265.5 107h-232v-323h264v-164h-264v-332h232z" />
    <glyph glyph-name="dcroat" unicode="&#x111;" horiz-adv-x="1406" 
d="M578 -20q-224 0 -360 154t-136 409t136 409t360 154q98 0 183 -44.5t146 -125.5v297h-239v164h239v139h357v-139h141v-164h-141v-1233h-312l-24 178q-63 -94 -153 -146t-197 -52zM676 272q109 0 170 71.5t61 199.5q0 127 -61 198.5t-170 71.5q-108 0 -169 -71.5
t-61 -198.5t61.5 -199t168.5 -72z" />
    <glyph glyph-name="Emacron" unicode="&#x112;" horiz-adv-x="1314" 
d="M350 1552v248h656v-248h-656zM164 0v1434h1036v-308h-657v-249h553v-299h-553v-271h680v-307h-1059z" />
    <glyph glyph-name="emacron" unicode="&#x113;" horiz-adv-x="1316" 
d="M332 1245v248h655v-248h-655zM676 -20q-269 0 -431.5 158t-162.5 425q0 170 71 302t206.5 207t316.5 75q252 0 410.5 -143.5t158.5 -389.5q0 -75 -14 -135h-799q17 -109 80.5 -166t167.5 -57q183 0 227 139l326 -57q-92 -358 -557 -358zM680 870q-193 0 -240 -184h475
q-17 93 -78.5 138.5t-156.5 45.5z" />
    <glyph glyph-name="Ebreve" unicode="&#x114;" horiz-adv-x="1314" 
d="M791 1884h264q0 -352 -375 -352q-379 0 -379 352h264q0 -81 27 -113t88 -32q59 0 85 32t26 113zM164 0v1434h1036v-308h-657v-249h553v-299h-553v-271h680v-307h-1059z" />
    <glyph glyph-name="ebreve" unicode="&#x115;" horiz-adv-x="1316" 
d="M772 1577h264q0 -352 -374 -352q-379 0 -379 352h264q0 -81 27 -113t88 -32q59 0 84.5 32t25.5 113zM676 -20q-269 0 -431.5 158t-162.5 425q0 170 71 302t206.5 207t316.5 75q252 0 410.5 -143.5t158.5 -389.5q0 -75 -14 -135h-799q17 -109 80.5 -166t167.5 -57
q183 0 227 139l326 -57q-92 -358 -557 -358zM680 870q-193 0 -240 -184h475q-17 93 -78.5 138.5t-156.5 45.5z" />
    <glyph glyph-name="Edotaccent" unicode="&#x116;" horiz-adv-x="1314" 
d="M510 1552v332h336v-332h-336zM164 0v1434h1036v-308h-657v-249h553v-299h-553v-271h680v-307h-1059z" />
    <glyph glyph-name="edotaccent" unicode="&#x117;" horiz-adv-x="1316" 
d="M492 1245v332h335v-332h-335zM676 -20q-269 0 -431.5 158t-162.5 425q0 170 71 302t206.5 207t316.5 75q252 0 410.5 -143.5t158.5 -389.5q0 -75 -14 -135h-799q17 -109 80.5 -166t167.5 -57q183 0 227 139l326 -57q-92 -358 -557 -358zM680 870q-193 0 -240 -184h475
q-17 93 -78.5 138.5t-156.5 45.5z" />
    <glyph glyph-name="Eogonek" unicode="&#x118;" horiz-adv-x="1314" 
d="M164 0v1434h1036v-308h-657v-249h553v-299h-553v-271h680v-307q-238 -24 -238 -111q0 -53 94 -53q64 0 144 25l-9 -262q-91 -29 -194 -29q-147 0 -224 56.5t-77 162.5q0 132 117 211h-672z" />
    <glyph glyph-name="eogonek" unicode="&#x119;" horiz-adv-x="1316" 
d="M1223 -401q-91 -29 -195 -29q-147 0 -224 56.5t-77 162.5q0 127 104 203q-70 -12 -155 -12q-269 0 -431.5 158t-162.5 425q0 170 71 302t206.5 207t316.5 75q252 0 410.5 -143.5t158.5 -389.5q0 -75 -14 -135h-799q17 -109 80.5 -166t167.5 -57q183 0 227 139l326 -57
q-23 -75 -57 -140.5t-64.5 -107t-58 -76.5t-44 -64.5t-16.5 -55.5q0 -58 94 -58q64 0 144 25zM680 870q-193 0 -240 -184h475q-17 93 -78.5 138.5t-156.5 45.5z" />
    <glyph glyph-name="Ecaron" unicode="&#x11a;" horiz-adv-x="1314" 
d="M1102 1884l-225 -332h-398l-225 332h266l164 -162l164 162h254zM164 0v1434h1036v-308h-657v-249h553v-299h-553v-271h680v-307h-1059z" />
    <glyph glyph-name="ecaron" unicode="&#x11b;" horiz-adv-x="1316" 
d="M1083 1577l-225 -332h-397l-225 332h266l164 -162l163 162h254zM676 -20q-269 0 -431.5 158t-162.5 425q0 170 71 302t206.5 207t316.5 75q252 0 410.5 -143.5t158.5 -389.5q0 -75 -14 -135h-799q17 -109 80.5 -166t167.5 -57q183 0 227 139l326 -57q-92 -358 -557 -358z
M680 870q-193 0 -240 -184h475q-17 93 -78.5 138.5t-156.5 45.5z" />
    <glyph glyph-name="Gcircumflex" unicode="&#x11c;" horiz-adv-x="1626" 
d="M971 1552l-162 162l-164 -162h-256l225 332h398l225 -332h-266zM82 717q0 220 92 387.5t260 258.5t389 91q263 0 431 -116.5t229 -344.5l-363 -80q-57 234 -295 234q-172 0 -263 -110.5t-91 -319.5t91 -319.5t263 -110.5q135 0 219.5 52.5t112.5 152.5h-336v286h682v-778
h-258l-24 190q-156 -210 -437 -210q-318 0 -510 202t-192 535z" />
    <glyph glyph-name="gcircumflex" unicode="&#x11d;" horiz-adv-x="1261" 
d="M768 1245l-162 162l-164 -162h-256l226 332h397l225 -332h-266zM598 1147q223 0 363 -94q90 144 270 141l-12 -303q-83 16 -138 10q23 -57 23 -119q0 -166 -137.5 -264t-368.5 -98q-63 0 -131 10q-55 -14 -55 -63q0 -67 102 -70l340 -8q186 -4 286.5 -86t100.5 -228
q0 -192 -168.5 -298.5t-474.5 -106.5q-287 0 -434.5 72.5t-147.5 212.5q0 179 238 213q-76 26 -117 82t-41 129q0 151 168 219q-83 46 -127.5 119t-44.5 165q0 166 138 265.5t368 99.5zM754 782q0 65 -42 102.5t-114 37.5t-114 -37.5t-42 -102.5q0 -64 42 -100.5t114 -36.5
t114 36.5t42 100.5zM502 0q-135 0 -135 -86q0 -54 57.5 -78t193.5 -24q139 0 208 32t69 86q0 70 -107 70h-286z" />
    <glyph glyph-name="Gbreve" unicode="&#x11e;" horiz-adv-x="1626" 
d="M926 1884h264q0 -352 -375 -352q-379 0 -379 352h264q0 -81 27 -113t88 -32q59 0 85 32t26 113zM82 717q0 220 92 387.5t260 258.5t389 91q263 0 431 -116.5t229 -344.5l-363 -80q-57 234 -295 234q-172 0 -263 -110.5t-91 -319.5t91 -319.5t263 -110.5q135 0 219.5 52.5
t112.5 152.5h-336v286h682v-778h-258l-24 190q-156 -210 -437 -210q-318 0 -510 202t-192 535z" />
    <glyph glyph-name="gbreve" unicode="&#x11f;" horiz-adv-x="1261" 
d="M723 1577h264q0 -352 -375 -352q-379 0 -379 352h265q0 -81 27 -113t87 -32q59 0 85 32t26 113zM598 1147q223 0 363 -94q90 144 270 141l-12 -303q-83 16 -138 10q23 -57 23 -119q0 -166 -137.5 -264t-368.5 -98q-63 0 -131 10q-55 -14 -55 -63q0 -67 102 -70l340 -8
q186 -4 286.5 -86t100.5 -228q0 -192 -168.5 -298.5t-474.5 -106.5q-287 0 -434.5 72.5t-147.5 212.5q0 179 238 213q-76 26 -117 82t-41 129q0 151 168 219q-83 46 -127.5 119t-44.5 165q0 166 138 265.5t368 99.5zM754 782q0 65 -42 102.5t-114 37.5t-114 -37.5
t-42 -102.5q0 -64 42 -100.5t114 -36.5t114 36.5t42 100.5zM502 0q-135 0 -135 -86q0 -54 57.5 -78t193.5 -24q139 0 208 32t69 86q0 70 -107 70h-286z" />
    <glyph glyph-name="Gdotaccent" unicode="&#x120;" horiz-adv-x="1626" 
d="M645 1552v332h336v-332h-336zM82 717q0 220 92 387.5t260 258.5t389 91q263 0 431 -116.5t229 -344.5l-363 -80q-57 234 -295 234q-172 0 -263 -110.5t-91 -319.5t91 -319.5t263 -110.5q135 0 219.5 52.5t112.5 152.5h-336v286h682v-778h-258l-24 190
q-156 -210 -437 -210q-318 0 -510 202t-192 535z" />
    <glyph glyph-name="gdotaccent" unicode="&#x121;" horiz-adv-x="1261" 
d="M434 1245v332h336v-332h-336zM598 1147q223 0 363 -94q90 144 270 141l-12 -303q-83 16 -138 10q23 -57 23 -119q0 -166 -137.5 -264t-368.5 -98q-63 0 -131 10q-55 -14 -55 -63q0 -67 102 -70l340 -8q186 -4 286.5 -86t100.5 -228q0 -192 -168.5 -298.5t-474.5 -106.5
q-287 0 -434.5 72.5t-147.5 212.5q0 179 238 213q-76 26 -117 82t-41 129q0 151 168 219q-83 46 -127.5 119t-44.5 165q0 166 138 265.5t368 99.5zM754 782q0 65 -42 102.5t-114 37.5t-114 -37.5t-42 -102.5q0 -64 42 -100.5t114 -36.5t114 36.5t42 100.5zM502 0
q-135 0 -135 -86q0 -54 57.5 -78t193.5 -24q139 0 208 32t69 86q0 70 -107 70h-286z" />
    <glyph glyph-name="Gcommaaccent" unicode="&#x122;" horiz-adv-x="1626" 
d="M82 717q0 220 92 387.5t260 258.5t389 91q263 0 431 -116.5t229 -344.5l-363 -80q-57 234 -295 234q-172 0 -263 -110.5t-91 -319.5t91 -319.5t263 -110.5q135 0 219.5 52.5t112.5 152.5h-336v286h682v-778h-258l-24 190q-156 -210 -437 -210q-318 0 -510 202t-192 535z
M424 -410l108 293h420l-262 -293h-266z" />
    <glyph glyph-name="gcommaaccent" unicode="&#x123;" horiz-adv-x="1261" 
d="M928 1577l-103 -332h-440l277 332h266zM598 1147q223 0 363 -94q90 144 270 141l-12 -303q-83 16 -138 10q23 -57 23 -119q0 -166 -137.5 -264t-368.5 -98q-63 0 -131 10q-55 -14 -55 -63q0 -67 102 -70l340 -8q186 -4 286.5 -86t100.5 -228q0 -192 -168.5 -298.5
t-474.5 -106.5q-287 0 -434.5 72.5t-147.5 212.5q0 179 238 213q-76 26 -117 82t-41 129q0 151 168 219q-83 46 -127.5 119t-44.5 165q0 166 138 265.5t368 99.5zM754 782q0 65 -42 102.5t-114 37.5t-114 -37.5t-42 -102.5q0 -64 42 -100.5t114 -36.5t114 36.5t42 100.5z
M502 0q-135 0 -135 -86q0 -54 57.5 -78t193.5 -24q139 0 208 32t69 86q0 70 -107 70h-286z" />
    <glyph glyph-name="Hcircumflex" unicode="&#x124;" horiz-adv-x="1654" 
d="M1001 1552l-161 162l-164 -162h-256l225 332h397l226 -332h-267zM164 0v1434h379v-543h569v543h379v-1434h-379v584h-569v-584h-379z" />
    <glyph glyph-name="hcircumflex" unicode="&#x125;" horiz-adv-x="1372" 
d="M725 1655l-162 162l-164 -162h-256l226 332h397l225 -332h-266zM143 0v1536h357v-588q131 199 356 199q180 0 281.5 -107.5t101.5 -296.5v-743h-356v662q0 84 -42.5 130t-123.5 46q-101 0 -159 -66.5t-58 -183.5v-588h-357z" />
    <glyph glyph-name="Hbar" unicode="&#x126;" horiz-adv-x="1654" 
d="M164 0v1087h-164v164h164v183h379v-183h569v183h379v-183h164v-164h-164v-1087h-379v584h-569v-584h-379zM543 891h569v196h-569v-196z" />
    <glyph glyph-name="hbar" unicode="&#x127;" horiz-adv-x="1372" 
d="M143 0v1233h-143v164h143v139h357v-139h237v-164h-237v-326q131 199 356 199q180 0 281.5 -107.5t101.5 -296.5v-702h-356v621q0 84 -42.5 130t-123.5 46q-101 0 -159 -66.5t-58 -183.5v-547h-357z" />
    <glyph glyph-name="Itilde" unicode="&#x128;" horiz-adv-x="706" 
d="M719 1884q26 -344 -207 -344q-48 0 -88 18t-62 39.5t-49.5 39.5t-54.5 18q-72 0 -59 -103h-226q-26 357 220 357q47 0 87 -20t62 -43.5t47.5 -43.5t48.5 -20q37 0 49 25t7 77h225zM164 0v1434h379v-1434h-379z" />
    <glyph glyph-name="itilde" unicode="&#x129;" horiz-adv-x="643" 
d="M686 1577q28 -344 -207 -344q-48 0 -88 18t-62 39.5t-49.5 39.5t-54.5 18q-69 0 -59 -103h-225q-26 357 219 357q47 0 87 -20t62 -43.5t48 -43.5t49 -20q37 0 48.5 24.5t6.5 77.5h225zM143 0v1126h357v-1126h-357z" />
    <glyph glyph-name="Imacron" unicode="&#x12a;" horiz-adv-x="706" 
d="M27 1552v248h655v-248h-655zM164 0v1434h379v-1434h-379z" />
    <glyph glyph-name="imacron" unicode="&#x12b;" horiz-adv-x="643" 
d="M-6 1245v248h655v-248h-655zM143 0v1126h357v-1126h-357z" />
    <glyph glyph-name="Ibreve" unicode="&#x12c;" horiz-adv-x="706" 
d="M467 1884h264q0 -352 -375 -352q-379 0 -379 352h265q0 -81 27 -113t87 -32q59 0 85 32t26 113zM164 0v1434h379v-1434h-379z" />
    <glyph glyph-name="ibreve" unicode="&#x12d;" horiz-adv-x="643" 
d="M434 1577h264q0 -352 -374 -352q-379 0 -379 352h264q0 -81 27 -113t88 -32q59 0 84.5 32t25.5 113zM143 0v1126h357v-1126h-357z" />
    <glyph glyph-name="Iogonek" unicode="&#x12e;" horiz-adv-x="706" 
d="M39 -211q0 136 125 217v1428h379v-1434q-238 -24 -238 -111q0 -53 115 -53q85 0 164 25l-9 -262q-88 -29 -215 -29q-156 0 -238.5 56.5t-82.5 162.5z" />
    <glyph glyph-name="iogonek" unicode="&#x12f;" horiz-adv-x="643" 
d="M143 1245v311h357v-311h-357zM-4 -211q0 148 147 229v1108h357v-1126q-238 -24 -238 -111q0 -53 115 -53q85 0 164 25l-9 -262q-88 -29 -215 -29q-156 0 -238.5 56.5t-82.5 162.5z" />
    <glyph glyph-name="Idotaccent" unicode="&#x130;" horiz-adv-x="706" 
d="M186 1552v332h336v-332h-336zM164 0v1434h379v-1434h-379z" />
    <glyph glyph-name="dotlessi" unicode="&#x131;" horiz-adv-x="643" 
d="M143 0v1126h357v-1126h-357z" />
    <glyph glyph-name="IJ" unicode="&#x132;" horiz-adv-x="1605" 
d="M164 0v1434h379v-1434h-379zM1452 489q0 -249 -117 -379t-344 -130q-104 0 -221 20l-12 317q48 -10 127 -10q106 0 147 39.5t41 142.5v945h379v-945z" />
    <glyph glyph-name="ij" unicode="&#x133;" horiz-adv-x="1286" 
d="M143 1245v311h357v-311h-357zM786 1245v311h357v-311h-357zM143 0v1126h357v-1126h-357zM786 0v1126h357v-1108q0 -246 -100 -347t-320 -101q-89 0 -172 18l-8 275q47 -8 100 -8q75 0 109 34.5t34 110.5z" />
    <glyph glyph-name="Jcircumflex" unicode="&#x134;" horiz-adv-x="899" 
d="M713 1552l-162 162l-164 -162h-256l225 332h398l225 -332h-266zM745 489q0 -250 -116.5 -379.5t-343.5 -129.5q-105 0 -222 20l-12 317q48 -10 127 -10q106 0 147.5 39.5t41.5 142.5v945h378v-945z" />
    <glyph glyph-name="jcircumflex" unicode="&#x135;" horiz-adv-x="643" 
d="M479 1245l-162 162l-163 -162h-256l225 332h397l225 -332h-266zM143 0v1126h357v-1108q0 -246 -100 -347t-320 -101q-89 0 -172 18l-8 275q47 -8 100 -8q75 0 109 34.5t34 110.5z" />
    <glyph glyph-name="Kcommaaccent" unicode="&#x136;" horiz-adv-x="1499" 
d="M164 0v1434h368v-549l494 549h440l-592 -639l635 -795h-460l-420 526l-97 -102v-424h-368zM422 -410l108 293h420l-262 -293h-266z" />
    <glyph glyph-name="kcommaaccent" unicode="&#x137;" horiz-adv-x="1277" 
d="M143 0v1536h353v-799l335 389h410l-446 -489l497 -637h-434l-291 387l-71 -80v-307h-353zM352 -410l109 293h420l-263 -293h-266z" />
    <glyph glyph-name="kgreenlandic" unicode="&#x138;" horiz-adv-x="1277" 
d="M143 0v1126h353v-389l335 389h410l-446 -489l497 -637h-434l-291 387l-71 -80v-307h-353z" />
    <glyph glyph-name="Lacute" unicode="&#x139;" horiz-adv-x="1245" 
d="M223 1552l123 332h440l-297 -332h-266zM164 0v1434h379v-1127h641v-307h-1020z" />
    <glyph glyph-name="lacute" unicode="&#x13a;" horiz-adv-x="643" 
d="M193 1655l122 332h441l-297 -332h-266zM500 0h-357v1536h357v-1536z" />
    <glyph glyph-name="Lcommaaccent" unicode="&#x13b;" horiz-adv-x="1245" 
d="M164 0v1434h379v-1127h641v-307h-1020zM350 -410l109 293h420l-263 -293h-266z" />
    <glyph glyph-name="lcommaaccent" unicode="&#x13c;" horiz-adv-x="643" 
d="M500 0h-357v1536h357v-1536zM-6 -410l108 293h420l-262 -293h-266z" />
    <glyph glyph-name="Lcaron" unicode="&#x13d;" horiz-adv-x="1245" 
d="M164 0v1434h379v-1127h641v-307h-1020zM776 979v455h389l-143 -455h-246z" />
    <glyph glyph-name="lcaron" unicode="&#x13e;" horiz-adv-x="899" 
d="M500 0h-357v1536h357v-1536zM643 1081v455h389l-143 -455h-246z" />
    <glyph glyph-name="Ldot" unicode="&#x13f;" horiz-adv-x="1245" 
d="M164 0v1434h379v-1127h641v-307h-1020zM786 614v357h377v-357h-377z" />
    <glyph glyph-name="ldot" unicode="&#x140;" horiz-adv-x="1019" 
d="M500 0h-357v1536h357v-1536zM643 594v356h377v-356h-377z" />
    <glyph glyph-name="Lslash" unicode="&#x141;" horiz-adv-x="1265" 
d="M184 0v584l-164 -54v170l164 54v680h379v-555l264 88v-170l-264 -88v-402h641v-307h-1020z" />
    <glyph glyph-name="lslash" unicode="&#x142;" horiz-adv-x="684" 
d="M520 0h-356v614l-164 -63v174l164 63v748h356v-608l164 63v-174l-164 -63v-754z" />
    <glyph glyph-name="Nacute" unicode="&#x143;" horiz-adv-x="1634" 
d="M709 1552l122 332h441l-297 -332h-266zM164 0v1434h375l594 -926v926h337v-1434h-374l-594 926v-926h-338z" />
    <glyph glyph-name="nacute" unicode="&#x144;" horiz-adv-x="1372" 
d="M557 1245l123 332h440l-297 -332h-266zM143 0v1126h312l28 -204q61 107 157 166t216 59q180 0 281.5 -107.5t101.5 -296.5v-743h-356v662q0 84 -42.5 130t-123.5 46q-101 0 -159 -66.5t-58 -183.5v-588h-357z" />
    <glyph glyph-name="Ncommaaccent" unicode="&#x145;" horiz-adv-x="1634" 
d="M164 0v1434h375l594 -926v926h337v-1434h-374l-594 926v-926h-338zM510 -410l108 293h420l-262 -293h-266z" />
    <glyph glyph-name="ncommaaccent" unicode="&#x146;" horiz-adv-x="1372" 
d="M143 0v1126h312l28 -204q61 107 157 166t216 59q180 0 281.5 -107.5t101.5 -296.5v-743h-356v662q0 84 -42.5 130t-123.5 46q-101 0 -159 -66.5t-58 -183.5v-588h-357zM358 -410l109 293h420l-262 -293h-267z" />
    <glyph glyph-name="Ncaron" unicode="&#x147;" horiz-adv-x="1634" 
d="M1262 1884l-226 -332h-397l-225 332h266l164 -162l164 162h254zM164 0v1434h375l594 -926v926h337v-1434h-374l-594 926v-926h-338z" />
    <glyph glyph-name="ncaron" unicode="&#x148;" horiz-adv-x="1372" 
d="M1110 1577l-225 -332h-398l-225 332h266l164 -162l164 162h254zM143 0v1126h312l28 -204q61 107 157 166t216 59q180 0 281.5 -107.5t101.5 -296.5v-743h-356v662q0 84 -42.5 130t-123.5 46q-101 0 -159 -66.5t-58 -183.5v-588h-357z" />
    <glyph glyph-name="napostrophe" unicode="&#x149;" horiz-adv-x="1372" 
d="M143 1245l109 293h420l-262 -293h-267zM143 0v1126h312l28 -204q61 107 157 166t216 59q180 0 281.5 -107.5t101.5 -296.5v-743h-356v662q0 84 -42.5 130t-123.5 46q-101 0 -159 -66.5t-58 -183.5v-588h-357z" />
    <glyph glyph-name="Eng" unicode="&#x14a;" horiz-adv-x="1634" 
d="M164 0v1434h375l594 -887v887h337v-1416q0 -246 -99.5 -347t-319.5 -101q-89 0 -172 18l-9 275q47 -8 101 -8q85 0 123.5 34.5t38.5 110.5l-631 940v-940h-338z" />
    <glyph glyph-name="eng" unicode="&#x14b;" horiz-adv-x="1372" 
d="M143 0v1126h312l28 -204q61 107 157 166t216 59q180 0 281.5 -107.5t101.5 -296.5v-725q0 -246 -100 -347t-320 -101q-89 0 -172 18l-8 275q47 -8 100 -8q75 0 109.5 34.5t34.5 110.5v662q0 84 -42.5 130t-123.5 46q-101 0 -159 -66.5t-58 -183.5v-588h-357z" />
    <glyph glyph-name="Omacron" unicode="&#x14c;" horiz-adv-x="1626" 
d="M485 1552v248h656v-248h-656zM813 -20q-218 0 -384 91.5t-256.5 259t-90.5 386.5q0 333 200.5 535t530.5 202t530.5 -202t200.5 -535q0 -219 -90.5 -386.5t-256.5 -259t-384 -91.5zM813 287q166 0 254 110.5t88 319.5t-88 319.5t-254 110.5t-254 -110.5t-88 -319.5
t88 -319.5t254 -110.5z" />
    <glyph glyph-name="omacron" unicode="&#x14d;" horiz-adv-x="1335" 
d="M340 1245v248h655v-248h-655zM668 -20q-270 0 -428 156.5t-158 426.5t158 427t428 157q271 0 428 -157t157 -427t-157 -426.5t-428 -156.5zM668 266q112 0 166.5 73t54.5 224t-54.5 224t-166.5 73q-113 0 -167.5 -73t-54.5 -224t54.5 -224t167.5 -73z" />
    <glyph glyph-name="Obreve" unicode="&#x14e;" horiz-adv-x="1626" 
d="M926 1884h264q0 -352 -375 -352q-379 0 -379 352h264q0 -81 27 -113t88 -32q59 0 85 32t26 113zM813 -20q-218 0 -384 91.5t-256.5 259t-90.5 386.5q0 333 200.5 535t530.5 202t530.5 -202t200.5 -535q0 -219 -90.5 -386.5t-256.5 -259t-384 -91.5zM813 287
q166 0 254 110.5t88 319.5t-88 319.5t-254 110.5t-254 -110.5t-88 -319.5t88 -319.5t254 -110.5z" />
    <glyph glyph-name="obreve" unicode="&#x14f;" horiz-adv-x="1335" 
d="M780 1577h264q0 -352 -374 -352q-379 0 -379 352h264q0 -81 27 -113t88 -32q59 0 84.5 32t25.5 113zM668 -20q-270 0 -428 156.5t-158 426.5t158 427t428 157q271 0 428 -157t157 -427t-157 -426.5t-428 -156.5zM668 266q112 0 166.5 73t54.5 224t-54.5 224t-166.5 73
q-113 0 -167.5 -73t-54.5 -224t54.5 -224t167.5 -73z" />
    <glyph glyph-name="Ohungarumlaut" unicode="&#x150;" horiz-adv-x="1626" 
d="M444 1552l82 332h369l-205 -332h-246zM874 1552l82 332h369l-205 -332h-246zM813 -20q-218 0 -384 91.5t-256.5 259t-90.5 386.5q0 333 200.5 535t530.5 202t530.5 -202t200.5 -535q0 -219 -90.5 -386.5t-256.5 -259t-384 -91.5zM813 287q166 0 254 110.5t88 319.5
t-88 319.5t-254 110.5t-254 -110.5t-88 -319.5t88 -319.5t254 -110.5z" />
    <glyph glyph-name="ohungarumlaut" unicode="&#x151;" horiz-adv-x="1335" 
d="M299 1245l82 332h369l-205 -332h-246zM729 1245l82 332h369l-205 -332h-246zM668 -20q-270 0 -428 156.5t-158 426.5t158 427t428 157q271 0 428 -157t157 -427t-157 -426.5t-428 -156.5zM668 266q112 0 166.5 73t54.5 224t-54.5 224t-166.5 73q-113 0 -167.5 -73
t-54.5 -224t54.5 -224t167.5 -73z" />
    <glyph glyph-name="OE" unicode="&#x152;" horiz-adv-x="2154" 
d="M82 717q0 324 200.5 520.5t530.5 196.5h1227v-308h-637v-249h532v-299h-532v-271h659v-307h-1249q-218 0 -384 89t-256.5 252t-90.5 376zM813 307h211v819h-211q-166 0 -254 -105t-88 -304t88 -304.5t254 -105.5z" />
    <glyph glyph-name="oe" unicode="&#x153;" horiz-adv-x="2095" 
d="M657 -20q-266 0 -420.5 156.5t-154.5 426.5t154.5 427t420.5 157q129 0 237 -44t179 -134q74 89 182 133.5t230 44.5q236 0 387 -143.5t151 -389.5q0 -80 -14 -135h-749q15 -109 72.5 -166t152.5 -57q160 0 201 139l325 -57q-43 -175 -177 -266.5t-349 -91.5
q-127 0 -233 45t-177 133q-71 -89 -180.5 -133.5t-237.5 -44.5zM1485 870q-175 0 -219 -184h428q-16 91 -75 137.5t-134 46.5zM657 266q107 0 159 73t52 224t-52 224t-159 73t-159 -73t-52 -224t52 -224t159 -73z" />
    <glyph glyph-name="Racute" unicode="&#x154;" horiz-adv-x="1462" 
d="M602 1552l123 332h440l-297 -332h-266zM164 0v1434h704q223 0 353.5 -124t130.5 -339q0 -162 -86.5 -270.5t-241.5 -145.5l387 -555h-428l-340 508h-100v-508h-379zM799 1137h-256v-332h256q86 0 133 43t47 123t-47 123t-133 43z" />
    <glyph glyph-name="racute" unicode="&#x155;" horiz-adv-x="917" 
d="M350 1245l123 332h440l-297 -332h-266zM143 0v1126h312l34 -239q64 118 160.5 189t198.5 71q25 0 37 -4l-8 -393q-41 12 -105 12q-272 0 -272 -285v-477h-357z" />
    <glyph glyph-name="Rcommaaccent" unicode="&#x156;" horiz-adv-x="1462" 
d="M164 0v1434h704q223 0 353.5 -124t130.5 -339q0 -162 -86.5 -270.5t-241.5 -145.5l387 -555h-428l-340 508h-100v-508h-379zM799 1137h-256v-332h256q86 0 133 43t47 123t-47 123t-133 43zM403 -410l109 293h420l-262 -293h-267z" />
    <glyph glyph-name="rcommaaccent" unicode="&#x157;" horiz-adv-x="917" 
d="M143 0v1126h312l34 -239q64 118 160.5 189t198.5 71q25 0 37 -4l-8 -393q-41 12 -105 12q-272 0 -272 -285v-477h-357zM-6 -410l108 293h420l-262 -293h-266z" />
    <glyph glyph-name="Rcaron" unicode="&#x158;" horiz-adv-x="1462" 
d="M1155 1884l-225 -332h-398l-225 332h266l164 -162l164 162h254zM164 0v1434h704q223 0 353.5 -124t130.5 -339q0 -162 -86.5 -270.5t-241.5 -145.5l387 -555h-428l-340 508h-100v-508h-379zM799 1137h-256v-332h256q86 0 133 43t47 123t-47 123t-133 43z" />
    <glyph glyph-name="rcaron" unicode="&#x159;" horiz-adv-x="917" 
d="M924 1577l-226 -332h-397l-225 332h266l164 -162l164 162h254zM143 0v1126h312l34 -239q64 118 160.5 189t198.5 71q25 0 37 -4l-8 -393q-41 12 -105 12q-272 0 -272 -285v-477h-357z" />
    <glyph glyph-name="Sacute" unicode="&#x15a;" horiz-adv-x="1406" 
d="M575 1552l123 332h441l-297 -332h-267zM57 453l369 47q37 -234 291 -234q235 0 235 131q0 64 -48.5 98t-184.5 54l-178 24q-443 61 -443 420q0 209 165 335t439 126t420 -108.5t178 -333.5l-368 -47q-22 109 -77 155.5t-163 46.5q-105 0 -158 -35t-53 -96q0 -60 47 -92.5
t170 -50.5l170 -25q243 -35 355 -138t112 -292q0 -217 -166 -337.5t-462 -120.5q-303 0 -460.5 114.5t-189.5 358.5z" />
    <glyph glyph-name="sacute" unicode="&#x15b;" horiz-adv-x="1167" 
d="M434 1245l123 332h440l-297 -332h-266zM571 897q-75 0 -117 -23.5t-42 -64.5q0 -39 28 -59t95 -27l163 -21q205 -25 306.5 -107t101.5 -233q0 -175 -135 -278.5t-377 -103.5q-256 0 -380.5 86t-160.5 278l322 41q27 -156 209 -156q89 0 132.5 25.5t43.5 67.5
q0 44 -30.5 64.5t-104.5 29.5l-170 20q-184 22 -280.5 108t-96.5 230q0 167 132.5 270t356.5 103q453 0 512 -344l-321 -41q-24 135 -187 135z" />
    <glyph glyph-name="Scircumflex" unicode="&#x15c;" horiz-adv-x="1406" 
d="M862 1552l-164 162l-161 -162h-256l225 332h397l225 -332h-266zM57 453l369 47q37 -234 291 -234q235 0 235 131q0 64 -48.5 98t-184.5 54l-178 24q-443 61 -443 420q0 209 165 335t439 126t420 -108.5t178 -333.5l-368 -47q-22 109 -77 155.5t-163 46.5q-105 0 -158 -35
t-53 -96q0 -60 47 -92.5t170 -50.5l170 -25q243 -35 355 -138t112 -292q0 -217 -166 -337.5t-462 -120.5q-303 0 -460.5 114.5t-189.5 358.5z" />
    <glyph glyph-name="scircumflex" unicode="&#x15d;" horiz-adv-x="1167" 
d="M741 1245l-161 162l-164 -162h-256l225 332h397l226 -332h-267zM571 897q-75 0 -117 -23.5t-42 -64.5q0 -39 28 -59t95 -27l163 -21q205 -25 306.5 -107t101.5 -233q0 -175 -135 -278.5t-377 -103.5q-256 0 -380.5 86t-160.5 278l322 41q27 -156 209 -156
q89 0 132.5 25.5t43.5 67.5q0 44 -30.5 64.5t-104.5 29.5l-170 20q-184 22 -280.5 108t-96.5 230q0 167 132.5 270t356.5 103q453 0 512 -344l-321 -41q-24 135 -187 135z" />
    <glyph glyph-name="Scedilla" unicode="&#x15e;" horiz-adv-x="1406" 
d="M57 453l369 47q37 -234 291 -234q235 0 235 131q0 64 -48.5 98t-184.5 54l-178 24q-443 61 -443 420q0 209 165 335t439 126t420 -108.5t178 -333.5l-368 -47q-22 109 -77 155.5t-163 46.5q-105 0 -158 -35t-53 -96q0 -60 47 -92.5t170 -50.5l170 -25q243 -35 355 -138
t112 -292q0 -202 -145 -321.5t-408 -134.5l-6 -56q50 13 88 13q95 0 146 -45t51 -130q0 -100 -74 -147t-233 -47q-111 0 -252 22l8 154q129 -22 199 -22q65 0 90.5 10t25.5 35q0 36 -51 36q-25 0 -53 -14l-137 14l18 179q-251 19 -383.5 132.5t-161.5 336.5z" />
    <glyph glyph-name="scedilla" unicode="&#x15f;" horiz-adv-x="1167" 
d="M571 897q-75 0 -117 -23.5t-42 -64.5q0 -39 28 -59t95 -27l163 -21q205 -25 306.5 -107t101.5 -233q0 -166 -122 -268t-341 -112l-8 -56q50 13 88 13q95 0 146 -45t51 -130q0 -100 -74.5 -147t-233.5 -47q-111 0 -252 22l9 154q129 -22 198 -22q66 0 91.5 10t25.5 35
q0 36 -51 36q-25 0 -53 -14l-138 14l19 181q-186 21 -281.5 107t-126.5 251l322 41q27 -156 209 -156q89 0 132.5 25.5t43.5 67.5q0 44 -30.5 64.5t-104.5 29.5l-170 20q-184 22 -280.5 108t-96.5 230q0 167 132.5 270t356.5 103q453 0 512 -344l-321 -41q-24 135 -187 135z
" />
    <glyph glyph-name="Scaron" unicode="&#x160;" horiz-adv-x="1406" 
d="M1128 1884l-225 -332h-397l-225 332h266l164 -162l163 162h254zM57 453l369 47q37 -234 291 -234q235 0 235 131q0 64 -48.5 98t-184.5 54l-178 24q-443 61 -443 420q0 209 165 335t439 126t420 -108.5t178 -333.5l-368 -47q-22 109 -77 155.5t-163 46.5q-105 0 -158 -35
t-53 -96q0 -60 47 -92.5t170 -50.5l170 -25q243 -35 355 -138t112 -292q0 -217 -166 -337.5t-462 -120.5q-303 0 -460.5 114.5t-189.5 358.5z" />
    <glyph glyph-name="scaron" unicode="&#x161;" horiz-adv-x="1167" 
d="M1008 1577l-226 -332h-397l-225 332h266l164 -162l164 162h254zM571 897q-75 0 -117 -23.5t-42 -64.5q0 -39 28 -59t95 -27l163 -21q205 -25 306.5 -107t101.5 -233q0 -175 -135 -278.5t-377 -103.5q-256 0 -380.5 86t-160.5 278l322 41q27 -156 209 -156
q89 0 132.5 25.5t43.5 67.5q0 44 -30.5 64.5t-104.5 29.5l-170 20q-184 22 -280.5 108t-96.5 230q0 167 132.5 270t356.5 103q453 0 512 -344l-321 -41q-24 135 -187 135z" />
    <glyph glyph-name="uni0162" unicode="&#x162;" horiz-adv-x="1337" 
d="M475 0v1126h-424v308h1235v-308h-432v-1126h-379zM342 -410l109 293h419l-262 -293h-266z" />
    <glyph glyph-name="uni0163" unicode="&#x163;" horiz-adv-x="903" 
d="M193 379v471h-173v276h68q44 0 68.5 2t46.5 13.5t32 26.5t18.5 50t12 74.5t6.5 110.5h279v-277h283v-276h-283v-404q0 -107 36 -143.5t126 -36.5q62 0 139 15l-8 -277q-111 -24 -238 -24q-208 0 -310.5 97t-102.5 302zM164 -410l108 293h420l-262 -293h-266z" />
    <glyph glyph-name="Tcaron" unicode="&#x164;" horiz-adv-x="1337" 
d="M1094 1884l-226 -332h-397l-225 332h266l164 -162l164 162h254zM475 0v1126h-424v308h1235v-308h-432v-1126h-379z" />
    <glyph glyph-name="tcaron" unicode="&#x165;" horiz-adv-x="903" 
d="M651 1225v454h389l-143 -454h-246zM193 379v471h-173v276h68q44 0 68.5 2t46.5 13.5t32 26.5t18.5 50t12 74.5t6.5 110.5h279v-277h283v-276h-283v-404q0 -107 36 -143.5t126 -36.5q62 0 139 15l-8 -277q-111 -24 -238 -24q-208 0 -310.5 97t-102.5 302z" />
    <glyph glyph-name="Tbar" unicode="&#x166;" horiz-adv-x="1337" 
d="M475 0v569h-246v164h246v393h-424v308h1235v-308h-432v-393h246v-164h-246v-569h-379z" />
    <glyph glyph-name="tbar" unicode="&#x167;" horiz-adv-x="903" 
d="M193 379v100h-152v164h152v207h-173v276h68q44 0 68.5 2t46.5 13.5t32 26.5t18.5 50t12 74.5t6.5 110.5h279v-277h283v-276h-283v-207h242v-164h-242v-33q0 -107 36 -143.5t126 -36.5q62 0 139 15l-8 -277q-111 -24 -238 -24q-208 0 -310.5 97t-102.5 302z" />
    <glyph glyph-name="Utilde" unicode="&#x168;" horiz-adv-x="1572" 
d="M1151 1884q28 -344 -207 -344q-48 0 -88 18t-62 39.5t-49.5 39.5t-54.5 18q-69 0 -59 -103h-225q-26 357 219 357q47 0 87 -20t62 -43.5t47.5 -43.5t48.5 -20q37 0 49 25t7 77h225zM1425 567q0 -277 -169 -432t-470 -155t-470 155t-169 432v867h379v-879q0 -130 67 -199
t193 -69t193.5 69t67.5 199v879h378v-867z" />
    <glyph glyph-name="utilde" unicode="&#x169;" horiz-adv-x="1349" 
d="M1038 1577q28 -344 -207 -344q-48 0 -88 18t-61.5 39.5t-49 39.5t-54.5 18q-70 0 -60 -103h-225q-26 357 219 357q47 0 87 -20t62 -43.5t48 -43.5t49 -20q37 0 48.5 24.5t6.5 77.5h225zM850 539v587h356v-1126h-311l-29 199q-58 -104 -147.5 -161.5t-200.5 -57.5
q-182 0 -283.5 107.5t-101.5 299.5v739h356v-684q0 -75 37.5 -114t106.5 -39q102 0 159.5 66t57.5 184z" />
    <glyph glyph-name="Umacron" unicode="&#x16a;" horiz-adv-x="1572" 
d="M459 1552v248h655v-248h-655zM1425 567q0 -277 -169 -432t-470 -155t-470 155t-169 432v867h379v-879q0 -130 67 -199t193 -69t193.5 69t67.5 199v879h378v-867z" />
    <glyph glyph-name="umacron" unicode="&#x16b;" horiz-adv-x="1349" 
d="M346 1245v248h655v-248h-655zM850 539v587h356v-1126h-311l-29 199q-58 -104 -147.5 -161.5t-200.5 -57.5q-182 0 -283.5 107.5t-101.5 299.5v739h356v-684q0 -75 37.5 -114t106.5 -39q102 0 159.5 66t57.5 184z" />
    <glyph glyph-name="Ubreve" unicode="&#x16c;" horiz-adv-x="1572" 
d="M899 1884h264q0 -352 -375 -352q-378 0 -378 352h264q0 -81 27 -113t87 -32q59 0 85 32t26 113zM1425 567q0 -277 -169 -432t-470 -155t-470 155t-169 432v867h379v-879q0 -130 67 -199t193 -69t193.5 69t67.5 199v879h378v-867z" />
    <glyph glyph-name="ubreve" unicode="&#x16d;" horiz-adv-x="1349" 
d="M786 1577h265q0 -352 -375 -352q-379 0 -379 352h264q0 -81 27 -113t88 -32q59 0 84.5 32t25.5 113zM850 539v587h356v-1126h-311l-29 199q-58 -104 -147.5 -161.5t-200.5 -57.5q-182 0 -283.5 107.5t-101.5 299.5v739h356v-684q0 -75 37.5 -114t106.5 -39
q102 0 159.5 66t57.5 184z" />
    <glyph glyph-name="Uring" unicode="&#x16e;" horiz-adv-x="1572" 
d="M788 1524q-131 0 -209.5 69.5t-78.5 184.5q0 114 78.5 182t209.5 68q129 0 207 -68t78 -182q0 -115 -78 -184.5t-207 -69.5zM788 1688q42 0 66.5 24t24.5 66q0 40 -24 63t-67 23q-44 0 -69 -23t-25 -63q0 -42 25 -66t69 -24zM1425 567q0 -277 -169 -432t-470 -155
t-470 155t-169 432v867h379v-879q0 -130 67 -199t193 -69t193.5 69t67.5 199v879h378v-867z" />
    <glyph glyph-name="uring" unicode="&#x16f;" horiz-adv-x="1349" 
d="M676 1217q-131 0 -210 69t-79 184q0 114 79 182t210 68q129 0 207 -68t78 -182q0 -115 -78 -184t-207 -69zM676 1380q42 0 66 24t24 66q0 40 -24 63t-66 23q-44 0 -69 -23t-25 -63q0 -42 25 -66t69 -24zM850 539v587h356v-1126h-311l-29 199q-58 -104 -147.5 -161.5
t-200.5 -57.5q-182 0 -283.5 107.5t-101.5 299.5v739h356v-684q0 -75 37.5 -114t106.5 -39q102 0 159.5 66t57.5 184z" />
    <glyph glyph-name="Uhungarumlaut" unicode="&#x170;" horiz-adv-x="1572" 
d="M418 1552l82 332h368l-204 -332h-246zM848 1552l82 332h368l-204 -332h-246zM1425 567q0 -277 -169 -432t-470 -155t-470 155t-169 432v867h379v-879q0 -130 67 -199t193 -69t193.5 69t67.5 199v879h378v-867z" />
    <glyph glyph-name="uhungarumlaut" unicode="&#x171;" horiz-adv-x="1349" 
d="M305 1245l82 332h369l-205 -332h-246zM735 1245l82 332h369l-205 -332h-246zM850 539v587h356v-1126h-311l-29 199q-58 -104 -147.5 -161.5t-200.5 -57.5q-182 0 -283.5 107.5t-101.5 299.5v739h356v-684q0 -75 37.5 -114t106.5 -39q102 0 159.5 66t57.5 184z" />
    <glyph glyph-name="Uogonek" unicode="&#x172;" horiz-adv-x="1572" 
d="M879 -430q-147 0 -224 56.5t-77 162.5q0 122 96 197q-250 28 -388.5 179.5t-138.5 401.5v867h379v-879q0 -130 67 -199t193 -69t193.5 69t67.5 199v879h378v-867q0 -171 -67.5 -298t-196.5 -201q-62 -35 -149.5 -67.5t-127.5 -54.5t-40 -57q0 -53 94 -53q63 0 143 25
l-8 -262q-91 -29 -194 -29z" />
    <glyph glyph-name="uogonek" unicode="&#x173;" horiz-adv-x="1349" 
d="M702 -211q0 165 187 250l-23 160q-58 -104 -147.5 -161.5t-200.5 -57.5q-182 0 -283.5 107.5t-101.5 299.5v739h356v-684q0 -75 37.5 -114t106.5 -39q102 0 159.5 66t57.5 184v587h356v-1126q-237 -24 -237 -111q0 -53 94 -53q63 0 143 25l-8 -262q-91 -29 -194 -29
q-147 0 -224.5 56.5t-77.5 162.5z" />
    <glyph glyph-name="Wcircumflex" unicode="&#x174;" horiz-adv-x="2197" 
d="M1257 1552l-163 162l-162 -162h-256l225 332h397l226 -332h-267zM438 0l-428 1434h400l231 -953l285 953h344l291 -971l233 971h393l-428 -1434h-370l-297 934l-297 -934h-357z" />
    <glyph glyph-name="wcircumflex" unicode="&#x175;" horiz-adv-x="1742" 
d="M1030 1245l-164 162l-161 -162h-256l225 332h397l225 -332h-266zM373 0l-363 1126h348l181 -661l200 661h260l226 -659l178 659h330l-361 -1126h-266l-238 680l-227 -680h-268z" />
    <glyph glyph-name="Ycircumflex" unicode="&#x176;" horiz-adv-x="1388" 
d="M852 1552l-162 162l-164 -162h-256l226 332h397l225 -332h-266zM496 0v567l-496 867h428l272 -551l273 551h416l-515 -877v-557h-378z" />
    <glyph glyph-name="ycircumflex" unicode="&#x177;" horiz-adv-x="1175" 
d="M745 1245l-161 162l-164 -162h-256l225 332h397l226 -332h-267zM815 1126h350l-409 -1110q-89 -244 -198.5 -345t-281.5 -101q-100 0 -165 24l-13 271q39 -8 88 -8q101 0 152 42.5t100 174.5l-428 1052h371l229 -655z" />
    <glyph glyph-name="Ydieresis" unicode="&#x178;" horiz-adv-x="1388" 
d="M754 1552v332h336v-332h-336zM299 1552v332h336v-332h-336zM496 0v567l-496 867h428l272 -551l273 551h416l-515 -877v-557h-378z" />
    <glyph glyph-name="Zacute" unicode="&#x179;" horiz-adv-x="1288" 
d="M496 1552l122 332h441l-297 -332h-266zM78 0v307l688 819h-688v308h1132v-308l-688 -819h688v-307h-1132z" />
    <glyph glyph-name="zacute" unicode="&#x17a;" horiz-adv-x="1083" 
d="M412 1245l123 332h440l-297 -332h-266zM78 0v276l534 574h-534v276h932v-276l-535 -574h535v-276h-932z" />
    <glyph glyph-name="Zdotaccent" unicode="&#x17b;" horiz-adv-x="1288" 
d="M477 1552v332h336v-332h-336zM78 0v307l688 819h-688v308h1132v-308l-688 -819h688v-307h-1132z" />
    <glyph glyph-name="zdotaccent" unicode="&#x17c;" horiz-adv-x="1083" 
d="M373 1245v332h336v-332h-336zM78 0v276l534 574h-534v276h932v-276l-535 -574h535v-276h-932z" />
    <glyph glyph-name="Zcaron" unicode="&#x17d;" horiz-adv-x="1288" 
d="M1069 1884l-225 -332h-398l-225 332h266l164 -162l164 162h254zM78 0v307l688 819h-688v308h1132v-308l-688 -819h688v-307h-1132z" />
    <glyph glyph-name="zcaron" unicode="&#x17e;" horiz-adv-x="1083" 
d="M965 1577l-226 -332h-397l-225 332h266l164 -162l164 162h254zM78 0v276l534 574h-534v276h932v-276l-535 -574h535v-276h-932z" />
    <glyph glyph-name="uni0191" unicode="&#x191;" horiz-adv-x="1282" 
d="M164 1434h1036v-308h-657v-309h553v-307h-553v-430q0 -250 -117 -380t-344 -130q-104 0 -221 20l-13 318q48 -10 127 -10q106 0 147.5 39.5t41.5 142.5v1354z" />
    <glyph glyph-name="uni0192" unicode="&#x192;" horiz-adv-x="839" 
d="M195 0v850h-175v276h175q4 212 117.5 321t328.5 109q90 0 184 -20l-12 -281q-55 15 -113 15q-76 0 -112.5 -33.5t-36.5 -110.5h268v-276h-268v-832q0 -246 -100 -347t-320 -101q-89 0 -172 18l-8 275q47 -8 100 -8q75 0 109.5 34.5t34.5 110.5z" />
    <glyph glyph-name="uni0218" unicode="&#x218;" horiz-adv-x="1406" 
d="M57 453l369 47q37 -234 291 -234q235 0 235 131q0 64 -48.5 98t-184.5 54l-178 24q-443 61 -443 420q0 209 165 335t439 126t420 -108.5t178 -333.5l-368 -47q-22 109 -77 155.5t-163 46.5q-105 0 -158 -35t-53 -96q0 -60 47 -92.5t170 -50.5l170 -25q243 -35 355 -138
t112 -292q0 -217 -166 -337.5t-462 -120.5q-303 0 -460.5 114.5t-189.5 358.5zM377 -410l108 293h420l-262 -293h-266z" />
    <glyph glyph-name="uni0219" unicode="&#x219;" horiz-adv-x="1167" 
d="M571 897q-75 0 -117 -23.5t-42 -64.5q0 -39 28 -59t95 -27l163 -21q205 -25 306.5 -107t101.5 -233q0 -175 -135 -278.5t-377 -103.5q-256 0 -380.5 86t-160.5 278l322 41q27 -156 209 -156q89 0 132.5 25.5t43.5 67.5q0 44 -30.5 64.5t-104.5 29.5l-170 20
q-184 22 -280.5 108t-96.5 230q0 167 132.5 270t356.5 103q453 0 512 -344l-321 -41q-24 135 -187 135zM276 -410l109 293h420l-262 -293h-267z" />
    <glyph glyph-name="uni021A" unicode="&#x21a;" horiz-adv-x="1337" 
d="M475 0v1126h-424v308h1235v-308h-432v-1126h-379zM342 -410l109 293h419l-262 -293h-266z" />
    <glyph glyph-name="uni021B" unicode="&#x21b;" horiz-adv-x="903" 
d="M193 379v471h-173v276h68q44 0 68.5 2t46.5 13.5t32 26.5t18.5 50t12 74.5t6.5 110.5h279v-277h283v-276h-283v-404q0 -107 36 -143.5t126 -36.5q62 0 139 15l-8 -277q-111 -24 -238 -24q-208 0 -310.5 97t-102.5 302zM164 -410l108 293h420l-262 -293h-266z" />
    <glyph glyph-name="dotlessj" unicode="&#x237;" horiz-adv-x="643" 
d="M143 0v1126h357v-1108q0 -246 -100 -347t-320 -101q-89 0 -172 18l-8 275q47 -8 100 -8q75 0 109 34.5t34 110.5z" />
    <glyph glyph-name="circumflex" unicode="&#x2c6;" 
d="M670 1245l-162 162l-164 -162h-256l225 332h398l225 -332h-266z" />
    <glyph glyph-name="caron" unicode="&#x2c7;" 
d="M936 1577l-225 -332h-398l-225 332h266l164 -162l164 162h254z" />
    <glyph glyph-name="breve" unicode="&#x2d8;" 
d="M625 1577h264q0 -352 -375 -352q-379 0 -379 352h264q0 -81 27 -113t88 -32q59 0 85 32t26 113z" />
    <glyph glyph-name="dotaccent" unicode="&#x2d9;" 
d="M344 1245v332h336v-332h-336z" />
    <glyph glyph-name="ring" unicode="&#x2da;" 
d="M514 1217q-131 0 -210 69t-79 184q0 114 79 182t210 68q129 0 207 -68t78 -182q0 -115 -78 -184t-207 -69zM514 1380q42 0 66 24t24 66q0 40 -24 63t-66 23q-44 0 -69 -23t-25 -63q0 -42 25 -66t69 -24z" />
    <glyph glyph-name="ogonek" unicode="&#x2db;" 
d="M502 -211q0 125 100 199.5t301 115.5l103 -104q-238 -24 -238 -111q0 -53 94 -53q64 0 144 25l-9 -262q-91 -29 -194 -29q-147 0 -224 56.5t-77 162.5z" />
    <glyph glyph-name="tilde" unicode="&#x2dc;" 
d="M877 1577q28 -344 -207 -344q-48 0 -88 18t-62 39.5t-49.5 39.5t-54.5 18q-70 0 -60 -103h-225q-26 357 219 357q47 0 87 -20t62 -43.5t48 -43.5t49 -20q37 0 48.5 24.5t6.5 77.5h226z" />
    <glyph glyph-name="hungarumlaut" unicode="&#x2dd;" 
d="M143 1245l82 332h369l-205 -332h-246zM573 1245l82 332h369l-205 -332h-246z" />
    <glyph glyph-name="pi" unicode="&#x3c0;" horiz-adv-x="1456" 
d="M31 850v276h1394v-276h-153v-850h-357v850h-378v-850h-357v850h-149z" />
    <glyph glyph-name="Wgrave" unicode="&#x1e80;" horiz-adv-x="2197" 
d="M1229 1552h-266l-297 332h440zM438 0l-428 1434h400l231 -953l285 953h344l291 -971l233 971h393l-428 -1434h-370l-297 934l-297 -934h-357z" />
    <glyph glyph-name="wgrave" unicode="&#x1e81;" horiz-adv-x="1742" 
d="M1001 1245h-266l-297 332h441zM373 0l-363 1126h348l181 -661l200 661h260l226 -659l178 659h330l-361 -1126h-266l-238 680l-227 -680h-268z" />
    <glyph glyph-name="Wacute" unicode="&#x1e82;" horiz-adv-x="2197" 
d="M971 1552l123 332h440l-297 -332h-266zM438 0l-428 1434h400l231 -953l285 953h344l291 -971l233 971h393l-428 -1434h-370l-297 934l-297 -934h-357z" />
    <glyph glyph-name="wacute" unicode="&#x1e83;" horiz-adv-x="1742" 
d="M743 1245l123 332h441l-297 -332h-267zM373 0l-363 1126h348l181 -661l200 661h260l226 -659l178 659h330l-361 -1126h-266l-238 680l-227 -680h-268z" />
    <glyph glyph-name="Wdieresis" unicode="&#x1e84;" horiz-adv-x="2197" 
d="M1159 1552v332h336v-332h-336zM705 1552v332h335v-332h-335zM438 0l-428 1434h400l231 -953l285 953h344l291 -971l233 971h393l-428 -1434h-370l-297 934l-297 -934h-357z" />
    <glyph glyph-name="wdieresis" unicode="&#x1e85;" horiz-adv-x="1742" 
d="M932 1245v332h336v-332h-336zM477 1245v332h336v-332h-336zM373 0l-363 1126h348l181 -661l200 661h260l226 -659l178 659h330l-361 -1126h-266l-238 680l-227 -680h-268z" />
    <glyph glyph-name="uni1E9E" unicode="&#x1e9e;" horiz-adv-x="1644" 
d="M143 0v809q0 148 42 264.5t127 202.5t223 132t321 46q283 0 530 -43v-301l-233 -268l33 -6q206 -42 301.5 -144t95.5 -268q0 -205 -148 -324.5t-395 -119.5q-216 0 -385 59l72 295q139 -51 262 -51q110 0 165.5 38t55.5 107q0 66 -50.5 94.5t-168.5 44.5l-225 31v213
l270 322q-66 6 -190 6q-166 0 -245 -79t-79 -235v-825h-379z" />
    <glyph glyph-name="Ygrave" unicode="&#x1ef2;" horiz-adv-x="1388" 
d="M823 1552h-266l-297 332h440zM496 0v567l-496 867h428l272 -551l273 551h416l-515 -877v-557h-378z" />
    <glyph glyph-name="ygrave" unicode="&#x1ef3;" horiz-adv-x="1175" 
d="M717 1245h-266l-297 332h440zM815 1126h350l-409 -1110q-89 -244 -198.5 -345t-281.5 -101q-100 0 -165 24l-13 271q39 -8 88 -8q101 0 152 42.5t100 174.5l-428 1052h371l229 -655z" />
    <glyph glyph-name="endash" unicode="&#x2013;" 
d="M92 436v336h840v-336h-840z" />
    <glyph glyph-name="emdash" unicode="&#x2014;" horiz-adv-x="2048" 
d="M92 436v336h1864v-336h-1864z" />
    <glyph glyph-name="quoteleft" unicode="&#x2018;" horiz-adv-x="643" 
d="M496 770h-357v281q0 200 81 289.5t267 93.5l17 -193q-82 0 -116 -29t-38 -106h146v-336z" />
    <glyph glyph-name="quoteright" unicode="&#x2019;" horiz-adv-x="643" 
d="M147 1434h357v-281q0 -200 -81 -289.5t-267 -93.5l-17 193q82 0 116 29t38 106h-146v336z" />
    <glyph glyph-name="quotesinglbase" unicode="&#x201a;" horiz-adv-x="643" 
d="M143 336h357v-281q0 -200 -81 -289.5t-267 -93.5l-17 193q82 0 116 29t38 106h-146v336z" />
    <glyph glyph-name="quotedblleft" unicode="&#x201c;" horiz-adv-x="1142" 
d="M139 770v281q0 200 81 289.5t267 93.5l17 -193q-82 0 -116 -29t-38 -106h146v-336h-357zM639 770v281q0 200 81 289.5t267 93.5l17 -193q-82 0 -116 -29t-38 -106h145v-336h-356z" />
    <glyph glyph-name="quotedblright" unicode="&#x201d;" horiz-adv-x="1142" 
d="M147 1434h357v-281q0 -200 -81 -289.5t-267 -93.5l-17 193q82 0 116 29t38 106h-146v336zM647 1434h357v-281q0 -200 -81.5 -289.5t-267.5 -93.5l-16 193q82 0 116 29t38 106h-146v336z" />
    <glyph glyph-name="quotedblbase" unicode="&#x201e;" horiz-adv-x="1142" 
d="M143 336h357v-281q0 -200 -81 -289.5t-267 -93.5l-17 193q82 0 116 29t38 106h-146v336zM643 336h356v-281q0 -200 -81 -289.5t-267 -93.5l-16 193q82 0 115.5 29t37.5 106h-145v336z" />
    <glyph glyph-name="dagger" unicode="&#x2020;" horiz-adv-x="1212" 
d="M1130 791h-346v-1098h-356v1098h-346v335h346v410h356v-410h346v-335z" />
    <glyph glyph-name="daggerdbl" unicode="&#x2021;" horiz-adv-x="1273" 
d="M113 438h346v353h-346v335h346v410h356v-410h346v-335h-346v-353h346v-336h-346v-409h-356v409h-346v336z" />
    <glyph glyph-name="bullet" unicode="&#x2022;" horiz-adv-x="724" 
d="M143 432v459h439v-459h-439z" />
    <glyph glyph-name="ellipsis" unicode="&#x2026;" horiz-adv-x="1835" 
d="M143 0v336h357v-336h-357zM739 0v336h357v-336h-357zM1335 0v336h357v-336h-357z" />
    <glyph glyph-name="perthousand" unicode="&#x2030;" horiz-adv-x="2344" 
d="M440 709q-172 0 -280.5 103.5t-108.5 268.5q0 164 108.5 268.5t280.5 104.5q171 0 279 -104t108 -269q0 -166 -107.5 -269t-279.5 -103zM473 0h-338l1219 1434h338zM440 950q60 0 94.5 35.5t34.5 95.5q0 61 -34.5 96t-94.5 35t-94.5 -35t-34.5 -96q0 -60 34.5 -95.5
t94.5 -35.5zM1389 -20q-172 0 -281 103.5t-109 268.5q0 164 109 268.5t281 104.5q159 0 258 -96q104 96 260 96q171 0 279 -104t108 -269q0 -166 -107.5 -269t-279.5 -103q-156 0 -260 96q-99 -96 -258 -96zM1389 221q60 0 94.5 35.5t34.5 95.5q0 61 -34.5 96t-94.5 35
t-94.5 -35t-34.5 -96q0 -60 34.5 -95.5t94.5 -35.5zM1907 221q60 0 94.5 35.5t34.5 95.5q0 61 -34.5 96t-94.5 35t-94.5 -35t-34.5 -96q0 -60 34.5 -95.5t94.5 -35.5z" />
    <glyph glyph-name="guilsinglleft" unicode="&#x2039;" horiz-adv-x="772" 
d="M670 430v-369l-598 306v393l598 305v-358l-346 -138z" />
    <glyph glyph-name="guilsinglright" unicode="&#x203a;" horiz-adv-x="772" 
d="M700 367l-598 -306v359l347 139l-347 137v369l598 -305v-393z" />
    <glyph glyph-name="fraction" unicode="&#x2044;" horiz-adv-x="1544" 
d="M307 0h-307l1237 1434h307z" />
    <glyph glyph-name="zerosuperior" unicode="&#x2070;" horiz-adv-x="868" 
d="M434 928q-178 0 -274.5 99t-96.5 267q0 169 96.5 268t274.5 99t274.5 -99.5t96.5 -267.5q0 -169 -96.5 -267.5t-274.5 -98.5zM434 1126q113 0 113 168t-113 168q-112 0 -112 -168t112 -168z" />
    <glyph glyph-name="foursuperior" unicode="&#x2074;" horiz-adv-x="821" 
d="M680 936h-231v108h-398v156l402 453h227v-428h90v-181h-90v-108zM289 1225h160v186z" />
    <glyph glyph-name="fivesuperior" unicode="&#x2075;" horiz-adv-x="782" 
d="M385 928q-136 0 -223 50t-107 146l219 39q23 -61 115 -61q105 0 105 76q0 31 -26 50t-79 19q-72 0 -106 -39l-197 23l29 422h555v-183h-359l-4 -100q56 33 139 33q134 0 205.5 -58t71.5 -163q0 -122 -90 -188t-248 -66z" />
    <glyph glyph-name="sixsuperior" unicode="&#x2076;" horiz-adv-x="821" 
d="M63 1282q0 182 103.5 280.5t275.5 98.5q105 0 185.5 -38t124.5 -110l-215 -83q-36 51 -101 51q-110 0 -127 -135q65 49 172 49q141 0 212 -60.5t71 -160.5t-91 -173t-247 -73q-178 0 -270.5 89t-92.5 265zM422 1104q104 0 104 67q0 68 -104 68q-50 0 -77.5 -18t-27.5 -50
t27.5 -49.5t77.5 -17.5z" />
    <glyph glyph-name="sevensuperior" unicode="&#x2077;" horiz-adv-x="708" 
d="M657 1509l-254 -573h-251l247 522h-350v195h608v-144z" />
    <glyph glyph-name="eightsuperior" unicode="&#x2078;" horiz-adv-x="851" 
d="M426 928q-185 0 -276 57t-91 156q0 111 129 168q-102 51 -102 145q0 96 87 151.5t253 55.5t253 -55.5t87 -151.5q0 -97 -104 -147q131 -55 131 -166q0 -100 -90 -156.5t-277 -56.5zM426 1497q-98 0 -98 -55q0 -56 98 -56t98 56q0 29 -23.5 42t-74.5 13zM426 1092
q62 0 87.5 15.5t25.5 49.5q0 29 -27 47.5t-86 18.5q-61 0 -87 -16.5t-26 -49.5q0 -65 113 -65z" />
    <glyph glyph-name="ninesuperior" unicode="&#x2079;" horiz-adv-x="821" 
d="M758 1307q0 -182 -103.5 -280.5t-275.5 -98.5q-105 0 -185 37.5t-124 109.5l215 84q36 -51 100 -51q110 0 127 135q-65 -49 -172 -49q-141 0 -212 60.5t-71 160.5t91 173t247 73q178 0 270.5 -89t92.5 -265zM399 1485q-104 0 -104 -68q0 -67 104 -67q50 0 77.5 17.5
t27.5 49.5t-27.5 50t-77.5 18z" />
    <glyph glyph-name="zeroinferior" unicode="&#x2080;" horiz-adv-x="868" 
d="M434 -227q-178 0 -274.5 99t-96.5 267q0 169 96.5 268t274.5 99t274.5 -99.5t96.5 -267.5q0 -169 -96.5 -267.5t-274.5 -98.5zM434 -29q113 0 113 168t-113 168q-112 0 -112 -168t112 -168z" />
    <glyph glyph-name="oneinferior" unicode="&#x2081;" horiz-adv-x="698" 
d="M70 -219v194h176v324l-160 -33v193l184 39h219v-523h158v-194h-577z" />
    <glyph glyph-name="twoinferior" unicode="&#x2082;" horiz-adv-x="823" 
d="M76 -31l317 172q65 35 86 58.5t21 52.5q0 32 -23.5 51t-64.5 19q-51 0 -78 -25.5t-33 -79.5l-242 31q11 120 103 189t244 69q163 0 253.5 -68t90.5 -178q0 -83 -55 -144.5t-203 -129.5l-23 -11h279v-194h-672v188z" />
    <glyph glyph-name="threeinferior" unicode="&#x2083;" horiz-adv-x="811" 
d="M745 -8q0 -98 -91.5 -158.5t-260.5 -60.5q-155 0 -246.5 57t-95.5 168l232 27q3 -38 29 -55t79 -17q107 0 107 57q0 43 -74 43h-102v178h106q66 0 66 43q0 52 -97 52q-108 0 -114 -70l-228 27q8 102 99 162.5t245 60.5q158 0 247 -54t89 -147q0 -109 -114 -155
q124 -41 124 -158z" />
    <glyph glyph-name="fourinferior" unicode="&#x2084;" horiz-adv-x="821" 
d="M680 -219h-231v108h-398v156l402 453h227v-428h90v-181h-90v-108zM289 70h160v186z" />
    <glyph glyph-name="fiveinferior" unicode="&#x2085;" horiz-adv-x="782" 
d="M385 -227q-136 0 -223 50t-107 146l219 39q23 -61 115 -61q105 0 105 76q0 31 -26 50t-79 19q-72 0 -106 -39l-197 23l29 422h555v-183h-359l-4 -100q56 33 139 33q134 0 205.5 -58t71.5 -163q0 -122 -90 -188t-248 -66z" />
    <glyph glyph-name="sixinferior" unicode="&#x2086;" horiz-adv-x="821" 
d="M63 127q0 182 103.5 280.5t275.5 98.5q105 0 185.5 -38t124.5 -110l-215 -84q-36 52 -101 52q-110 0 -127 -136q66 50 172 50q140 0 211.5 -61t71.5 -161t-91 -172.5t-247 -72.5q-178 0 -270.5 89t-92.5 265zM422 -51q104 0 104 67q0 68 -104 68q-50 0 -77.5 -18
t-27.5 -50t27.5 -49.5t77.5 -17.5z" />
    <glyph glyph-name="seveninferior" unicode="&#x2087;" horiz-adv-x="708" 
d="M657 354l-254 -573h-251l247 522h-350v195h608v-144z" />
    <glyph glyph-name="eightinferior" unicode="&#x2088;" horiz-adv-x="851" 
d="M426 -227q-185 0 -276 57t-91 156q0 111 129 168q-102 51 -102 145q0 96 87 151.5t253 55.5t253 -55.5t87 -151.5q0 -97 -104 -147q131 -55 131 -166q0 -100 -90 -156.5t-277 -56.5zM426 342q-98 0 -98 -55q0 -56 98 -56t98 56q0 29 -23.5 42t-74.5 13zM426 -63
q62 0 87.5 15.5t25.5 49.5q0 29 -27 47.5t-86 18.5q-61 0 -87 -16.5t-26 -49.5q0 -65 113 -65z" />
    <glyph glyph-name="nineinferior" unicode="&#x2089;" horiz-adv-x="821" 
d="M758 152q0 -182 -103.5 -280.5t-275.5 -98.5q-105 0 -185 37.5t-124 109.5l215 84q36 -51 100 -51q110 0 127 135q-65 -49 -172 -49q-141 0 -212 60.5t-71 160.5t91 173t247 73q178 0 270.5 -89t92.5 -265zM399 330q-104 0 -104 -68q0 -67 104 -67q50 0 77.5 17.5
t27.5 49.5t-27.5 50t-77.5 18z" />
    <glyph glyph-name="colonmonetary" unicode="&#x20a1;" horiz-adv-x="1540" 
d="M410 -164l43 215q-179 84 -275 257.5t-96 408.5q0 310 178 511t469 224l29 145h153l-28 -147q46 -4 73 -8l31 155h154l-39 -196q146 -56 242.5 -172.5t134.5 -286.5l-383 -74q-17 99 -66 166l-147 -737q180 45 215 276l379 -71q-45 -249 -217.5 -382.5t-438.5 -139.5
l-28 -144h-154l31 152q-47 7 -74 14l-33 -166h-153zM657 315q38 -17 72 -22l166 840q-31 11 -74 14zM471 717q0 -168 57 -279l136 682q-94 -40 -143.5 -142.5t-49.5 -260.5z" />
    <glyph glyph-name="uni20A9" unicode="&#x20a9;" horiz-adv-x="2217" 
d="M449 0l-189 631h-178v164h129l-47 159h-144v164h95l-95 316h400l76 -316h346l94 316h344l94 -316h355l75 316h394l-95 -316h95v-164h-144l-47 -159h129v-164h-178l-189 -631h-370l-297 934l-297 -934h-356zM1470 795h181l39 159h-267zM575 795h170l48 159h-256zM1520 631
l51 -168l39 168h-90zM614 631l37 -150l45 150h-82z" />
    <glyph glyph-name="uni20AA" unicode="&#x20aa;" horiz-adv-x="2033" 
d="M1124 797q0 157 -182 157h-432v-954h-356v1290h759q198 0 286.5 -82t88.5 -268v-467h-164v324zM1890 535q0 -154 -26 -254t-90.5 -164t-165 -90.5t-256.5 -26.5h-596v797h164v-461h391q117 0 170 47.5t53 151.5v735h356v-735z" />
    <glyph glyph-name="dong" unicode="&#x20ab;" horiz-adv-x="1427" 
d="M578 -20q-224 0 -360 154t-136 409t136 409t360 154q98 0 183 -44.5t146 -125.5v297h-239v164h239v139h357v-139h141v-164h-141v-1233h-312l-24 178q-63 -94 -153 -146t-197 -52zM676 272q109 0 170 71.5t61 199.5q0 127 -61 198.5t-170 71.5q-108 0 -169 -71.5
t-61 -198.5t61.5 -199t168.5 -72zM160 -307v164h1081v-164h-1081z" />
    <glyph glyph-name="Euro" unicode="&#x20ac;" horiz-adv-x="1673" 
d="M41 473v164h176q-2 27 -2 80q0 26 4 80h-178v164h207q67 228 248.5 360.5t435.5 132.5q270 0 447 -131t233 -381l-383 -74q-26 136 -102 207.5t-195 71.5q-210 0 -287 -186h346l-14 -164h-369q-4 -50 -4 -80t4 -80h357l-15 -164h-305q77 -186 287 -186q125 0 201 72.5
t98 213.5l379 -71q-47 -254 -225.5 -388t-452.5 -134q-270 0 -447.5 131.5t-238.5 361.5h-205z" />
    <glyph glyph-name="uni20AD" unicode="&#x20ad;" horiz-adv-x="1540" 
d="M205 0v700h-205v185h205v549h368v-549l494 549h440l-508 -549h349v-185h-357l559 -700h-460l-420 526l-97 -102v-424h-368z" />
    <glyph glyph-name="uni20AE" unicode="&#x20ae;" horiz-adv-x="1337" 
d="M199 285v164l276 49v159l-276 -49v164l276 49v305h-424v308h1235v-308h-432v-239l276 49v-164l-276 -49v-160l276 49v-163l-276 -50v-399h-379v334z" />
    <glyph glyph-name="uni20B1" unicode="&#x20b1;" horiz-adv-x="1603" 
d="M205 0v586h-205v164h205v118h-205v164h205v402h573q222 0 376.5 -106.5t213.5 -295.5h236v-164h-207q2 -18 2 -55q0 -43 -2 -63h207v-164h-242q-62 -180 -221.5 -280.5t-386.5 -100.5h-170v-205h-379zM694 1135h-110v-103h366q-80 103 -256 103zM1012 813q0 39 -2 55
h-426v-118h424q4 40 4 63zM694 504q158 0 240 82h-350v-82h110z" />
    <glyph glyph-name="uni20B4" unicode="&#x20b4;" horiz-adv-x="1595" 
d="M51 487v164h260q52 61 145 97.5t246 58.5l29 4h-680v164h977v20q0 78 -51.5 125t-138.5 47q-104 0 -156 -26.5t-80 -93.5l-348 47q46 187 186 273.5t398 86.5q262 0 407.5 -121.5t145.5 -339.5v-18h153v-164h-248q-75 -114 -292 -160h540v-164h-983q-4 -28 -4 -49
q0 -76 66 -124t170 -48q117 0 177.5 35t88.5 117l348 -47q-43 -211 -185 -301t-429 -90q-289 0 -443.5 118t-154.5 340q0 33 2 49h-146z" />
    <glyph glyph-name="uni20B5" unicode="&#x20b5;" horiz-adv-x="1540" 
d="M82 717q0 302 169 501t449 230v149h185v-147q234 -20 388 -150t206 -358l-383 -74q-44 222 -211 269v-840q178 44 213 276l379 -71q-42 -233 -197 -365t-395 -153v-148h-185v148q-196 20 -336 117.5t-211 255t-71 360.5zM471 717q0 -173 58 -279.5t171 -138.5v836
q-113 -32 -171 -138.5t-58 -279.5z" />
    <glyph glyph-name="uni20B8" unicode="&#x20b8;" horiz-adv-x="1337" 
d="M51 1270v164h1235v-164h-1235zM475 0v797h-424v307h1235v-307h-432v-797h-379z" />
    <glyph glyph-name="uni20B9" unicode="&#x20b9;" horiz-adv-x="1269" 
d="M113 487v297h333q155 0 203 95h-536v163h536q-48 95 -203 95h-333v297h1116v-164h-311q100 -89 118 -228h193v-163h-199q-31 -152 -152.5 -244.5t-318.5 -112.5l522 -522h-485z" />
    <glyph glyph-name="uni20BA" unicode="&#x20ba;" horiz-adv-x="1470" 
d="M205 0v569l-205 -39v164l205 39v160l-205 -39v164l205 39v377h379v-306l282 54v-164l-282 -53v-160l282 53v-164l-282 -53v-334h225q126 0 182 61t80 236l359 -61q-41 -294 -187.5 -418.5t-433.5 -124.5h-604z" />
    <glyph glyph-name="uni20BC" unicode="&#x20bc;" horiz-adv-x="1708" 
d="M1024 205h-348v606q-164 -60 -164 -240v-571h-379v559q0 237 142 387.5t401 188.5v299h348v-299q262 -37 406.5 -187.5t144.5 -388.5v-559h-379v571q0 185 -172 244v-610z" />
    <glyph glyph-name="uni20BD" unicode="&#x20bd;" horiz-adv-x="1521" 
d="M61 170v164h205v129h-205v299h205v672h676q234 0 376 -135t142 -357q0 -217 -148 -348t-394 -131h-273v-129h395v-164h-395v-170h-379v170h-205zM858 1135h-213v-373h213q104 0 159.5 46.5t55.5 133.5q0 94 -55.5 143.5t-159.5 49.5z" />
    <glyph glyph-name="uni2113" unicode="&#x2113;" horiz-adv-x="1273" 
d="M41 532l164 62v352q0 234 137.5 371t359.5 137q228 0 354 -109t126 -307q0 -110 -32.5 -192t-112 -154.5t-192.5 -133t-292 -132.5v-4q0 -87 41 -122.5t139 -35.5q138 0 305 64l-4 -289q-198 -59 -362 -59q-208 0 -320.5 78.5t-138.5 246.5l-172 -65v292zM553 987v-266
q90 41 150 81t92 80.5t44.5 78t12.5 83.5q0 62 -37.5 98t-105.5 36q-156 0 -156 -191z" />
    <glyph glyph-name="uni2116" unicode="&#x2116;" horiz-adv-x="2387" 
d="M2009 901q-143 0 -230 76.5t-87 202.5q0 125 87 199.5t230 74.5t230.5 -76t87.5 -202q0 -125 -87.5 -200t-230.5 -75zM164 0v1434h375l635 -945v945h337v-1434h-374l-635 942v-942h-338zM2009 1274q-49 0 -75.5 -24.5t-26.5 -69.5q0 -46 26.5 -72.5t75.5 -26.5t75.5 25
t26.5 70q0 46 -26.5 72t-75.5 26zM1714 631v180h590v-180h-590z" />
    <glyph glyph-name="trademark" unicode="&#x2122;" horiz-adv-x="1656" 
d="M242 717v532h-201v185h618v-185h-200v-532h-217zM754 717v717h219l174 -369l174 369h213v-717h-201v377l-112 -246h-156l-113 244v-375h-198z" />
    <glyph glyph-name="estimated" unicode="&#x212e;" horiz-adv-x="1617" 
d="M1546 625h-1194q-10 0 -10 -9v-360q0 -25 16 -41q88 -93 205 -145t248 -52q139 0 262 58.5t213 161.5h107q-102 -119 -255.5 -188.5t-328.5 -69.5q-150 0 -286.5 52.5t-235.5 141t-157 211.5t-58 258q0 181 98.5 333.5t268 241.5t370.5 89t370.5 -89t268 -241.5
t98.5 -333.5v-18zM1276 672v364q0 24 -19 43q-89 89 -204 139t-242 50q-129 0 -246 -52t-205 -143q-18 -18 -18 -45v-356q0 -10 10 -10h916q8 0 8 10z" />
    <glyph glyph-name="oneseventh" unicode="&#x2150;" horiz-adv-x="2111" 
d="M70 717v194h176v324l-160 -33v193l184 39h219v-523h158v-194h-577zM586 0h-307l1237 1434h307zM2060 573l-254 -573h-252l248 522h-350v195h608v-144z" />
    <glyph glyph-name="oneninth" unicode="&#x2151;" horiz-adv-x="2091" 
d="M70 717v194h176v324l-160 -33v193l184 39h219v-523h158v-194h-577zM586 0h-307l1237 1434h307zM2028 371q0 -182 -103.5 -280.5t-275.5 -98.5q-105 0 -185.5 38t-124.5 109l215 84q36 -51 101 -51q110 0 127 135q-65 -49 -172 -49q-141 0 -212 60.5t-71 160.5t91 173
t247 73q178 0 270.5 -89t92.5 -265zM1669 549q-104 0 -104 -68q0 -67 104 -67q50 0 77.5 17.5t27.5 49.5t-27.5 50t-77.5 18z" />
    <glyph glyph-name="onethird" unicode="&#x2153;" horiz-adv-x="2091" 
d="M70 717v194h176v324l-160 -33v193l184 39h219v-523h158v-194h-577zM586 0h-307l1237 1434h307zM2025 211q0 -98 -91.5 -158.5t-260.5 -60.5q-155 0 -246.5 57t-95.5 168l232 27q3 -38 29 -55t79 -17q107 0 107 57q0 43 -74 43h-102v179h106q66 0 66 43q0 51 -97 51
q-108 0 -114 -70l-228 27q8 102 99 162.5t245 60.5q158 0 247 -54t89 -147q0 -108 -114 -155q124 -41 124 -158z" />
    <glyph glyph-name="twothirds" unicode="&#x2154;" horiz-adv-x="2195" 
d="M76 905l317 172q65 35 86 58.5t21 52.5q0 32 -23.5 50.5t-64.5 18.5q-51 0 -78 -25t-33 -79l-242 31q11 120 103 189t244 69q163 0 253.5 -68t90.5 -178q0 -83 -55 -144.5t-203 -129.5l-23 -11h279v-194h-672v188zM690 0h-307l1237 1434h307zM2130 211
q0 -98 -91.5 -158.5t-260.5 -60.5q-155 0 -246.5 57t-95.5 168l231 27q3 -38 29.5 -55t79.5 -17q106 0 106 57q0 43 -74 43h-102v179h106q66 0 66 43q0 51 -96 51q-109 0 -115 -70l-227 27q8 102 99 162.5t245 60.5q158 0 247 -54t89 -147q0 -108 -115 -155
q125 -41 125 -158z" />
    <glyph glyph-name="onefifth" unicode="&#x2155;" horiz-adv-x="2123" 
d="M70 717v194h176v324l-160 -33v193l184 39h219v-523h158v-194h-577zM586 0h-307l1237 1434h307zM1726 -8q-136 0 -222.5 50t-106.5 146l219 39q23 -61 115 -61q104 0 104 76q0 31 -25.5 50t-78.5 19q-73 0 -107 -39l-197 23l29 422h555v-182h-358l-4 -101q56 33 139 33
q134 0 205 -58t71 -163q0 -122 -90 -188t-248 -66z" />
    <glyph glyph-name="twofifths" unicode="&#x2156;" horiz-adv-x="2228" 
d="M76 905l317 172q65 35 86 58.5t21 52.5q0 32 -23.5 50.5t-64.5 18.5q-51 0 -78 -25t-33 -79l-242 31q11 120 103 189t244 69q163 0 253.5 -68t90.5 -178q0 -83 -55 -144.5t-203 -129.5l-23 -11h279v-194h-672v188zM690 0h-307l1237 1434h307zM1831 -8q-136 0 -223 50
t-107 146l219 39q23 -61 115 -61q104 0 104 76q0 31 -25.5 50t-78.5 19q-72 0 -106 -39l-197 23l29 422h555v-182h-359l-4 -101q56 33 139 33q134 0 205.5 -58t71.5 -163q0 -122 -90 -188t-248 -66z" />
    <glyph glyph-name="threefifths" unicode="&#x2157;" horiz-adv-x="2113" 
d="M745 928q0 -98 -91.5 -158.5t-260.5 -60.5q-155 0 -246.5 57t-95.5 168l232 27q3 -38 29 -55t79 -17q107 0 107 57q0 43 -74 43h-102v178h106q66 0 66 43q0 52 -97 52q-108 0 -114 -70l-228 27q8 102 99 162.5t245 60.5q158 0 247 -54t89 -147q0 -109 -114 -156
q124 -41 124 -157zM575 0h-307l1237 1434h307zM1716 -8q-136 0 -223 50t-107 146l220 39q23 -61 114 -61q105 0 105 76q0 31 -26 50t-79 19q-72 0 -106 -39l-197 23l29 422h555v-182h-359l-4 -101q56 33 140 33q134 0 205 -58t71 -163q0 -122 -90 -188t-248 -66z" />
    <glyph glyph-name="fourfifths" unicode="&#x2158;" horiz-adv-x="2164" 
d="M680 717h-231v108h-398v156l402 453h227v-428h90v-181h-90v-108zM627 0h-308l1237 1434h308zM289 1006h160v186zM1767 -8q-136 0 -222.5 50t-106.5 146l219 39q23 -61 115 -61q104 0 104 76q0 31 -25.5 50t-78.5 19q-73 0 -107 -39l-197 23l29 422h555v-182h-358l-4 -101
q56 33 139 33q134 0 205 -58t71 -163q0 -122 -90 -188t-248 -66z" />
    <glyph glyph-name="onesixth" unicode="&#x2159;" horiz-adv-x="2050" 
d="M70 717v194h176v324l-160 -33v193l184 39h219v-523h158v-194h-577zM586 0h-307l1237 1434h307zM1292 346q0 182 103.5 280.5t275.5 98.5q105 0 185 -37.5t124 -109.5l-215 -84q-36 51 -100 51q-110 0 -127 -135q65 49 172 49q141 0 212 -60.5t71 -160.5t-91 -173
t-247 -73q-178 0 -270.5 89t-92.5 265zM1651 168q104 0 104 68q0 67 -104 67q-50 0 -77.5 -17.5t-27.5 -49.5t27.5 -50t77.5 -18z" />
    <glyph glyph-name="fivesixths" unicode="&#x215a;" horiz-adv-x="2011" 
d="M385 709q-136 0 -223 50t-107 146l219 39q23 -61 115 -61q105 0 105 75q0 31 -26 50.5t-79 19.5q-72 0 -106 -39l-197 23l29 422h555v-183h-359l-4 -100q56 33 139 33q134 0 205.5 -58t71.5 -163q0 -122 -90 -188t-248 -66zM547 0h-307l1237 1434h307zM1253 346
q0 182 103.5 280.5t275.5 98.5q105 0 185.5 -38t124.5 -109l-216 -84q-36 51 -100 51q-110 0 -127 -135q65 49 172 49q141 0 212 -60.5t71 -160.5t-91 -173t-247 -73q-178 0 -270.5 89t-92.5 265zM1612 168q104 0 104 68q0 67 -104 67q-50 0 -77.5 -17.5t-27.5 -49.5
t27.5 -50t77.5 -18z" />
    <glyph glyph-name="oneeighth" unicode="&#x215b;" horiz-adv-x="2121" 
d="M70 717v194h176v324l-160 -33v193l184 39h219v-523h158v-194h-577zM586 0h-307l1237 1434h307zM1696 -8q-185 0 -276 57t-91 156q0 111 129 168q-102 51 -102 145q0 96 87 151.5t253 55.5t253 -55.5t87 -151.5t-105 -147q131 -55 131 -166q0 -100 -90 -156.5t-276 -56.5z
M1696 561q-99 0 -99 -55t99 -55q98 0 98 55q0 29 -23.5 42t-74.5 13zM1696 156q62 0 87 15.5t25 49.5q0 66 -112 66q-61 0 -87 -16.5t-26 -49.5q0 -65 113 -65z" />
    <glyph glyph-name="threeeighths" unicode="&#x215c;" horiz-adv-x="2111" 
d="M745 928q0 -98 -91.5 -158.5t-260.5 -60.5q-155 0 -246.5 57t-95.5 168l232 27q3 -38 29 -55t79 -17q107 0 107 57q0 43 -74 43h-102v178h106q66 0 66 43q0 52 -97 52q-108 0 -114 -70l-228 27q8 102 99 162.5t245 60.5q158 0 247 -54t89 -147q0 -109 -114 -156
q124 -41 124 -157zM575 0h-307l1237 1434h307zM1686 -8q-185 0 -276 57t-91 156q0 111 129 168q-102 51 -102 145q0 96 87 151.5t253 55.5t252.5 -55.5t86.5 -151.5q0 -97 -104 -147q131 -55 131 -166q0 -100 -90 -156.5t-276 -56.5zM1686 561q-99 0 -99 -55t99 -55
q98 0 98 55q0 29 -23.5 42t-74.5 13zM1686 156q62 0 87 15.5t25 49.5q0 66 -112 66q-61 0 -87 -16.5t-26 -49.5q0 -65 113 -65z" />
    <glyph glyph-name="fiveeighths" unicode="&#x215d;" horiz-adv-x="2082" 
d="M385 709q-136 0 -223 50t-107 146l219 39q23 -61 115 -61q105 0 105 75q0 31 -26 50.5t-79 19.5q-72 0 -106 -39l-197 23l29 422h555v-183h-359l-4 -100q56 33 139 33q134 0 205.5 -58t71.5 -163q0 -122 -90 -188t-248 -66zM547 0h-307l1237 1434h307zM1657 -8
q-185 0 -276 57t-91 156q0 111 129 168q-102 51 -102 145q0 96 87 151.5t253 55.5t253 -55.5t87 -151.5t-105 -147q131 -55 131 -166q0 -100 -90 -156.5t-276 -56.5zM1657 561q-98 0 -98 -55t98 -55t98 55q0 29 -23.5 42t-74.5 13zM1657 156q62 0 87 15.5t25 49.5
q0 66 -112 66q-61 0 -87 -16.5t-26 -49.5q0 -65 113 -65z" />
    <glyph glyph-name="seveneighths" unicode="&#x215e;" horiz-adv-x="1937" 
d="M657 1290l-254 -573h-251l247 522h-350v195h608v-144zM401 0h-307l1237 1434h307zM1511 -8q-185 0 -275.5 57t-90.5 156q0 111 129 168q-103 51 -103 145q0 96 87 151.5t253 55.5t253 -55.5t87 -151.5q0 -97 -104 -147q131 -55 131 -166q0 -100 -90 -156.5t-277 -56.5z
M1511 561q-98 0 -98 -55t98 -55q99 0 99 55q0 29 -24 42t-75 13zM1511 156q62 0 87.5 15.5t25.5 49.5q0 29 -27 47.5t-86 18.5q-61 0 -86.5 -16t-25.5 -50q0 -65 112 -65z" />
    <glyph glyph-name="arrowleft" unicode="&#x2190;" horiz-adv-x="1505" 
d="M803 909l-225 -215h845v-307h-845l227 -217l-197 -207l-577 578l575 575z" />
    <glyph glyph-name="arrowup" unicode="&#x2191;" horiz-adv-x="1505" 
d="M1122 641l-215 225v-846h-307v846l-217 -227l-207 197l578 577l575 -575z" />
    <glyph glyph-name="arrowright" unicode="&#x2192;" horiz-adv-x="1505" 
d="M702 909l197 207l576 -575l-578 -578l-197 207l228 217h-846v307h846z" />
    <glyph glyph-name="arrowdown" unicode="&#x2193;" horiz-adv-x="1505" 
d="M383 795l217 -228v846h307v-846l215 226l207 -197l-575 -576l-578 578z" />
    <glyph glyph-name="uni2194" unicode="&#x2194;" horiz-adv-x="1894" 
d="M803 909l-225 -215h739l-225 215l196 207l576 -575l-578 -578l-196 207l227 217h-739l227 -217l-197 -207l-577 578l575 575z" />
    <glyph glyph-name="uni2195" unicode="&#x2195;" horiz-adv-x="1505" 
d="M383 559l217 -227v739l-217 -227l-207 196l578 578l575 -576l-207 -196l-215 225v-739l215 225l207 -197l-575 -575l-578 577z" />
    <glyph glyph-name="uni2196" unicode="&#x2196;" horiz-adv-x="1505" 
d="M1071 821h-323l602 -604l-217 -217l-605 606v-327h-272v815h815v-273z" />
    <glyph glyph-name="uni2197" unicode="&#x2197;" horiz-adv-x="1505" 
d="M434 821v273h815v-815h-272v327l-604 -606l-217 217l602 604h-324z" />
    <glyph glyph-name="uni2198" unicode="&#x2198;" horiz-adv-x="1505" 
d="M434 272h324l-602 605l217 217l604 -607v328h272v-815h-815v272z" />
    <glyph glyph-name="uni2199" unicode="&#x2199;" horiz-adv-x="1505" 
d="M1071 272v-272h-815v815h272v-328l605 607l217 -217l-602 -605h323z" />
    <glyph glyph-name="partialdiff" unicode="&#x2202;" horiz-adv-x="1333" 
d="M627 -20q-162 0 -287.5 57t-196.5 166.5t-71 255.5q0 204 131 328t346 124t332 -147q-15 393 -246 393q-153 0 -178 -139l-353 69q34 177 176.5 272t350.5 95q295 0 457.5 -195.5t162.5 -541.5q0 -349 -162 -543t-462 -194zM635 276q88 0 137 46.5t49 128.5
q0 85 -49 132.5t-137 47.5q-91 0 -142 -47.5t-51 -132.5q0 -82 51 -128.5t142 -46.5z" />
    <glyph glyph-name="product" unicode="&#x220f;" horiz-adv-x="1644" 
d="M164 -250v1684h1317v-1684h-379v1376h-559v-1376h-379z" />
    <glyph glyph-name="summation" unicode="&#x2211;" horiz-adv-x="1294" 
d="M92 -307v307l416 569l-416 557v308h1118v-308h-680l402 -546l-397 -580h698v-307h-1141z" />
    <glyph glyph-name="minus" unicode="&#x2212;" 
d="M932 596h-840v264h840v-264z" />
    <glyph glyph-name="uni2215" unicode="&#x2215;" horiz-adv-x="1544" 
d="M307 0h-307l1237 1434h307z" />
    <glyph glyph-name="radical" unicode="&#x221a;" horiz-adv-x="1425" 
d="M563 0l-323 698l-189 -77l-82 210l492 199l239 -604l385 1008h340l-587 -1434h-275z" />
    <glyph glyph-name="infinity" unicode="&#x221e;" horiz-adv-x="1589" 
d="M1124 223q-204 0 -338 185q-63 -87 -139 -136t-182 -49q-180 0 -286.5 116.5t-106.5 315.5q0 194 110.5 317.5t282.5 123.5q95 0 171.5 -42t149.5 -147q65 88 145 138.5t193 50.5q180 0 287 -116.5t107 -315.5q0 -194 -111 -317.5t-283 -123.5zM358 655q0 -69 36 -108
t91 -39q50 0 87.5 40.5t78.5 119.5q-44 85 -80 114t-86 29q-55 0 -91 -41.5t-36 -114.5zM1104 811q-53 0 -94.5 -41.5t-85.5 -120.5q40 -81 82.5 -111t97.5 -30t91 41.5t36 114.5q0 69 -36 108t-91 39z" />
    <glyph glyph-name="integral" unicode="&#x222b;" horiz-adv-x="839" 
d="M195 1110q0 220 113 333t333 113q90 0 184 -20l-12 -281q-55 15 -113 15q-77 0 -113 -35.5t-36 -122.5v-1096q0 -220 -114 -333t-335 -113q-56 0 -163 20l-9 281q52 -14 113 -14q79 0 115.5 35t36.5 122v1096z" />
    <glyph glyph-name="approxequal" unicode="&#x2248;" 
d="M309 897q-92 0 -217 -80v273q133 77 238 77q60 0 118 -20.5t96 -45t84.5 -45t86.5 -20.5q92 0 217 80v-272q-137 -78 -238 -78q-58 0 -115 20.5t-94.5 45t-85 45t-90.5 20.5zM309 430q-92 0 -217 -80v273q133 77 238 77q60 0 118 -20.5t96 -45t84.5 -45t86.5 -20.5
q92 0 217 80v-272q-137 -78 -238 -78q-58 0 -115 20.5t-94.5 45t-85 45t-90.5 20.5z" />
    <glyph glyph-name="notequal" unicode="&#x2260;" 
d="M414 240h-250l59 131h-131v264h252l84 186h-336v264h457l61 136h250l-61 -136h133v-264h-254l-84 -186h338v-264h-459z" />
    <glyph glyph-name="lessequal" unicode="&#x2264;" 
d="M92 743v244l840 406v-318l-455 -198l455 -199v-340zM932 -16h-840v264h840v-264z" />
    <glyph glyph-name="greaterequal" unicode="&#x2265;" 
d="M932 987v-244l-840 -405v317l455 199l-455 199v340zM932 -16h-840v264h840v-264z" />
    <glyph glyph-name="wave" unicode="&#x2307;" horiz-adv-x="1654" 
d="M1655 0q-98 0 -180.5 40t-140.5 107t-106 154.5t-82 184t-63.5 192.5t-56.5 183.5t-55 154.5t-64.5 107t-79.5 40t-79.5 -40t-64.5 -107t-54.5 -154.5t-56.5 -184t-64 -192.5t-81.5 -183.5t-105.5 -154.5t-140.5 -107t-180.5 -40v291q45 0 82.5 40t65.5 107t55 154.5
t56.5 184t63 192.5t80.5 183.5t104.5 154.5t139.5 107t180 40t180.5 -40t139.5 -107t104.5 -154.5t81 -184t62.5 -192.5t56 -183.5t55.5 -154.5t66 -107t82.5 -40q10 0 10 -146q0 -145 -10 -145z" />
    <glyph glyph-name="lozenge" unicode="&#x25ca;" horiz-adv-x="1396" 
d="M870 0h-344l-485 717l485 717h344l486 -717zM432 723l275 -414l256 418l-271 397z" />
    <glyph glyph-name="commaaccent" unicode="&#xf6c3;" 
d="M184 -410l109 293h420l-262 -293h-267z" />
    <glyph glyph-name="kgreenlandic.case" horiz-adv-x="1851" 
d="M164 0v1434h368v-549l494 549h440l-592 -639l635 -795h-460l-420 526l-97 -102v-424h-368zM1892 1434l-102 -332h-440l276 332h266z" />
    <glyph glyph-name="napostrophe.case" horiz-adv-x="2091" 
d="M621 0v1434h374l594 -926v926h338v-1434h-375l-594 926v-926h-337zM0 1141l109 293h419l-262 -293h-266z" />
    <glyph glyph-name="i.dot" horiz-adv-x="643" 
d="M143 1245v311h357v-311h-357zM143 0v1126h357v-1126h-357z" />
    <glyph glyph-name="caron.alt" 
d="M666 1081v455h389l-144 -455h-245z" />
    <glyph glyph-name="revcommaaccent" 
d="M840 1577l-103 -332h-440l276 332h267z" />
    <glyph glyph-name="zero.tlf" horiz-adv-x="1331" 
d="M666 -20q-290 0 -451.5 190t-161.5 547t161.5 547t451.5 190t451 -190t161 -547t-161 -547t-451 -190zM666 287q223 0 223 430t-223 430q-224 0 -224 -430t224 -430z" />
    <glyph glyph-name="one.tlf" horiz-adv-x="1331" 
d="M135 0v307h375v799l-334 -82v317l375 93h340v-1127h352v-307h-1108z" />
    <glyph glyph-name="two.tlf" horiz-adv-x="1331" 
d="M152 307l442 361q129 105 178 177.5t49 151.5q0 68 -43 109t-119 41q-188 0 -194 -238l-363 54q20 231 168.5 361t395.5 130q248 0 394 -124t146 -329q0 -151 -82.5 -274.5t-298.5 -294.5l-157 -125h553v-307h-1069v307z" />
    <glyph glyph-name="three.tlf" horiz-adv-x="1331" 
d="M1241 406q0 -201 -153.5 -313.5t-409.5 -112.5q-261 0 -410 107.5t-176 344.5l363 66q12 -222 219 -222q88 0 136 40.5t48 113.5q0 68 -45.5 105.5t-132.5 37.5h-139v297h139q78 0 124 39.5t46 104.5q0 143 -180 143q-98 0 -154 -53t-63 -156l-347 66q31 211 184.5 325.5
t399.5 114.5q239 0 385 -101.5t146 -279.5q0 -113 -61.5 -197.5t-176.5 -130.5q258 -85 258 -339z" />
    <glyph glyph-name="four.tlf" horiz-adv-x="1331" 
d="M1106 0h-358v240h-697v276l676 918h379v-897h184v-297h-184v-240zM426 537h322v444z" />
    <glyph glyph-name="five.tlf" horiz-adv-x="1331" 
d="M674 -20q-470 0 -551 374l352 74q21 -141 191 -141q92 0 140 48t48 142t-50 145.5t-142 51.5q-133 0 -187 -105l-315 45l65 820h912v-308h-609l-22 -264q109 86 276 86q199 0 326 -124.5t127 -340.5q0 -235 -150.5 -369t-410.5 -134z" />
    <glyph glyph-name="six.tlf" horiz-adv-x="1331" 
d="M82 717q0 346 168.5 541.5t472.5 195.5q208 0 350 -95t176 -272l-352 -69q-25 139 -178 139q-243 0 -258 -393q126 147 344 147q207 0 332 -121.5t125 -330.5q0 -146 -73 -255.5t-201 -166.5t-294 -57q-295 0 -453.5 194t-158.5 543zM698 276q91 0 142 46.5t51 128.5
q0 85 -51 132.5t-142 47.5q-88 0 -137 -47.5t-49 -132.5q0 -82 49 -128.5t137 -46.5z" />
    <glyph glyph-name="seven.tlf" horiz-adv-x="1331" 
d="M1192 1126l-494 -1126h-411l516 1126h-637v308h1026v-308z" />
    <glyph glyph-name="eight.tlf" horiz-adv-x="1331" 
d="M666 -20q-283 0 -436.5 113.5t-153.5 303.5q0 114 67.5 200t192.5 136q-99 52 -154 135.5t-55 188.5q0 176 145.5 286.5t393.5 110.5t393 -110.5t145 -288.5q0 -105 -54 -188t-153 -134q124 -50 191 -136.5t67 -199.5q0 -190 -153 -303.5t-436 -113.5zM844 1024
q0 72 -47.5 113t-130.5 41t-131 -40.5t-48 -111.5q0 -70 47.5 -109.5t131.5 -39.5q83 0 130.5 39t47.5 108zM666 256q98 0 153 42t55 116q0 78 -55.5 123t-152.5 45t-153 -45t-56 -123q0 -74 55.5 -116t153.5 -42z" />
    <glyph glyph-name="nine.tlf" horiz-adv-x="1331" 
d="M1249 717q0 -346 -168.5 -541.5t-472.5 -195.5q-208 0 -350 94.5t-176 271.5l352 70q12 -68 57.5 -104t120.5 -36q243 0 258 394q-126 -148 -344 -148q-207 0 -331.5 122t-124.5 331q0 220 157 349.5t410 129.5q295 0 453.5 -194t158.5 -543zM633 1157q-91 0 -142 -46
t-51 -128q0 -85 51 -132.5t142 -47.5q88 0 137 47.5t49 132.5q0 82 -49 128t-137 46z" />
    <glyph glyph-name="zero.posf" horiz-adv-x="1388" 
d="M694 -20q-292 0 -457 168t-165 466t165 466.5t457 168.5t457.5 -168.5t165.5 -466.5t-165.5 -466t-457.5 -168zM694 287q114 0 174 83.5t60 243.5q0 159 -60 243.5t-174 84.5t-173.5 -84.5t-59.5 -243.5q0 -160 59.5 -243.5t173.5 -83.5z" />
    <glyph glyph-name="one.posf" horiz-adv-x="1171" 
d="M63 0v307h375v594l-334 -82v318l375 92h340v-922h311v-307h-1067z" />
    <glyph glyph-name="two.posf" horiz-adv-x="1234" 
d="M90 307l445 248q129 72 173 125t44 123q0 65 -41 102t-115 37q-187 0 -193 -237l-362 53q20 233 168 362t395 129q244 0 388.5 -118t144.5 -314q0 -159 -97.5 -273t-345.5 -214l-55 -23h512v-307h-1061v307z" />
    <glyph glyph-name="three.posf" horiz-adv-x="1288" 
d="M1210 174q0 -207 -153.5 -323.5t-409.5 -116.5q-260 0 -409 111.5t-177 355.5l363 65q6 -118 59.5 -176.5t159.5 -58.5q88 0 136 44t48 124q0 71 -45.5 110t-132.5 39h-139v297h139q78 0 124 45t46 119q0 143 -180 143q-98 0 -154 -53t-63 -156l-346 66q31 211 184 325.5
t399 114.5q239 0 385 -101.5t146 -279.5q0 -120 -62.5 -209t-177.5 -139q260 -83 260 -346z" />
    <glyph glyph-name="four.posf" horiz-adv-x="1300" 
d="M1085 -246h-358v246h-696v276l676 953h378v-932h185v-297h-185v-246zM401 297h326v469z" />
    <glyph glyph-name="five.posf" horiz-adv-x="1271" 
d="M633 -266q-470 0 -551 375l352 73q21 -141 191 -141q92 0 140 51.5t48 149.5q0 99 -50 153t-142 54q-133 0 -187 -105l-315 45l65 840h912v-307h-607l-24 -285q106 86 276 86q199 0 326 -127.5t127 -347.5q0 -242 -150 -378t-411 -136z" />
    <glyph glyph-name="six.posf" horiz-adv-x="1333" 
d="M82 717q0 346 168.5 541.5t472.5 195.5q208 0 350 -95t176 -272l-352 -69q-25 139 -178 139q-243 0 -258 -393q126 147 344 147q207 0 332 -121.5t125 -330.5q0 -146 -73 -255.5t-201 -166.5t-294 -57q-295 0 -453.5 194t-158.5 543zM698 276q91 0 142 46.5t51 128.5
q0 85 -51 132.5t-142 47.5q-88 0 -137 -47.5t-49 -132.5q0 -82 49 -128.5t137 -46.5z" />
    <glyph glyph-name="seven.posf" horiz-adv-x="1093" 
d="M1061 922l-512 -1168h-412l535 1168h-637v307h1026v-307z" />
    <glyph glyph-name="eight.posf" horiz-adv-x="1318" 
d="M659 -20q-283 0 -436 113.5t-153 303.5q0 114 67.5 200t192.5 136q-99 52 -154 135.5t-55 188.5q0 176 145 286.5t393 110.5t393.5 -110.5t145.5 -288.5q0 -105 -54 -188t-153 -134q124 -50 191 -136.5t67 -199.5q0 -190 -153.5 -303.5t-436.5 -113.5zM838 1024
q0 72 -48 113t-131 41t-130.5 -40.5t-47.5 -111.5q0 -70 47.5 -109.5t130.5 -39.5t131 39t48 108zM659 256q98 0 153.5 42t55.5 116q0 78 -56 123t-153 45t-152.5 -45t-55.5 -123q0 -74 55 -116t153 -42z" />
    <glyph glyph-name="nine.posf" horiz-adv-x="1333" 
d="M1251 492q0 -355 -168.5 -556.5t-472.5 -201.5q-208 0 -350 94.5t-176 271.5l352 70q25 -139 178 -139q243 0 258 413q-126 -147 -344 -147q-207 0 -331.5 124.5t-124.5 338.5q0 224 157 356.5t410 132.5q295 0 453.5 -199.5t158.5 -557.5zM635 952q-91 0 -142 -49
t-51 -135q0 -89 51 -139.5t142 -50.5q88 0 137 50.5t49 139.5q0 86 -49 135t-137 49z" />
    <glyph glyph-name="zero.numerator" horiz-adv-x="868" 
d="M434 709q-178 0 -274.5 99t-96.5 267q0 169 96.5 268t274.5 99t274.5 -99.5t96.5 -267.5q0 -169 -96.5 -267.5t-274.5 -98.5zM434 907q113 0 113 168t-113 168q-112 0 -112 -168t112 -168z" />
    <glyph glyph-name="one.numerator" horiz-adv-x="698" 
d="M70 717v194h176v324l-160 -33v193l184 39h219v-523h158v-194h-577z" />
    <glyph glyph-name="two.numerator" horiz-adv-x="823" 
d="M76 905l317 172q65 35 86 58.5t21 52.5q0 32 -23.5 50.5t-64.5 18.5q-51 0 -78 -25t-33 -79l-242 31q11 120 103 189t244 69q163 0 253.5 -68t90.5 -178q0 -83 -55 -144.5t-203 -129.5l-23 -11h279v-194h-672v188z" />
    <glyph glyph-name="three.numerator" horiz-adv-x="811" 
d="M745 928q0 -98 -91.5 -158.5t-260.5 -60.5q-155 0 -246.5 57t-95.5 168l232 27q3 -38 29 -55t79 -17q107 0 107 57q0 43 -74 43h-102v178h106q66 0 66 43q0 52 -97 52q-108 0 -114 -70l-228 27q8 102 99 162.5t245 60.5q158 0 247 -54t89 -147q0 -109 -114 -156
q124 -41 124 -157z" />
    <glyph glyph-name="four.numerator" horiz-adv-x="821" 
d="M680 717h-231v108h-398v156l402 453h227v-428h90v-181h-90v-108zM289 1006h160v186z" />
    <glyph glyph-name="five.numerator" horiz-adv-x="782" 
d="M385 709q-136 0 -223 50t-107 146l219 39q23 -61 115 -61q105 0 105 75q0 31 -26 50.5t-79 19.5q-72 0 -106 -39l-197 23l29 422h555v-183h-359l-4 -100q56 33 139 33q134 0 205.5 -58t71.5 -163q0 -122 -90 -188t-248 -66z" />
    <glyph glyph-name="six.numerator" horiz-adv-x="821" 
d="M63 1063q0 182 103.5 280.5t275.5 98.5q105 0 185.5 -38t124.5 -110l-215 -84q-36 52 -101 52q-110 0 -127 -136q66 50 172 50q140 0 211.5 -61t71.5 -161t-91 -172.5t-247 -72.5q-178 0 -270.5 89t-92.5 265zM422 885q104 0 104 67q0 68 -104 68q-50 0 -77.5 -18
t-27.5 -50t27.5 -49.5t77.5 -17.5z" />
    <glyph glyph-name="seven.numerator" horiz-adv-x="708" 
d="M657 1290l-254 -573h-251l247 522h-350v195h608v-144z" />
    <glyph glyph-name="eight.numerator" horiz-adv-x="851" 
d="M426 709q-185 0 -276 57t-91 156q0 111 129 168q-102 51 -102 145q0 96 87 151.5t253 55.5t253 -55.5t87 -151.5q0 -98 -104 -148q131 -55 131 -165q0 -100 -90 -156.5t-277 -56.5zM426 1278q-98 0 -98 -55q0 -56 98 -56t98 56q0 29 -23.5 42t-74.5 13zM426 872
q62 0 87.5 15.5t25.5 50.5q0 29 -27 47.5t-86 18.5q-61 0 -87 -16.5t-26 -49.5q0 -66 113 -66z" />
    <glyph glyph-name="nine.numerator" horiz-adv-x="821" 
d="M758 1087q0 -181 -103.5 -279.5t-275.5 -98.5q-105 0 -185 37.5t-124 109.5l215 84q36 -51 100 -51q110 0 127 135q-65 -49 -172 -49q-141 0 -212 60.5t-71 160.5t91 173t247 73q178 0 270.5 -89.5t92.5 -265.5zM399 1266q-104 0 -104 -68t104 -68q50 0 77.5 18t27.5 50
t-27.5 50t-77.5 18z" />
    <glyph glyph-name="zero.denominator" horiz-adv-x="868" 
d="M434 -8q-178 0 -274.5 99t-96.5 267q0 169 96.5 268t274.5 99t274.5 -99.5t96.5 -267.5q0 -169 -96.5 -267.5t-274.5 -98.5zM434 190q113 0 113 168t-113 168q-112 0 -112 -168t112 -168z" />
    <glyph glyph-name="one.denominator" horiz-adv-x="698" 
d="M70 0v195h176v323l-160 -33v193l184 39h219v-522h158v-195h-577z" />
    <glyph glyph-name="two.denominator" horiz-adv-x="823" 
d="M76 188l317 172q65 35 86 58.5t21 52.5q0 32 -23.5 51t-64.5 19q-51 0 -78 -25.5t-33 -79.5l-242 31q11 120 103 189t244 69q163 0 253.5 -68t90.5 -178q0 -83 -55 -144.5t-203 -129.5l-23 -10h279v-195h-672v188z" />
    <glyph glyph-name="three.denominator" horiz-adv-x="811" 
d="M745 211q0 -98 -91.5 -158.5t-260.5 -60.5q-155 0 -246.5 57t-95.5 168l232 27q3 -38 29 -55t79 -17q107 0 107 57q0 43 -74 43h-102v179h106q66 0 66 43q0 51 -97 51q-108 0 -114 -70l-228 27q8 102 99 162.5t245 60.5q158 0 247 -54t89 -147q0 -108 -114 -155
q124 -41 124 -158z" />
    <glyph glyph-name="four.denominator" horiz-adv-x="821" 
d="M680 0h-231v109h-398v155l402 453h227v-428h90v-180h-90v-109zM289 289h160v186z" />
    <glyph glyph-name="five.denominator" horiz-adv-x="782" 
d="M385 -8q-136 0 -223 50t-107 146l219 39q23 -61 115 -61q105 0 105 76q0 31 -26 50t-79 19q-72 0 -106 -39l-197 23l29 422h555v-182h-359l-4 -101q56 33 139 33q134 0 205.5 -58t71.5 -163q0 -122 -90 -188t-248 -66z" />
    <glyph glyph-name="six.denominator" horiz-adv-x="821" 
d="M63 346q0 182 103.5 280.5t275.5 98.5q105 0 185.5 -38t124.5 -109l-215 -84q-36 51 -101 51q-110 0 -127 -135q65 49 172 49q141 0 212 -60.5t71 -160.5t-91 -173t-247 -73q-178 0 -270.5 89t-92.5 265zM422 168q104 0 104 68q0 67 -104 67q-50 0 -77.5 -17.5
t-27.5 -49.5t27.5 -50t77.5 -18z" />
    <glyph glyph-name="seven.denominator" horiz-adv-x="708" 
d="M657 573l-254 -573h-251l247 522h-350v195h608v-144z" />
    <glyph glyph-name="eight.denominator" horiz-adv-x="851" 
d="M426 -8q-185 0 -276 57t-91 156q0 111 129 168q-102 51 -102 145q0 96 87 151.5t253 55.5t253 -55.5t87 -151.5q0 -97 -104 -147q131 -55 131 -166q0 -100 -90 -156.5t-277 -56.5zM426 561q-98 0 -98 -55t98 -55t98 55q0 29 -23.5 42t-74.5 13zM426 156q62 0 87.5 15.5
t25.5 49.5q0 29 -27 47.5t-86 18.5q-61 0 -87 -16.5t-26 -49.5q0 -65 113 -65z" />
    <glyph glyph-name="nine.denominator" horiz-adv-x="821" 
d="M758 371q0 -182 -103.5 -280.5t-275.5 -98.5q-105 0 -185 37.5t-124 109.5l215 84q36 -51 100 -51q110 0 127 135q-65 -49 -172 -49q-141 0 -212 60.5t-71 160.5t91 173t247 73q178 0 270.5 -89t92.5 -265zM399 549q-104 0 -104 -68q0 -67 104 -67q50 0 77.5 17.5
t27.5 49.5t-27.5 50t-77.5 18z" />
    <glyph glyph-name="twosevenths" horiz-adv-x="2215" 
d="M76 905l317 172q65 35 86 58.5t21 52.5q0 32 -23.5 50.5t-64.5 18.5q-51 0 -78 -25t-33 -79l-242 31q11 120 103 189t244 69q163 0 253.5 -68t90.5 -178q0 -83 -55 -144.5t-203 -129.5l-23 -11h279v-194h-672v188zM690 0h-307l1237 1434h307zM2165 573l-254 -573h-252
l248 522h-351v195h609v-144z" />
    <glyph glyph-name="twoninths" horiz-adv-x="2195" 
d="M76 905l317 172q65 35 86 58.5t21 52.5q0 32 -23.5 50.5t-64.5 18.5q-51 0 -78 -25t-33 -79l-242 31q11 120 103 189t244 69q163 0 253.5 -68t90.5 -178q0 -83 -55 -144.5t-203 -129.5l-23 -11h279v-194h-672v188zM690 0h-307l1237 1434h307zM2132 371
q0 -182 -103.5 -280.5t-275.5 -98.5q-105 0 -185 37.5t-124 109.5l215 84q36 -51 100 -51q110 0 127 135q-65 -49 -172 -49q-140 0 -211 60.5t-71 160.5t90.5 173t246.5 73q178 0 270.5 -89t92.5 -265zM1774 549q-51 0 -78 -18t-27 -50q0 -67 105 -67q50 0 77 17.5t27 49.5
t-27.5 50t-76.5 18z" />
    <glyph glyph-name="threesevenths" horiz-adv-x="2101" 
d="M745 928q0 -98 -91.5 -158.5t-260.5 -60.5q-155 0 -246.5 57t-95.5 168l232 27q3 -38 29 -55t79 -17q107 0 107 57q0 43 -74 43h-102v178h106q66 0 66 43q0 52 -97 52q-108 0 -114 -70l-228 27q8 102 99 162.5t245 60.5q158 0 247 -54t89 -147q0 -109 -114 -156
q124 -41 124 -157zM575 0h-307l1237 1434h307zM2050 573l-254 -573h-252l248 522h-350v195h608v-144z" />
    <glyph glyph-name="foursevenths" horiz-adv-x="2152" 
d="M680 717h-231v108h-398v156l402 453h227v-428h90v-181h-90v-108zM627 0h-308l1237 1434h308zM289 1006h160v186zM2101 573l-254 -573h-252l248 522h-350v195h608v-144z" />
    <glyph glyph-name="fourninths" horiz-adv-x="2131" 
d="M680 717h-231v108h-398v156l402 453h227v-428h90v-181h-90v-108zM627 0h-308l1237 1434h308zM289 1006h160v186zM2068 371q0 -182 -103 -280.5t-275 -98.5q-105 0 -185.5 38t-124.5 109l215 84q36 -51 101 -51q110 0 127 135q-65 -49 -172 -49q-141 0 -212 60.5
t-71 160.5t91 173t247 73q178 0 270 -89t92 -265zM1710 549q-104 0 -104 -68q0 -67 104 -67q50 0 77.5 17.5t27.5 49.5t-27.5 50t-77.5 18z" />
    <glyph glyph-name="fivesevenths" horiz-adv-x="2072" 
d="M385 709q-136 0 -223 50t-107 146l219 39q23 -61 115 -61q105 0 105 75q0 31 -26 50.5t-79 19.5q-72 0 -106 -39l-197 23l29 422h555v-183h-359l-4 -100q56 33 139 33q134 0 205.5 -58t71.5 -163q0 -122 -90 -188t-248 -66zM547 0h-307l1237 1434h307zM2021 573
l-254 -573h-251l247 522h-350v195h608v-144z" />
    <glyph glyph-name="fiveninths" horiz-adv-x="2052" 
d="M385 709q-136 0 -223 50t-107 146l219 39q23 -61 115 -61q105 0 105 75q0 31 -26 50.5t-79 19.5q-72 0 -106 -39l-197 23l29 422h555v-183h-359l-4 -100q56 33 139 33q134 0 205.5 -58t71.5 -163q0 -122 -90 -188t-248 -66zM547 0h-307l1237 1434h307zM1989 371
q0 -182 -103.5 -280.5t-275.5 -98.5q-105 0 -185.5 38t-124.5 109l216 84q36 -51 100 -51q110 0 127 135q-65 -49 -172 -49q-141 0 -212 60.5t-71 160.5t91 173t247 73q178 0 270.5 -89t92.5 -265zM1630 549q-104 0 -104 -68q0 -67 104 -67q50 0 77.5 17.5t27.5 49.5
t-27.5 50t-77.5 18z" />
    <glyph glyph-name="sixsevenths" horiz-adv-x="2101" 
d="M63 1063q0 182 103.5 280.5t275.5 98.5q105 0 185.5 -38t124.5 -110l-215 -84q-36 52 -101 52q-110 0 -127 -136q66 50 172 50q140 0 211.5 -61t71.5 -161t-91 -172.5t-247 -72.5q-178 0 -270.5 89t-92.5 265zM575 0h-307l1237 1434h307zM422 885q104 0 104 67
q0 68 -104 68q-50 0 -77.5 -18t-27.5 -50t27.5 -49.5t77.5 -17.5zM2050 573l-254 -573h-252l248 522h-350v195h608v-144z" />
    <glyph glyph-name="sevenninths" horiz-adv-x="1906" 
d="M657 1290l-254 -573h-251l247 522h-350v195h608v-144zM401 0h-307l1237 1434h307zM1843 371q0 -182 -103.5 -280.5t-275.5 -98.5q-105 0 -185 37.5t-124 109.5l215 84q36 -51 100 -51q110 0 127 135q-65 -49 -172 -49q-140 0 -211 60.5t-71 160.5t91 173t247 73
q178 0 270 -89t92 -265zM1485 549q-51 0 -78 -18t-27 -50q0 -67 105 -67q50 0 77 17.5t27 49.5t-27.5 50t-76.5 18z" />
    <glyph glyph-name="eightninths" horiz-adv-x="2131" 
d="M426 709q-185 0 -276 57t-91 156q0 111 129 168q-102 51 -102 145q0 96 87 151.5t253 55.5t253 -55.5t87 -151.5q0 -98 -104 -148q131 -55 131 -165q0 -100 -90 -156.5t-277 -56.5zM627 0h-308l1237 1434h308zM426 1278q-98 0 -98 -55q0 -56 98 -56t98 56q0 29 -23.5 42
t-74.5 13zM426 872q62 0 87.5 15.5t25.5 50.5q0 29 -27 47.5t-86 18.5q-61 0 -87 -16.5t-26 -49.5q0 -66 113 -66zM2068 371q0 -182 -103 -280.5t-275 -98.5q-105 0 -185.5 38t-124.5 109l215 84q36 -51 101 -51q110 0 127 135q-65 -49 -172 -49q-141 0 -212 60.5t-71 160.5
t91 173t247 73q178 0 270 -89t92 -265zM1710 549q-104 0 -104 -68q0 -67 104 -67q50 0 77.5 17.5t27.5 49.5t-27.5 50t-77.5 18z" />
    <glyph glyph-name="mu" horiz-adv-x="1359" 
d="M1217 1126v-1126h-312l-28 199q-58 -104 -148 -161.5t-201 -57.5h-28v-390h-357v1536h357v-684q0 -75 37 -114t106 -39q102 0 159.5 66t57.5 184v587h357z" />
    <glyph glyph-name="Omega" horiz-adv-x="1675" 
d="M1219 340v-53h262v-287h-570v516q150 53 215.5 130.5t65.5 195.5q0 145 -94.5 226t-259.5 81q-168 0 -261.5 -80.5t-93.5 -226.5q0 -120 64 -196.5t217 -129.5v-516h-569v287h262v53q-180 89 -262 214.5t-82 297.5q0 275 196 438.5t529 163.5q335 0 530 -163.5
t195 -438.5q0 -353 -344 -512z" />
    <glyph glyph-name="Delta" horiz-adv-x="1519" 
d="M952 1434l568 -1434h-1520l567 1434h385zM481 295h541l-270 739z" />
    <glyph glyph-name="at.case" horiz-adv-x="2068" 
d="M1552 123q-119 0 -200.5 45.5t-112.5 128.5q-113 -176 -332 -176q-154 0 -246 83t-92 222q0 140 98.5 215t313.5 100l238 27q-3 168 -152 168q-156 0 -168 -152l-297 43q34 172 154.5 260.5t318.5 88.5q216 0 329.5 -100.5t113.5 -291.5v-393q0 -46 19.5 -68t61.5 -22
q92 0 154 107.5t62 308.5q0 220 -95 384t-266.5 250.5t-398.5 86.5q-236 0 -419 -107t-282.5 -298t-99.5 -435q0 -346 202 -545.5t558 -199.5q210 0 416 94l57 -123q-217 -111 -473 -111q-276 0 -482.5 107.5t-318 308t-111.5 469.5q0 214 73 397.5t199.5 310.5t302.5 199
t378 72q193 0 360 -60t289 -169t192 -271.5t70 -359.5q0 -266 -110.5 -430t-303.5 -164zM868 451q0 -86 111 -86q103 0 173.5 60.5t70.5 149.5l-258 -34q-97 -11 -97 -90z" />
    <glyph glyph-name="questiondown.case" horiz-adv-x="1228" 
d="M813 1434v-336h-356v336h356zM602 287q93 0 143 58t60 179l362 -73q-29 -221 -179 -346t-386 -125q-233 0 -376.5 113.5t-143.5 297.5q0 74 20.5 133.5t53.5 98.5t72.5 72t79.5 61.5t73 58.5t54 73t22 95h356q-2 -82 -23.5 -148t-53.5 -108t-70.5 -75.5t-76 -59
t-68.5 -49.5t-50.5 -55.5t-19.5 -69.5q0 -62 38 -96.5t113 -34.5z" />
    <glyph glyph-name="exclamdown.case" horiz-adv-x="684" 
d="M520 1434v-336h-356v336h356zM184 983h316l24 -983h-364z" />
    <glyph glyph-name="parenleft.case" horiz-adv-x="782" 
d="M455 -164q-322 423 -322 871q0 441 322 870h327q-147 -247 -215.5 -457t-68.5 -413t68.5 -413.5t215.5 -457.5h-327z" />
    <glyph glyph-name="parenright.case" horiz-adv-x="782" 
d="M328 1577q321 -422 321 -870q0 -443 -321 -871h-328q147 247 216 457.5t69 413.5t-68.5 413t-216.5 457h328z" />
    <glyph glyph-name="braceleft.case" horiz-adv-x="880" 
d="M367 707q141 -34 203.5 -120t62.5 -247v-68q0 -84 25 -116.5t90 -32.5q74 0 112 10l12 -280q-122 -17 -186 -17q-410 0 -410 359v206q0 63 -17 95t-66.5 50.5t-151.5 28.5v263q102 10 151.5 28.5t66.5 50.5t17 95v207q0 358 410 358q71 0 186 -16l-12 -281
q-38 10 -112 10q-63 0 -89 -33.5t-26 -115.5v-88q0 -150 -62.5 -231t-203.5 -115z" />
    <glyph glyph-name="braceright.case" horiz-adv-x="880" 
d="M840 838v-263q-102 -10 -151.5 -28.5t-67 -50.5t-17.5 -95v-206q0 -359 -409 -359q-65 0 -187 17l12 280q38 -10 113 -10q65 0 90 32.5t25 116.5v68q0 161 62.5 247t203.5 120q-141 34 -203.5 115t-62.5 231v88q0 82 -26 115.5t-89 33.5q-75 0 -113 -10l-12 281
q115 16 187 16q409 0 409 -358v-207q0 -63 17.5 -95t67 -50.5t151.5 -28.5z" />
    <glyph glyph-name="bracketleft.case" horiz-adv-x="804" 
d="M164 -164v1741h631v-287h-275v-1167h275v-287h-631z" />
    <glyph glyph-name="bracketright.case" horiz-adv-x="804" 
d="M641 -164h-631v287h275v1167h-275v287h631v-1741z" />
    <glyph glyph-name="hyphen.case" horiz-adv-x="765" 
d="M92 580v335h582v-335h-582z" />
    <glyph glyph-name="endash.case" 
d="M92 580v335h840v-335h-840z" />
    <glyph glyph-name="emdash.case" horiz-adv-x="2048" 
d="M92 580v335h1864v-335h-1864z" />
    <glyph glyph-name="brokenbar.case" horiz-adv-x="684" 
d="M520 829h-356v830h356v-830zM520 -246h-356v871h356v-871z" />
    <glyph glyph-name="bar.case" horiz-adv-x="684" 
d="M520 -246h-356v1905h356v-1905z" />
    <glyph glyph-name="guillemotleft.case" horiz-adv-x="1492" 
d="M670 573v-368l-598 305v393l598 305v-358l-346 -137zM1391 573v-368l-598 305v393l598 305v-358l-347 -137z" />
    <glyph glyph-name="guillemotright.case" horiz-adv-x="1492" 
d="M700 510l-598 -305v358l347 139l-347 138v368l598 -305v-393zM1421 510l-598 -305v358l346 139l-346 138v368l598 -305v-393z" />
    <glyph glyph-name="guilsinglleft.case" horiz-adv-x="772" 
d="M670 573v-368l-598 305v393l598 305v-358l-346 -137z" />
    <glyph glyph-name="guilsinglright.case" horiz-adv-x="772" 
d="M700 510l-598 -305v358l347 139l-347 138v368l598 -305v-393z" />
    </font>
</defs>
</svg>
